<svg width="565" height="377" viewBox="0 0 565 377" fill="none" xmlns="http://www.w3.org/2000/svg">
<g clip-path="url(#clip0_354_1897)">
<path d="M-47 71.7878H565" stroke="url(#paint0_linear_354_1897)"/>
<path d="M565 376.788H-47" stroke="url(#paint1_linear_354_1897)"/>
<path d="M29 556.288L29 -55.7122" stroke="url(#paint2_linear_354_1897)"/>
<path d="M512 555.788L512 -56.2122" stroke="url(#paint3_linear_354_1897)"/>
<rect x="80.5" y="357.787" width="11" height="77" rx="1" transform="rotate(-180 80.5 357.787)" fill="#006F37"/>
<rect x="123.167" y="357.787" width="12" height="90" rx="1" transform="rotate(-180 123.167 357.787)" fill="#006F37"/>
<rect x="164.833" y="357.787" width="11" height="71" rx="1" transform="rotate(-180 164.833 357.787)" fill="#006F37"/>
<rect x="206.5" y="357.787" width="11" height="109" rx="1" transform="rotate(-180 206.5 357.787)" fill="#006F37"/>
<rect x="249.167" y="357.787" width="12" height="109" rx="1" transform="rotate(-180 249.167 357.787)" fill="#006F37"/>
<rect x="291.833" y="357.787" width="12" height="153" rx="1" transform="rotate(-180 291.833 357.787)" fill="#006F37"/>
<rect x="333.5" y="357.787" width="11" height="135" rx="1" transform="rotate(-180 333.5 357.787)" fill="#006F37"/>
<rect x="375.167" y="357.787" width="11" height="98" rx="1" transform="rotate(-180 375.167 357.787)" fill="#006F37"/>
<rect x="417.833" y="357.787" width="12" height="77" rx="1" transform="rotate(-180 417.833 357.787)" fill="#006F37"/>
<rect x="459.5" y="357.787" width="11" height="135" rx="1" transform="rotate(-180 459.5 357.787)" fill="#006F37"/>
<path d="M58.6761 135.7V134.606H66.3125V135.7H63.1108V144.788H61.8778V135.7H58.6761ZM69.7511 144.947C69.0617 144.947 68.4569 144.783 67.9365 144.455C67.4195 144.127 67.0151 143.668 66.7234 143.078C66.4351 142.488 66.2909 141.798 66.2909 141.009C66.2909 140.214 66.4351 139.52 66.7234 138.926C67.0151 138.333 67.4195 137.872 67.9365 137.544C68.4569 137.216 69.0617 137.052 69.7511 137.052C70.4405 137.052 71.0437 137.216 71.5608 137.544C72.0812 137.872 72.4855 138.333 72.7739 138.926C73.0655 139.52 73.2114 140.214 73.2114 141.009C73.2114 141.798 73.0655 142.488 72.7739 143.078C72.4855 143.668 72.0812 144.127 71.5608 144.455C71.0437 144.783 70.4405 144.947 69.7511 144.947ZM69.7511 143.893C70.2748 143.893 70.7057 143.759 71.0437 143.49C71.3818 143.222 71.6321 142.869 71.7945 142.431C71.9569 141.994 72.0381 141.52 72.0381 141.009C72.0381 140.499 71.9569 140.023 71.7945 139.583C71.6321 139.142 71.3818 138.785 71.0437 138.514C70.7057 138.242 70.2748 138.106 69.7511 138.106C69.2275 138.106 68.7966 138.242 68.4585 138.514C68.1205 138.785 67.8702 139.142 67.7078 139.583C67.5454 140.023 67.4642 140.499 67.4642 141.009C67.4642 141.52 67.5454 141.994 67.7078 142.431C67.8702 142.869 68.1205 143.222 68.4585 143.49C68.7966 143.759 69.2275 143.893 69.7511 143.893ZM78.0234 137.151V138.146H74.066V137.151H78.0234ZM75.2194 135.322H76.3927V142.6C76.3927 142.932 76.4408 143.18 76.5369 143.346C76.6363 143.508 76.7623 143.618 76.9147 143.674C77.0705 143.727 77.2346 143.754 77.4069 143.754C77.5362 143.754 77.6422 143.747 77.7251 143.734C77.808 143.717 77.8743 143.704 77.924 143.694L78.1626 144.748C78.0831 144.778 77.972 144.808 77.8295 144.838C77.687 144.871 77.5064 144.887 77.2876 144.887C76.9562 144.887 76.6314 144.816 76.3132 144.673C75.9983 144.531 75.7365 144.314 75.5277 144.022C75.3222 143.731 75.2194 143.363 75.2194 142.919V135.322ZM81.7355 144.967C81.2516 144.967 80.8124 144.876 80.418 144.693C80.0236 144.508 79.7104 144.241 79.4784 143.893C79.2464 143.542 79.1304 143.117 79.1304 142.62C79.1304 142.183 79.2165 141.828 79.3889 141.556C79.5612 141.281 79.7916 141.066 80.0799 140.91C80.3683 140.754 80.6865 140.638 81.0345 140.562C81.3858 140.482 81.7388 140.419 82.0934 140.373C82.5574 140.313 82.9336 140.269 83.222 140.239C83.5136 140.206 83.7258 140.151 83.8583 140.075C83.9942 139.999 84.0622 139.866 84.0622 139.677V139.637C84.0622 139.147 83.9279 138.766 83.6595 138.494C83.3943 138.222 82.9916 138.086 82.4514 138.086C81.8913 138.086 81.4521 138.209 81.1339 138.454C80.8157 138.699 80.592 138.961 80.4627 139.24L79.3491 138.842C79.548 138.378 79.8131 138.017 80.1446 137.758C80.4793 137.496 80.8439 137.314 81.2383 137.211C81.636 137.105 82.0271 137.052 82.4116 137.052C82.6569 137.052 82.9386 137.082 83.2568 137.142C83.5783 137.198 83.8882 137.316 84.1865 137.495C84.4881 137.673 84.7383 137.944 84.9372 138.305C85.136 138.666 85.2355 139.15 85.2355 139.757V144.788H84.0622V143.754H84.0025C83.923 143.919 83.7904 144.097 83.6048 144.286C83.4192 144.475 83.1723 144.635 82.864 144.768C82.5558 144.901 82.1796 144.967 81.7355 144.967ZM81.9145 143.913C82.3785 143.913 82.7696 143.822 83.0877 143.639C83.4092 143.457 83.6512 143.222 83.8136 142.933C83.9793 142.645 84.0622 142.342 84.0622 142.024V140.95C84.0125 141.009 83.9031 141.064 83.7341 141.114C83.5683 141.16 83.3761 141.202 83.1574 141.238C82.9419 141.271 82.7315 141.301 82.526 141.328C82.3238 141.351 82.1597 141.371 82.0338 141.387C81.7288 141.427 81.4438 141.492 81.1787 141.581C80.9168 141.667 80.7047 141.798 80.5423 141.974C80.3832 142.146 80.3037 142.382 80.3037 142.68C80.3037 143.088 80.4545 143.396 80.7561 143.605C81.061 143.81 81.4471 143.913 81.9145 143.913ZM88.2503 134.606V144.788H87.077V134.606H88.2503ZM99.464 137.151C99.4044 136.648 99.1624 136.257 98.7382 135.978C98.3139 135.7 97.7936 135.561 97.1771 135.561C96.7263 135.561 96.3319 135.633 95.9939 135.779C95.6591 135.925 95.3973 136.126 95.2083 136.381C95.0227 136.636 94.9299 136.926 94.9299 137.251C94.9299 137.523 94.9946 137.756 95.1238 137.952C95.2564 138.144 95.4254 138.305 95.6309 138.434C95.8364 138.56 96.0519 138.664 96.2772 138.747C96.5026 138.827 96.7098 138.892 96.8987 138.941L97.9328 139.22C98.1979 139.289 98.4929 139.385 98.8177 139.508C99.1458 139.631 99.4591 139.798 99.7574 140.01C100.059 140.219 100.308 140.487 100.503 140.816C100.699 141.144 100.796 141.546 100.796 142.024C100.796 142.574 100.652 143.071 100.364 143.515C100.079 143.959 99.6612 144.312 99.111 144.574C98.5642 144.836 97.8996 144.967 97.1174 144.967C96.3883 144.967 95.7569 144.849 95.2233 144.614C94.693 144.379 94.2753 144.05 93.9704 143.629C93.6688 143.209 93.4981 142.72 93.4583 142.163H94.7311C94.7642 142.547 94.8935 142.865 95.1189 143.117C95.3476 143.366 95.6359 143.552 95.9839 143.674C96.3352 143.794 96.7131 143.853 97.1174 143.853C97.5881 143.853 98.0107 143.777 98.3852 143.624C98.7597 143.469 99.0564 143.253 99.2751 142.978C99.4939 142.7 99.6032 142.375 99.6032 142.004C99.6032 141.666 99.5088 141.391 99.3199 141.178C99.1309 140.966 98.8824 140.794 98.5741 140.661C98.2659 140.529 97.9328 140.413 97.5748 140.313L96.322 139.955C95.5265 139.727 94.8968 139.4 94.4328 138.976C93.9688 138.552 93.7368 137.997 93.7368 137.311C93.7368 136.74 93.8909 136.243 94.1991 135.819C94.5107 135.392 94.9283 135.06 95.452 134.825C95.9789 134.586 96.5672 134.467 97.2169 134.467C97.8731 134.467 98.4565 134.584 98.9669 134.82C99.4773 135.052 99.8816 135.37 100.18 135.774C100.482 136.179 100.641 136.638 100.657 137.151H99.464ZM107.177 141.666V137.151H108.35V144.788H107.177V143.495H107.097C106.918 143.883 106.64 144.213 106.262 144.485C105.884 144.753 105.407 144.887 104.83 144.887C104.353 144.887 103.929 144.783 103.558 144.574C103.186 144.362 102.895 144.044 102.683 143.62C102.471 143.192 102.364 142.653 102.364 142.004V137.151H103.538V141.924C103.538 142.481 103.694 142.925 104.005 143.257C104.32 143.588 104.721 143.754 105.208 143.754C105.5 143.754 105.797 143.679 106.098 143.53C106.403 143.381 106.658 143.152 106.864 142.844C107.073 142.536 107.177 142.143 107.177 141.666ZM110.199 147.651V137.151H111.333V138.365H111.472C111.558 138.232 111.677 138.063 111.83 137.857C111.986 137.649 112.208 137.463 112.496 137.301C112.788 137.135 113.182 137.052 113.679 137.052C114.322 137.052 114.889 137.213 115.38 137.534C115.87 137.856 116.253 138.312 116.528 138.901C116.803 139.491 116.941 140.187 116.941 140.99C116.941 141.798 116.803 142.499 116.528 143.093C116.253 143.682 115.872 144.14 115.385 144.465C114.897 144.786 114.336 144.947 113.699 144.947C113.209 144.947 112.816 144.866 112.521 144.703C112.226 144.538 111.999 144.35 111.84 144.142C111.681 143.929 111.558 143.754 111.472 143.615H111.373V147.651H110.199ZM111.353 140.97C111.353 141.546 111.437 142.055 111.606 142.496C111.775 142.933 112.022 143.276 112.347 143.525C112.672 143.77 113.07 143.893 113.54 143.893C114.031 143.893 114.44 143.764 114.768 143.505C115.1 143.243 115.348 142.892 115.514 142.451C115.683 142.007 115.767 141.513 115.767 140.97C115.767 140.433 115.685 139.949 115.519 139.518C115.356 139.084 115.11 138.741 114.778 138.489C114.45 138.234 114.037 138.106 113.54 138.106C113.063 138.106 112.662 138.227 112.337 138.469C112.012 138.708 111.767 139.042 111.601 139.473C111.436 139.901 111.353 140.4 111.353 140.97ZM118.431 147.651V137.151H119.564V138.365H119.703C119.789 138.232 119.909 138.063 120.061 137.857C120.217 137.649 120.439 137.463 120.727 137.301C121.019 137.135 121.413 137.052 121.911 137.052C122.554 137.052 123.12 137.213 123.611 137.534C124.101 137.856 124.484 138.312 124.759 138.901C125.034 139.491 125.172 140.187 125.172 140.99C125.172 141.798 125.034 142.499 124.759 143.093C124.484 143.682 124.103 144.14 123.616 144.465C123.129 144.786 122.567 144.947 121.931 144.947C121.44 144.947 121.047 144.866 120.752 144.703C120.457 144.538 120.23 144.35 120.071 144.142C119.912 143.929 119.789 143.754 119.703 143.615H119.604V147.651H118.431ZM119.584 140.97C119.584 141.546 119.668 142.055 119.837 142.496C120.006 142.933 120.253 143.276 120.578 143.525C120.903 143.77 121.301 143.893 121.771 143.893C122.262 143.893 122.671 143.764 122.999 143.505C123.331 143.243 123.579 142.892 123.745 142.451C123.914 142.007 123.999 141.513 123.999 140.97C123.999 140.433 123.916 139.949 123.75 139.518C123.588 139.084 123.341 138.741 123.009 138.489C122.681 138.234 122.269 138.106 121.771 138.106C121.294 138.106 120.893 138.227 120.568 138.469C120.243 138.708 119.998 139.042 119.832 139.473C119.667 139.901 119.584 140.4 119.584 140.97ZM127.835 134.606V144.788H126.662V134.606H127.835ZM129.684 144.788V137.151H130.857V144.788H129.684ZM130.281 135.879C130.052 135.879 129.855 135.801 129.689 135.645C129.527 135.489 129.445 135.302 129.445 135.083C129.445 134.865 129.527 134.677 129.689 134.522C129.855 134.366 130.052 134.288 130.281 134.288C130.509 134.288 130.705 134.366 130.867 134.522C131.033 134.677 131.116 134.865 131.116 135.083C131.116 135.302 131.033 135.489 130.867 135.645C130.705 135.801 130.509 135.879 130.281 135.879ZM135.908 144.947C135.172 144.947 134.537 144.785 134.004 144.46C133.474 144.132 133.064 143.674 132.776 143.088C132.491 142.498 132.348 141.812 132.348 141.029C132.348 140.247 132.491 139.558 132.776 138.961C133.064 138.361 133.465 137.894 133.979 137.559C134.496 137.221 135.099 137.052 135.789 137.052C136.186 137.052 136.579 137.118 136.967 137.251C137.355 137.383 137.708 137.599 138.026 137.897C138.344 138.192 138.598 138.583 138.787 139.071C138.975 139.558 139.07 140.158 139.07 140.87V141.367H133.184V140.353H137.877C137.877 139.922 137.791 139.538 137.618 139.2C137.449 138.862 137.207 138.595 136.892 138.399C136.581 138.204 136.213 138.106 135.789 138.106C135.321 138.106 134.917 138.222 134.576 138.454C134.238 138.683 133.977 138.981 133.795 139.349C133.613 139.717 133.522 140.111 133.522 140.532V141.208C133.522 141.785 133.621 142.274 133.82 142.675C134.022 143.073 134.302 143.376 134.66 143.585C135.018 143.79 135.434 143.893 135.908 143.893C136.216 143.893 136.495 143.85 136.743 143.764C136.995 143.674 137.212 143.542 137.394 143.366C137.577 143.187 137.718 142.965 137.817 142.7L138.951 143.018C138.831 143.402 138.631 143.74 138.349 144.032C138.067 144.321 137.719 144.546 137.305 144.708C136.891 144.867 136.425 144.947 135.908 144.947ZM143.438 144.947C142.802 144.947 142.24 144.786 141.753 144.465C141.266 144.14 140.885 143.682 140.609 143.093C140.334 142.499 140.197 141.798 140.197 140.99C140.197 140.187 140.334 139.491 140.609 138.901C140.885 138.312 141.267 137.856 141.758 137.534C142.248 137.213 142.815 137.052 143.458 137.052C143.955 137.052 144.348 137.135 144.636 137.301C144.928 137.463 145.15 137.649 145.303 137.857C145.458 138.063 145.579 138.232 145.666 138.365H145.765V134.606H146.938V144.788H145.805V143.615H145.666C145.579 143.754 145.457 143.929 145.298 144.142C145.139 144.35 144.911 144.538 144.617 144.703C144.322 144.866 143.929 144.947 143.438 144.947ZM143.597 143.893C144.068 143.893 144.466 143.77 144.791 143.525C145.115 143.276 145.362 142.933 145.531 142.496C145.7 142.055 145.785 141.546 145.785 140.97C145.785 140.4 145.702 139.901 145.536 139.473C145.371 139.042 145.125 138.708 144.8 138.469C144.476 138.227 144.075 138.106 143.597 138.106C143.1 138.106 142.686 138.234 142.354 138.489C142.026 138.741 141.779 139.084 141.614 139.518C141.451 139.949 141.37 140.433 141.37 140.97C141.37 141.513 141.453 142.007 141.619 142.451C141.788 142.892 142.036 143.243 142.364 143.505C142.696 143.764 143.107 143.893 143.597 143.893Z" fill="#3C4A47"/>
<path d="M63.9801 176.247V158.066H65.1449V176.247H63.9801ZM67.3395 163.882C67.2732 163.262 66.9938 162.779 66.5014 162.433C66.0137 162.088 65.3793 161.915 64.598 161.915C64.0488 161.915 63.5777 161.998 63.1847 162.164C62.7917 162.329 62.491 162.554 62.2827 162.838C62.0743 163.122 61.9678 163.447 61.9631 163.811C61.9631 164.114 62.0317 164.377 62.169 164.6C62.3111 164.822 62.5028 165.012 62.7443 165.168C62.9858 165.319 63.2533 165.447 63.5469 165.551C63.8404 165.655 64.1364 165.743 64.4347 165.814L65.7983 166.155C66.3475 166.283 66.8755 166.456 67.3821 166.673C67.8935 166.891 68.3504 167.166 68.7528 167.497C69.16 167.829 69.482 168.229 69.7188 168.698C69.9555 169.166 70.0739 169.716 70.0739 170.345C70.0739 171.198 69.8561 171.948 69.4205 172.597C68.9848 173.241 68.3551 173.745 67.5312 174.11C66.7121 174.469 65.7202 174.649 64.5554 174.649C63.4238 174.649 62.4413 174.474 61.608 174.124C60.7794 173.773 60.1307 173.262 59.6619 172.59C59.1979 171.917 58.947 171.098 58.9091 170.132H61.5014C61.5393 170.639 61.6955 171.06 61.9702 171.396C62.2448 171.733 62.6023 171.984 63.0426 172.149C63.4877 172.315 63.9848 172.398 64.5341 172.398C65.107 172.398 65.6089 172.313 66.0398 172.142C66.4754 171.967 66.8163 171.726 67.0625 171.418C67.3087 171.105 67.4342 170.741 67.4389 170.324C67.4342 169.945 67.3229 169.633 67.1051 169.387C66.8873 169.136 66.5819 168.927 66.1889 168.762C65.8007 168.591 65.3461 168.44 64.8253 168.307L63.1705 167.881C61.9725 167.573 61.0256 167.107 60.3295 166.482C59.6383 165.852 59.2926 165.016 59.2926 163.975C59.2926 163.118 59.5246 162.367 59.9886 161.723C60.4574 161.079 61.0942 160.58 61.8991 160.225C62.7041 159.865 63.6155 159.685 64.6335 159.685C65.6657 159.685 66.5701 159.865 67.3466 160.225C68.1278 160.58 68.741 161.074 69.1861 161.709C69.6312 162.339 69.8608 163.063 69.875 163.882H67.3395ZM71.9809 174.429V172.526L77.0306 167.575C77.5136 167.088 77.916 166.655 78.238 166.276C78.56 165.897 78.8014 165.53 78.9624 165.175C79.1234 164.82 79.2039 164.441 79.2039 164.039C79.2039 163.579 79.0997 163.186 78.8914 162.86C78.6831 162.528 78.3966 162.272 78.032 162.092C77.6674 161.913 77.2531 161.823 76.7891 161.823C76.3109 161.823 75.8919 161.922 75.532 162.121C75.1722 162.315 74.8928 162.592 74.694 162.952C74.4998 163.312 74.4028 163.74 74.4028 164.237H71.8957C71.8957 163.314 72.1064 162.512 72.5278 161.83C72.9492 161.148 73.5292 160.62 74.2678 160.246C75.0112 159.872 75.8635 159.685 76.8246 159.685C77.8 159.685 78.657 159.867 79.3957 160.232C80.1343 160.596 80.7072 161.096 81.1144 161.73C81.5263 162.365 81.7323 163.089 81.7323 163.904C81.7323 164.448 81.6281 164.983 81.4198 165.509C81.2115 166.034 80.8445 166.617 80.319 167.256C79.7981 167.895 79.0666 168.669 78.1244 169.578L75.6173 172.128V172.227H81.9525V174.429H71.9809ZM87.1496 172.441L87.0573 173.222C86.991 173.818 86.8727 174.424 86.7022 175.04C86.5365 175.66 86.3613 176.231 86.1766 176.752C85.992 177.272 85.8428 177.682 85.7292 177.98H83.9962C84.0625 177.691 84.1525 177.298 84.2661 176.801C84.3845 176.304 84.4981 175.745 84.607 175.125C84.7159 174.505 84.7893 173.875 84.8272 173.236L84.8769 172.441H87.1496ZM89.4384 171.73V169.635L95.6103 159.884H97.3575V162.867H96.2921L92.1373 169.45V169.564H100.752V171.73H89.4384ZM96.3773 174.429V171.091L96.4058 170.154V159.884H98.8915V174.429H96.3773ZM107.778 174.628C106.831 174.628 105.984 174.45 105.236 174.095C104.488 173.735 103.893 173.243 103.453 172.618C103.017 171.993 102.785 171.278 102.757 170.473H105.314C105.361 171.07 105.619 171.557 106.088 171.936C106.557 172.31 107.12 172.497 107.778 172.497C108.294 172.497 108.754 172.379 109.156 172.142C109.559 171.905 109.876 171.576 110.108 171.155C110.34 170.734 110.454 170.253 110.449 169.713C110.454 169.164 110.338 168.676 110.101 168.25C109.864 167.824 109.54 167.49 109.128 167.249C108.716 167.003 108.242 166.879 107.707 166.879C107.272 166.875 106.843 166.955 106.422 167.121C106 167.287 105.667 167.504 105.42 167.774L103.041 167.384L103.801 159.884H112.239V162.085H105.981L105.562 165.942H105.648C105.918 165.625 106.299 165.362 106.791 165.154C107.284 164.941 107.823 164.834 108.41 164.834C109.291 164.834 110.077 165.042 110.768 165.459C111.46 165.871 112.004 166.439 112.402 167.164C112.8 167.888 112.999 168.717 112.999 169.649C112.999 170.61 112.776 171.467 112.331 172.22C111.891 172.968 111.277 173.558 110.491 173.989C109.71 174.415 108.806 174.628 107.778 174.628ZM115.078 174.429V172.526L120.127 167.575C120.61 167.088 121.013 166.655 121.335 166.276C121.657 165.897 121.898 165.53 122.059 165.175C122.22 164.82 122.301 164.441 122.301 164.039C122.301 163.579 122.197 163.186 121.988 162.86C121.78 162.528 121.493 162.272 121.129 162.092C120.764 161.913 120.35 161.823 119.886 161.823C119.408 161.823 118.989 161.922 118.629 162.121C118.269 162.315 117.99 162.592 117.791 162.952C117.597 163.312 117.5 163.74 117.5 164.237H114.993C114.993 163.314 115.203 162.512 115.625 161.83C116.046 161.148 116.626 160.62 117.365 160.246C118.108 159.872 118.96 159.685 119.922 159.685C120.897 159.685 121.754 159.867 122.493 160.232C123.231 160.596 123.804 161.096 124.211 161.73C124.623 162.365 124.829 163.089 124.829 163.904C124.829 164.448 124.725 164.983 124.517 165.509C124.308 166.034 123.941 166.617 123.416 167.256C122.895 167.895 122.163 168.669 121.221 169.578L118.714 172.128V172.227H125.049V174.429H115.078ZM130.247 172.441L130.154 173.222C130.088 173.818 129.97 174.424 129.799 175.04C129.633 175.66 129.458 176.231 129.274 176.752C129.089 177.272 128.94 177.682 128.826 177.98H127.093C127.159 177.691 127.249 177.298 127.363 176.801C127.481 176.304 127.595 175.745 127.704 175.125C127.813 174.505 127.886 173.875 127.924 173.236L127.974 172.441H130.247ZM137.679 174.628C136.732 174.628 135.885 174.45 135.137 174.095C134.388 173.735 133.794 173.243 133.354 172.618C132.918 171.993 132.686 171.278 132.658 170.473H135.215C135.262 171.07 135.52 171.557 135.989 171.936C136.458 172.31 137.021 172.497 137.679 172.497C138.195 172.497 138.655 172.379 139.057 172.142C139.459 171.905 139.777 171.576 140.009 171.155C140.241 170.734 140.354 170.253 140.35 169.713C140.354 169.164 140.238 168.676 140.002 168.25C139.765 167.824 139.44 167.49 139.029 167.249C138.617 167.003 138.143 166.879 137.608 166.879C137.172 166.875 136.744 166.955 136.323 167.121C135.901 167.287 135.567 167.504 135.321 167.774L132.942 167.384L133.702 159.884H142.139V162.085H135.882L135.463 165.942H135.548C135.818 165.625 136.199 165.362 136.692 165.154C137.184 164.941 137.724 164.834 138.311 164.834C139.192 164.834 139.978 165.042 140.669 165.459C141.36 165.871 141.905 166.439 142.303 167.164C142.7 167.888 142.899 168.717 142.899 169.649C142.899 170.61 142.677 171.467 142.232 172.22C141.791 172.968 141.178 173.558 140.392 173.989C139.611 174.415 138.707 174.628 137.679 174.628ZM150.355 174.706C149.185 174.706 148.182 174.41 147.344 173.818C146.51 173.222 145.869 172.362 145.419 171.24C144.974 170.113 144.751 168.757 144.751 167.171C144.756 165.584 144.981 164.235 145.426 163.122C145.876 162.005 146.517 161.153 147.351 160.566C148.189 159.978 149.19 159.685 150.355 159.685C151.52 159.685 152.521 159.978 153.359 160.566C154.197 161.153 154.839 162.005 155.284 163.122C155.734 164.24 155.959 165.589 155.959 167.171C155.959 168.762 155.734 170.12 155.284 171.247C154.839 172.369 154.197 173.226 153.359 173.818C152.526 174.41 151.524 174.706 150.355 174.706ZM150.355 172.483C151.264 172.483 151.981 172.036 152.507 171.141C153.037 170.241 153.302 168.918 153.302 167.171C153.302 166.015 153.182 165.045 152.94 164.259C152.699 163.473 152.358 162.881 151.917 162.483C151.477 162.081 150.956 161.879 150.355 161.879C149.451 161.879 148.736 162.329 148.21 163.229C147.685 164.124 147.419 165.438 147.415 167.171C147.41 168.331 147.526 169.306 147.763 170.097C148.004 170.887 148.345 171.484 148.785 171.887C149.226 172.284 149.749 172.483 150.355 172.483ZM163.395 174.706C162.225 174.706 161.222 174.41 160.383 173.818C159.55 173.222 158.909 172.362 158.459 171.24C158.014 170.113 157.791 168.757 157.791 167.171C157.796 165.584 158.021 164.235 158.466 163.122C158.916 162.005 159.557 161.153 160.391 160.566C161.229 159.978 162.23 159.685 163.395 159.685C164.56 159.685 165.561 159.978 166.399 160.566C167.237 161.153 167.879 162.005 168.324 163.122C168.774 164.24 168.999 165.589 168.999 167.171C168.999 168.762 168.774 170.12 168.324 171.247C167.879 172.369 167.237 173.226 166.399 173.818C165.566 174.41 164.564 174.706 163.395 174.706ZM163.395 172.483C164.304 172.483 165.021 172.036 165.547 171.141C166.077 170.241 166.342 168.918 166.342 167.171C166.342 166.015 166.222 165.045 165.98 164.259C165.739 163.473 165.398 162.881 164.957 162.483C164.517 162.081 163.996 161.879 163.395 161.879C162.49 161.879 161.776 162.329 161.25 163.229C160.724 164.124 160.459 165.438 160.454 167.171C160.45 168.331 160.566 169.306 160.802 170.097C161.044 170.887 161.385 171.484 161.825 171.887C162.266 172.284 162.789 172.483 163.395 172.483ZM172.104 174.585C171.673 174.585 171.304 174.434 170.996 174.131C170.688 173.828 170.537 173.458 170.542 173.023C170.537 172.597 170.688 172.232 170.996 171.929C171.304 171.626 171.673 171.475 172.104 171.475C172.521 171.475 172.883 171.626 173.191 171.929C173.503 172.232 173.662 172.597 173.667 173.023C173.662 173.312 173.586 173.574 173.439 173.811C173.297 174.048 173.108 174.237 172.871 174.379C172.639 174.517 172.383 174.585 172.104 174.585ZM176.057 174.429L182.243 162.185V162.085H175.062V159.884H184.97V162.135L178.791 174.429H176.057ZM192.026 174.706C190.857 174.706 189.853 174.41 189.015 173.818C188.181 173.222 187.54 172.362 187.09 171.24C186.645 170.113 186.422 168.757 186.422 167.171C186.427 165.584 186.652 164.235 187.097 163.122C187.547 162.005 188.188 161.153 189.022 160.566C189.86 159.978 190.861 159.685 192.026 159.685C193.191 159.685 194.192 159.978 195.03 160.566C195.868 161.153 196.51 162.005 196.955 163.122C197.405 164.24 197.63 165.589 197.63 167.171C197.63 168.762 197.405 170.12 196.955 171.247C196.51 172.369 195.868 173.226 195.03 173.818C194.197 174.41 193.196 174.706 192.026 174.706ZM192.026 172.483C192.935 172.483 193.652 172.036 194.178 171.141C194.708 170.241 194.974 168.918 194.974 167.171C194.974 166.015 194.853 165.045 194.611 164.259C194.37 163.473 194.029 162.881 193.589 162.483C193.148 162.081 192.627 161.879 192.026 161.879C191.122 161.879 190.407 162.329 189.881 163.229C189.356 164.124 189.09 165.438 189.086 167.171C189.081 168.331 189.197 169.306 189.434 170.097C189.675 170.887 190.016 171.484 190.456 171.887C190.897 172.284 191.42 172.483 192.026 172.483Z" fill="#083C2F"/>
<path d="M239.926 137.788H238.693C238.62 137.433 238.493 137.122 238.31 136.853C238.131 136.585 237.913 136.36 237.654 136.177C237.399 135.992 237.116 135.852 236.804 135.76C236.492 135.667 236.168 135.62 235.83 135.62C235.213 135.62 234.655 135.776 234.154 136.088C233.657 136.399 233.261 136.858 232.966 137.465C232.674 138.071 232.528 138.816 232.528 139.697C232.528 140.579 232.674 141.323 232.966 141.929C233.261 142.536 233.657 142.995 234.154 143.307C234.655 143.618 235.213 143.774 235.83 143.774C236.168 143.774 236.492 143.727 236.804 143.635C237.116 143.542 237.399 143.404 237.654 143.222C237.913 143.036 238.131 142.809 238.31 142.541C238.493 142.269 238.62 141.958 238.693 141.606H239.926C239.833 142.127 239.664 142.592 239.419 143.003C239.174 143.414 238.869 143.764 238.504 144.052C238.14 144.337 237.73 144.554 237.276 144.704C236.826 144.853 236.343 144.927 235.83 144.927C234.961 144.927 234.189 144.715 233.513 144.291C232.837 143.867 232.305 143.263 231.917 142.481C231.529 141.699 231.335 140.771 231.335 139.697C231.335 138.623 231.529 137.695 231.917 136.913C232.305 136.131 232.837 135.528 233.513 135.103C234.189 134.679 234.961 134.467 235.83 134.467C236.343 134.467 236.826 134.542 237.276 134.691C237.73 134.84 238.14 135.059 238.504 135.347C238.869 135.632 239.174 135.98 239.419 136.391C239.664 136.799 239.833 137.264 239.926 137.788ZM244.562 144.947C243.872 144.947 243.267 144.783 242.747 144.455C242.23 144.127 241.826 143.668 241.534 143.078C241.246 142.488 241.101 141.799 241.101 141.01C241.101 140.214 241.246 139.52 241.534 138.927C241.826 138.333 242.23 137.873 242.747 137.544C243.267 137.216 243.872 137.052 244.562 137.052C245.251 137.052 245.854 137.216 246.371 137.544C246.892 137.873 247.296 138.333 247.584 138.927C247.876 139.52 248.022 140.214 248.022 141.01C248.022 141.799 247.876 142.488 247.584 143.078C247.296 143.668 246.892 144.127 246.371 144.455C245.854 144.783 245.251 144.947 244.562 144.947ZM244.562 143.893C245.085 143.893 245.516 143.759 245.854 143.491C246.192 143.222 246.443 142.869 246.605 142.432C246.767 141.994 246.849 141.52 246.849 141.01C246.849 140.499 246.767 140.024 246.605 139.583C246.443 139.142 246.192 138.786 245.854 138.514C245.516 138.242 245.085 138.106 244.562 138.106C244.038 138.106 243.607 138.242 243.269 138.514C242.931 138.786 242.681 139.142 242.518 139.583C242.356 140.024 242.275 140.499 242.275 141.01C242.275 141.52 242.356 141.994 242.518 142.432C242.681 142.869 242.931 143.222 243.269 143.491C243.607 143.759 244.038 143.893 244.562 143.893ZM250.686 134.606V144.788H249.513V134.606H250.686ZM253.708 134.606V144.788H252.535V134.606H253.708ZM257.805 144.967C257.321 144.967 256.882 144.876 256.487 144.694C256.093 144.508 255.78 144.241 255.548 143.893C255.316 143.542 255.2 143.118 255.2 142.62C255.2 142.183 255.286 141.828 255.458 141.557C255.63 141.281 255.861 141.066 256.149 140.91C256.437 140.754 256.756 140.638 257.104 140.562C257.455 140.483 257.808 140.42 258.163 140.373C258.627 140.314 259.003 140.269 259.291 140.239C259.583 140.206 259.795 140.151 259.927 140.075C260.063 139.999 260.131 139.866 260.131 139.677V139.638C260.131 139.147 259.997 138.766 259.729 138.494C259.463 138.222 259.061 138.086 258.521 138.086C257.96 138.086 257.521 138.209 257.203 138.454C256.885 138.7 256.661 138.961 256.532 139.24L255.418 138.842C255.617 138.378 255.882 138.017 256.214 137.758C256.548 137.496 256.913 137.314 257.307 137.211C257.705 137.105 258.096 137.052 258.481 137.052C258.726 137.052 259.008 137.082 259.326 137.142C259.647 137.198 259.957 137.316 260.256 137.495C260.557 137.674 260.807 137.944 261.006 138.305C261.205 138.666 261.305 139.15 261.305 139.757V144.788H260.131V143.754H260.072C259.992 143.92 259.86 144.097 259.674 144.286C259.488 144.475 259.241 144.636 258.933 144.768C258.625 144.901 258.249 144.967 257.805 144.967ZM257.984 143.913C258.448 143.913 258.839 143.822 259.157 143.64C259.478 143.457 259.72 143.222 259.883 142.934C260.048 142.645 260.131 142.342 260.131 142.024V140.95C260.082 141.01 259.972 141.064 259.803 141.114C259.637 141.16 259.445 141.202 259.226 141.238C259.011 141.272 258.801 141.301 258.595 141.328C258.393 141.351 258.229 141.371 258.103 141.388C257.798 141.427 257.513 141.492 257.248 141.581C256.986 141.668 256.774 141.799 256.611 141.974C256.452 142.147 256.373 142.382 256.373 142.68C256.373 143.088 256.524 143.396 256.825 143.605C257.13 143.81 257.516 143.913 257.984 143.913ZM266.467 137.152V138.146H262.51V137.152H266.467ZM263.663 135.322H264.836V142.601C264.836 142.932 264.885 143.181 264.981 143.346C265.08 143.509 265.206 143.618 265.358 143.674C265.514 143.727 265.678 143.754 265.851 143.754C265.98 143.754 266.086 143.747 266.169 143.734C266.252 143.718 266.318 143.704 266.368 143.694L266.606 144.748C266.527 144.778 266.416 144.808 266.273 144.838C266.131 144.871 265.95 144.888 265.731 144.888C265.4 144.888 265.075 144.816 264.757 144.674C264.442 144.531 264.18 144.314 263.971 144.022C263.766 143.731 263.663 143.363 263.663 142.919V135.322ZM271.052 144.947C270.316 144.947 269.681 144.785 269.148 144.46C268.617 144.132 268.208 143.674 267.92 143.088C267.635 142.498 267.492 141.812 267.492 141.03C267.492 140.247 267.635 139.558 267.92 138.961C268.208 138.361 268.609 137.894 269.123 137.559C269.64 137.221 270.243 137.052 270.932 137.052C271.33 137.052 271.723 137.119 272.111 137.251C272.498 137.384 272.851 137.599 273.17 137.897C273.488 138.192 273.741 138.584 273.93 139.071C274.119 139.558 274.214 140.158 274.214 140.87V141.368H268.327V140.353H273.02C273.02 139.923 272.934 139.538 272.762 139.2C272.593 138.862 272.351 138.595 272.036 138.4C271.725 138.204 271.357 138.106 270.932 138.106C270.465 138.106 270.061 138.222 269.719 138.454C269.381 138.683 269.121 138.981 268.939 139.349C268.757 139.717 268.665 140.111 268.665 140.532V141.209C268.665 141.785 268.765 142.274 268.964 142.675C269.166 143.073 269.446 143.376 269.804 143.585C270.162 143.79 270.578 143.893 271.052 143.893C271.36 143.893 271.638 143.85 271.887 143.764C272.139 143.674 272.356 143.542 272.538 143.366C272.721 143.187 272.861 142.965 272.961 142.7L274.094 143.018C273.975 143.403 273.775 143.741 273.493 144.032C273.211 144.321 272.863 144.546 272.449 144.709C272.034 144.868 271.569 144.947 271.052 144.947ZM275.698 144.788V137.152H276.832V138.305H276.912C277.051 137.927 277.303 137.621 277.667 137.385C278.032 137.15 278.443 137.032 278.9 137.032C278.986 137.032 279.094 137.034 279.223 137.037C279.353 137.041 279.45 137.046 279.517 137.052V138.245C279.477 138.236 279.386 138.221 279.243 138.201C279.104 138.178 278.957 138.166 278.801 138.166C278.43 138.166 278.098 138.244 277.806 138.4C277.518 138.552 277.289 138.764 277.12 139.036C276.955 139.304 276.872 139.611 276.872 139.956V144.788H275.698ZM282.855 144.967C282.371 144.967 281.932 144.876 281.537 144.694C281.143 144.508 280.83 144.241 280.598 143.893C280.366 143.542 280.25 143.118 280.25 142.62C280.25 142.183 280.336 141.828 280.508 141.557C280.68 141.281 280.911 141.066 281.199 140.91C281.487 140.754 281.806 140.638 282.154 140.562C282.505 140.483 282.858 140.42 283.213 140.373C283.677 140.314 284.053 140.269 284.341 140.239C284.633 140.206 284.845 140.151 284.977 140.075C285.113 139.999 285.181 139.866 285.181 139.677V139.638C285.181 139.147 285.047 138.766 284.779 138.494C284.513 138.222 284.111 138.086 283.571 138.086C283.01 138.086 282.571 138.209 282.253 138.454C281.935 138.7 281.711 138.961 281.582 139.24L280.468 138.842C280.667 138.378 280.932 138.017 281.264 137.758C281.598 137.496 281.963 137.314 282.357 137.211C282.755 137.105 283.146 137.052 283.531 137.052C283.776 137.052 284.058 137.082 284.376 137.142C284.697 137.198 285.007 137.316 285.306 137.495C285.607 137.674 285.857 137.944 286.056 138.305C286.255 138.666 286.355 139.15 286.355 139.757V144.788H285.181V143.754H285.122C285.042 143.92 284.91 144.097 284.724 144.286C284.538 144.475 284.291 144.636 283.983 144.768C283.675 144.901 283.299 144.967 282.855 144.967ZM283.034 143.913C283.498 143.913 283.889 143.822 284.207 143.64C284.528 143.457 284.77 143.222 284.933 142.934C285.098 142.645 285.181 142.342 285.181 142.024V140.95C285.132 141.01 285.022 141.064 284.853 141.114C284.687 141.16 284.495 141.202 284.276 141.238C284.061 141.272 283.851 141.301 283.645 141.328C283.443 141.351 283.279 141.371 283.153 141.388C282.848 141.427 282.563 141.492 282.298 141.581C282.036 141.668 281.824 141.799 281.661 141.974C281.502 142.147 281.423 142.382 281.423 142.68C281.423 143.088 281.574 143.396 281.875 143.605C282.18 143.81 282.566 143.913 283.034 143.913ZM289.369 134.606V144.788H288.196V134.606H289.369ZM295.015 144.788V134.606H298.575C299.284 134.606 299.869 134.729 300.33 134.974C300.79 135.216 301.133 135.543 301.359 135.954C301.584 136.361 301.697 136.814 301.697 137.311C301.697 137.748 301.619 138.11 301.463 138.395C301.311 138.68 301.109 138.905 300.857 139.071C300.608 139.236 300.338 139.359 300.046 139.439V139.538C300.358 139.558 300.671 139.667 300.986 139.866C301.301 140.065 301.564 140.35 301.776 140.721C301.988 141.093 302.095 141.547 302.095 142.084C302.095 142.594 301.979 143.053 301.747 143.461C301.515 143.868 301.148 144.191 300.648 144.43C300.147 144.669 299.496 144.788 298.694 144.788H295.015ZM296.248 143.694H298.694C299.499 143.694 300.071 143.539 300.409 143.227C300.751 142.912 300.921 142.531 300.921 142.084C300.921 141.739 300.833 141.421 300.658 141.129C300.482 140.834 300.232 140.599 299.907 140.423C299.582 140.244 299.198 140.155 298.754 140.155H296.248V143.694ZM296.248 139.081H298.535C298.906 139.081 299.241 139.008 299.539 138.862C299.841 138.716 300.079 138.511 300.255 138.245C300.434 137.98 300.524 137.669 300.524 137.311C300.524 136.863 300.368 136.484 300.056 136.172C299.745 135.857 299.251 135.7 298.575 135.7H296.248V139.081ZM305.909 144.967C305.425 144.967 304.985 144.876 304.591 144.694C304.197 144.508 303.883 144.241 303.651 143.893C303.419 143.542 303.303 143.118 303.303 142.62C303.303 142.183 303.39 141.828 303.562 141.557C303.734 141.281 303.965 141.066 304.253 140.91C304.541 140.754 304.86 140.638 305.208 140.562C305.559 140.483 305.912 140.42 306.266 140.373C306.73 140.314 307.107 140.269 307.395 140.239C307.687 140.206 307.899 140.151 308.031 140.075C308.167 139.999 308.235 139.866 308.235 139.677V139.638C308.235 139.147 308.101 138.766 307.833 138.494C307.567 138.222 307.165 138.086 306.624 138.086C306.064 138.086 305.625 138.209 305.307 138.454C304.989 138.7 304.765 138.961 304.636 139.24L303.522 138.842C303.721 138.378 303.986 138.017 304.318 137.758C304.652 137.496 305.017 137.314 305.411 137.211C305.809 137.105 306.2 137.052 306.585 137.052C306.83 137.052 307.112 137.082 307.43 137.142C307.751 137.198 308.061 137.316 308.36 137.495C308.661 137.674 308.911 137.944 309.11 138.305C309.309 138.666 309.409 139.15 309.409 139.757V144.788H308.235V143.754H308.176C308.096 143.92 307.963 144.097 307.778 144.286C307.592 144.475 307.345 144.636 307.037 144.768C306.729 144.901 306.353 144.967 305.909 144.967ZM306.088 143.913C306.552 143.913 306.943 143.822 307.261 143.64C307.582 143.457 307.824 143.222 307.987 142.934C308.152 142.645 308.235 142.342 308.235 142.024V140.95C308.186 141.01 308.076 141.064 307.907 141.114C307.741 141.16 307.549 141.202 307.33 141.238C307.115 141.272 306.904 141.301 306.699 141.328C306.497 141.351 306.333 141.371 306.207 141.388C305.902 141.427 305.617 141.492 305.352 141.581C305.09 141.668 304.878 141.799 304.715 141.974C304.556 142.147 304.477 142.382 304.477 142.68C304.477 143.088 304.628 143.396 304.929 143.605C305.234 143.81 305.62 143.913 306.088 143.913ZM314.352 144.947C313.636 144.947 313.02 144.778 312.503 144.44C311.986 144.102 311.588 143.636 311.31 143.043C311.031 142.45 310.892 141.772 310.892 141.01C310.892 140.234 311.035 139.55 311.32 138.956C311.608 138.36 312.009 137.894 312.523 137.559C313.04 137.221 313.643 137.052 314.332 137.052C314.869 137.052 315.353 137.152 315.784 137.351C316.215 137.549 316.568 137.828 316.843 138.186C317.118 138.544 317.289 138.961 317.355 139.439H316.182C316.092 139.091 315.894 138.782 315.585 138.514C315.28 138.242 314.869 138.106 314.352 138.106C313.895 138.106 313.494 138.226 313.149 138.464C312.808 138.7 312.541 139.033 312.349 139.464C312.16 139.891 312.065 140.393 312.065 140.97C312.065 141.56 312.158 142.074 312.344 142.511C312.533 142.949 312.798 143.288 313.139 143.53C313.484 143.772 313.888 143.893 314.352 143.893C314.657 143.893 314.934 143.84 315.183 143.734C315.431 143.628 315.642 143.476 315.814 143.277C315.986 143.078 316.109 142.839 316.182 142.561H317.355C317.289 143.012 317.125 143.418 316.863 143.779C316.604 144.137 316.261 144.422 315.834 144.634C315.41 144.843 314.916 144.947 314.352 144.947ZM319.864 142.004L319.844 140.552H320.083L323.424 137.152H324.875L321.316 140.751H321.216L319.864 142.004ZM318.77 144.788V134.606H319.944V144.788H318.77ZM323.623 144.788L320.64 141.01L321.475 140.194L325.114 144.788H323.623ZM326.086 144.788V137.152H327.259V144.788H326.086ZM326.682 135.879C326.453 135.879 326.256 135.801 326.091 135.645C325.928 135.49 325.847 135.302 325.847 135.084C325.847 134.865 325.928 134.678 326.091 134.522C326.256 134.366 326.453 134.288 326.682 134.288C326.911 134.288 327.106 134.366 327.269 134.522C327.435 134.678 327.517 134.865 327.517 135.084C327.517 135.302 327.435 135.49 327.269 135.645C327.106 135.801 326.911 135.879 326.682 135.879ZM330.281 140.194V144.788H329.108V137.152H330.241V138.345H330.341C330.52 137.957 330.792 137.646 331.156 137.41C331.521 137.172 331.991 137.052 332.568 137.052C333.085 137.052 333.538 137.158 333.925 137.37C334.313 137.579 334.615 137.897 334.83 138.325C335.046 138.749 335.153 139.286 335.153 139.936V144.788H333.98V140.015C333.98 139.415 333.824 138.948 333.513 138.613C333.201 138.275 332.774 138.106 332.23 138.106C331.855 138.106 331.521 138.187 331.226 138.35C330.934 138.512 330.704 138.749 330.535 139.061C330.366 139.372 330.281 139.75 330.281 140.194ZM340.08 147.811C339.513 147.811 339.026 147.738 338.618 147.592C338.21 147.45 337.871 147.261 337.599 147.025C337.33 146.793 337.117 146.545 336.958 146.28L337.892 145.623C337.998 145.763 338.132 145.922 338.295 146.101C338.457 146.283 338.679 146.44 338.961 146.573C339.246 146.709 339.619 146.777 340.08 146.777C340.696 146.777 341.205 146.628 341.606 146.329C342.007 146.031 342.208 145.564 342.208 144.927V143.376H342.108C342.022 143.515 341.899 143.688 341.74 143.893C341.584 144.095 341.359 144.276 341.064 144.435C340.772 144.591 340.378 144.669 339.881 144.669C339.264 144.669 338.711 144.523 338.22 144.231C337.733 143.94 337.347 143.515 337.062 142.959C336.78 142.402 336.639 141.726 336.639 140.93C336.639 140.148 336.777 139.467 337.052 138.887C337.327 138.303 337.71 137.853 338.2 137.535C338.691 137.213 339.258 137.052 339.901 137.052C340.398 137.052 340.792 137.135 341.084 137.301C341.379 137.463 341.604 137.649 341.76 137.858C341.919 138.063 342.042 138.232 342.128 138.365H342.247V137.152H343.381V145.007C343.381 145.663 343.232 146.197 342.933 146.608C342.638 147.022 342.241 147.325 341.74 147.517C341.243 147.713 340.69 147.811 340.08 147.811ZM340.04 143.615C340.511 143.615 340.908 143.507 341.233 143.292C341.558 143.076 341.805 142.766 341.974 142.362C342.143 141.958 342.227 141.474 342.227 140.91C342.227 140.36 342.145 139.874 341.979 139.454C341.813 139.033 341.568 138.703 341.243 138.464C340.918 138.226 340.517 138.106 340.04 138.106C339.543 138.106 339.128 138.232 338.797 138.484C338.469 138.736 338.222 139.074 338.056 139.498C337.894 139.923 337.813 140.393 337.813 140.91C337.813 141.441 337.896 141.91 338.061 142.317C338.23 142.722 338.479 143.04 338.807 143.272C339.138 143.5 339.549 143.615 340.04 143.615Z" fill="#3C4A47"/>
<path d="M236.48 176.247V158.066H237.645V176.247H236.48ZM239.839 163.882C239.773 163.262 239.494 162.779 239.001 162.433C238.514 162.088 237.879 161.915 237.098 161.915C236.549 161.915 236.078 161.998 235.685 162.164C235.292 162.329 234.991 162.554 234.783 162.838C234.574 163.122 234.468 163.447 234.463 163.811C234.463 164.114 234.532 164.377 234.669 164.6C234.811 164.822 235.003 165.012 235.244 165.168C235.486 165.319 235.753 165.447 236.047 165.551C236.34 165.656 236.636 165.743 236.935 165.814L238.298 166.155C238.848 166.283 239.375 166.456 239.882 166.674C240.393 166.891 240.85 167.166 241.253 167.497C241.66 167.829 241.982 168.229 242.219 168.698C242.455 169.166 242.574 169.716 242.574 170.345C242.574 171.198 242.356 171.948 241.92 172.597C241.485 173.241 240.855 173.745 240.031 174.11C239.212 174.469 238.22 174.649 237.055 174.649C235.924 174.649 234.941 174.474 234.108 174.124C233.279 173.773 232.631 173.262 232.162 172.59C231.698 171.917 231.447 171.098 231.409 170.132H234.001C234.039 170.639 234.196 171.06 234.47 171.397C234.745 171.733 235.102 171.984 235.543 172.149C235.988 172.315 236.485 172.398 237.034 172.398C237.607 172.398 238.109 172.313 238.54 172.142C238.975 171.967 239.316 171.726 239.562 171.418C239.809 171.105 239.934 170.741 239.939 170.324C239.934 169.945 239.823 169.633 239.605 169.387C239.387 169.136 239.082 168.927 238.689 168.762C238.301 168.591 237.846 168.44 237.325 168.307L235.67 167.881C234.473 167.573 233.526 167.107 232.83 166.482C232.138 165.852 231.793 165.016 231.793 163.975C231.793 163.118 232.025 162.367 232.489 161.723C232.957 161.079 233.594 160.58 234.399 160.225C235.204 159.865 236.116 159.685 237.134 159.685C238.166 159.685 239.07 159.865 239.847 160.225C240.628 160.58 241.241 161.075 241.686 161.709C242.131 162.339 242.361 163.063 242.375 163.882H239.839ZM249.701 174.628C248.678 174.628 247.769 174.453 246.974 174.102C246.183 173.752 245.558 173.264 245.099 172.639C244.64 172.014 244.396 171.292 244.367 170.473H247.038C247.061 170.866 247.192 171.21 247.428 171.503C247.665 171.792 247.98 172.017 248.373 172.178C248.766 172.339 249.206 172.419 249.694 172.419C250.215 172.419 250.676 172.329 251.079 172.149C251.481 171.965 251.796 171.709 252.024 171.382C252.251 171.056 252.362 170.679 252.357 170.253C252.362 169.813 252.248 169.424 252.016 169.088C251.784 168.752 251.448 168.489 251.008 168.3C250.572 168.111 250.047 168.016 249.431 168.016H248.146V165.985H249.431C249.938 165.985 250.381 165.897 250.759 165.722C251.143 165.547 251.443 165.3 251.661 164.983C251.879 164.661 251.986 164.29 251.981 163.868C251.986 163.456 251.893 163.099 251.704 162.796C251.519 162.488 251.256 162.249 250.916 162.078C250.579 161.908 250.184 161.823 249.729 161.823C249.284 161.823 248.872 161.903 248.494 162.064C248.115 162.225 247.809 162.455 247.577 162.753C247.345 163.047 247.222 163.397 247.208 163.804H244.673C244.692 162.99 244.926 162.275 245.376 161.659C245.83 161.039 246.436 160.556 247.194 160.21C247.952 159.86 248.801 159.685 249.744 159.685C250.714 159.685 251.557 159.867 252.272 160.232C252.992 160.592 253.548 161.077 253.941 161.688C254.334 162.299 254.531 162.973 254.531 163.712C254.535 164.531 254.294 165.218 253.806 165.772C253.323 166.326 252.689 166.688 251.903 166.858V166.972C252.925 167.114 253.709 167.493 254.254 168.108C254.803 168.719 255.075 169.479 255.07 170.388C255.07 171.202 254.838 171.932 254.374 172.576C253.915 173.215 253.281 173.717 252.471 174.081C251.666 174.446 250.743 174.628 249.701 174.628ZM259.825 172.441L259.733 173.222C259.667 173.818 259.548 174.424 259.378 175.04C259.212 175.66 259.037 176.231 258.852 176.752C258.668 177.272 258.519 177.682 258.405 177.98H256.672C256.738 177.692 256.828 177.299 256.942 176.801C257.06 176.304 257.174 175.745 257.283 175.125C257.392 174.505 257.465 173.875 257.503 173.236L257.553 172.441H259.825ZM267.258 174.628C266.311 174.628 265.464 174.451 264.715 174.095C263.967 173.736 263.373 173.243 262.933 172.618C262.497 171.993 262.265 171.278 262.237 170.473H264.794C264.841 171.07 265.099 171.558 265.568 171.936C266.036 172.31 266.6 172.497 267.258 172.497C267.774 172.497 268.233 172.379 268.636 172.142C269.038 171.906 269.356 171.576 269.588 171.155C269.82 170.734 269.933 170.253 269.928 169.713C269.933 169.164 269.817 168.676 269.58 168.25C269.344 167.824 269.019 167.49 268.607 167.249C268.196 167.003 267.722 166.879 267.187 166.879C266.751 166.875 266.323 166.955 265.901 167.121C265.48 167.287 265.146 167.504 264.9 167.774L262.521 167.384L263.281 159.884H271.718V162.085H265.461L265.042 165.942H265.127C265.397 165.625 265.778 165.362 266.271 165.154C266.763 164.941 267.303 164.834 267.89 164.834C268.771 164.834 269.557 165.042 270.248 165.459C270.939 165.871 271.484 166.439 271.882 167.164C272.279 167.888 272.478 168.717 272.478 169.649C272.478 170.611 272.256 171.468 271.811 172.22C271.37 172.968 270.757 173.558 269.971 173.989C269.19 174.415 268.285 174.628 267.258 174.628ZM274.557 174.429V172.526L279.607 167.576C280.09 167.088 280.493 166.655 280.815 166.276C281.137 165.897 281.378 165.53 281.539 165.175C281.7 164.82 281.78 164.441 281.78 164.039C281.78 163.579 281.676 163.186 281.468 162.86C281.26 162.528 280.973 162.272 280.609 162.093C280.244 161.913 279.83 161.823 279.366 161.823C278.887 161.823 278.468 161.922 278.109 162.121C277.749 162.315 277.469 162.592 277.271 162.952C277.076 163.312 276.979 163.74 276.979 164.237H274.472C274.472 163.314 274.683 162.512 275.104 161.83C275.526 161.148 276.106 160.62 276.844 160.246C277.588 159.872 278.44 159.685 279.401 159.685C280.377 159.685 281.234 159.867 281.972 160.232C282.711 160.596 283.284 161.096 283.691 161.73C284.103 162.365 284.309 163.089 284.309 163.904C284.309 164.448 284.205 164.983 283.996 165.509C283.788 166.034 283.421 166.617 282.896 167.256C282.375 167.895 281.643 168.669 280.701 169.578L278.194 172.128V172.227H284.529V174.429H274.557ZM292.596 159.884V174.429H289.961V162.448H289.875L286.473 164.621V162.206L290.088 159.884H292.596ZM298.235 172.441L298.142 173.222C298.076 173.818 297.958 174.424 297.787 175.04C297.622 175.66 297.446 176.231 297.262 176.752C297.077 177.272 296.928 177.682 296.814 177.98H295.081C295.148 177.692 295.238 177.299 295.351 176.801C295.47 176.304 295.583 175.745 295.692 175.125C295.801 174.505 295.874 173.875 295.912 173.236L295.962 172.441H298.235ZM305.667 174.628C304.72 174.628 303.873 174.451 303.125 174.095C302.377 173.736 301.782 173.243 301.342 172.618C300.907 171.993 300.675 171.278 300.646 170.473H303.203C303.25 171.07 303.508 171.558 303.977 171.936C304.446 172.31 305.009 172.497 305.667 172.497C306.184 172.497 306.643 172.379 307.045 172.142C307.448 171.906 307.765 171.576 307.997 171.155C308.229 170.734 308.343 170.253 308.338 169.713C308.343 169.164 308.227 168.676 307.99 168.25C307.753 167.824 307.429 167.49 307.017 167.249C306.605 167.003 306.131 166.879 305.596 166.879C305.161 166.875 304.732 166.955 304.311 167.121C303.889 167.287 303.556 167.504 303.309 167.774L300.93 167.384L301.69 159.884H310.128V162.085H303.871L303.451 165.942H303.537C303.807 165.625 304.188 165.362 304.68 165.154C305.173 164.941 305.712 164.834 306.3 164.834C307.18 164.834 307.966 165.042 308.657 165.459C309.349 165.871 309.893 166.439 310.291 167.164C310.689 167.888 310.888 168.717 310.888 169.649C310.888 170.611 310.665 171.468 310.22 172.22C309.78 172.968 309.166 173.558 308.38 173.989C307.599 174.415 306.695 174.628 305.667 174.628ZM318.343 174.706C317.174 174.706 316.17 174.41 315.332 173.818C314.499 173.222 313.857 172.362 313.407 171.24C312.962 170.113 312.74 168.757 312.74 167.171C312.744 165.585 312.969 164.235 313.414 163.122C313.864 162.005 314.506 161.153 315.339 160.566C316.177 159.978 317.178 159.685 318.343 159.685C319.508 159.685 320.509 159.978 321.348 160.566C322.186 161.153 322.827 162.005 323.272 163.122C323.722 164.24 323.947 165.589 323.947 167.171C323.947 168.762 323.722 170.12 323.272 171.247C322.827 172.37 322.186 173.227 321.348 173.818C320.514 174.41 319.513 174.706 318.343 174.706ZM318.343 172.483C319.252 172.483 319.97 172.036 320.495 171.141C321.026 170.241 321.291 168.918 321.291 167.171C321.291 166.015 321.17 165.045 320.928 164.259C320.687 163.473 320.346 162.881 319.906 162.483C319.465 162.081 318.945 161.879 318.343 161.879C317.439 161.879 316.724 162.329 316.198 163.229C315.673 164.124 315.408 165.438 315.403 167.171C315.398 168.331 315.514 169.306 315.751 170.097C315.992 170.888 316.333 171.484 316.774 171.887C317.214 172.284 317.737 172.483 318.343 172.483ZM331.383 174.706C330.214 174.706 329.21 174.41 328.372 173.818C327.538 173.222 326.897 172.362 326.447 171.24C326.002 170.113 325.779 168.757 325.779 167.171C325.784 165.585 326.009 164.235 326.454 163.122C326.904 162.005 327.546 161.153 328.379 160.566C329.217 159.978 330.218 159.685 331.383 159.685C332.548 159.685 333.549 159.978 334.387 160.566C335.225 161.153 335.867 162.005 336.312 163.122C336.762 164.24 336.987 165.589 336.987 167.171C336.987 168.762 336.762 170.12 336.312 171.247C335.867 172.37 335.225 173.227 334.387 173.818C333.554 174.41 332.553 174.706 331.383 174.706ZM331.383 172.483C332.292 172.483 333.01 172.036 333.535 171.141C334.065 170.241 334.331 168.918 334.331 167.171C334.331 166.015 334.21 165.045 333.968 164.259C333.727 163.473 333.386 162.881 332.946 162.483C332.505 162.081 331.984 161.879 331.383 161.879C330.479 161.879 329.764 162.329 329.238 163.229C328.713 164.124 328.447 165.438 328.443 167.171C328.438 168.331 328.554 169.306 328.791 170.097C329.032 170.888 329.373 171.484 329.813 171.887C330.254 172.284 330.777 172.483 331.383 172.483ZM340.092 174.585C339.661 174.585 339.292 174.434 338.984 174.131C338.677 173.828 338.525 173.459 338.53 173.023C338.525 172.597 338.677 172.232 338.984 171.929C339.292 171.626 339.661 171.475 340.092 171.475C340.509 171.475 340.871 171.626 341.179 171.929C341.491 172.232 341.65 172.597 341.655 173.023C341.65 173.312 341.574 173.575 341.428 173.811C341.286 174.048 341.096 174.237 340.859 174.379C340.627 174.517 340.372 174.585 340.092 174.585ZM344.045 174.429L350.231 162.185V162.085H343.05V159.884H352.958V162.135L346.779 174.429H344.045ZM360.014 174.706C358.845 174.706 357.841 174.41 357.003 173.818C356.17 173.222 355.528 172.362 355.078 171.24C354.633 170.113 354.411 168.757 354.411 167.171C354.415 165.585 354.64 164.235 355.085 163.122C355.535 162.005 356.177 161.153 357.01 160.566C357.848 159.978 358.85 159.685 360.014 159.685C361.179 159.685 362.181 159.978 363.019 160.566C363.857 161.153 364.498 162.005 364.943 163.122C365.393 164.24 365.618 165.589 365.618 167.171C365.618 168.762 365.393 170.12 364.943 171.247C364.498 172.37 363.857 173.227 363.019 173.818C362.185 174.41 361.184 174.706 360.014 174.706ZM360.014 172.483C360.923 172.483 361.641 172.036 362.166 171.141C362.697 170.241 362.962 168.918 362.962 167.171C362.962 166.015 362.841 165.045 362.6 164.259C362.358 163.473 362.017 162.881 361.577 162.483C361.137 162.081 360.616 161.879 360.014 161.879C359.11 161.879 358.395 162.329 357.869 163.229C357.344 164.124 357.079 165.438 357.074 167.171C357.069 168.331 357.185 169.306 357.422 170.097C357.663 170.888 358.004 171.484 358.445 171.887C358.885 172.284 359.408 172.483 360.014 172.483Z" fill="#083C2F"/>
<path d="M63.7273 101.788H59.2912V88.6969H63.8168C65.1165 88.6969 66.233 88.959 67.1662 89.4832C68.1037 90.003 68.8239 90.7509 69.3267 91.7268C69.8295 92.7026 70.081 93.8702 70.081 95.2296C70.081 96.5932 69.8274 97.7651 69.3203 98.7452C68.8175 99.7253 68.0909 100.477 67.1406 101.002C66.1946 101.526 65.0568 101.788 63.7273 101.788ZM61.6626 99.736H63.6122C64.5241 99.736 65.2848 99.5698 65.8942 99.2374C66.5036 98.9008 66.9616 98.4001 67.2685 97.7353C67.5753 97.0663 67.7287 96.231 67.7287 95.2296C67.7287 94.2282 67.5753 93.3972 67.2685 92.7367C66.9616 92.0719 66.5078 91.5755 65.907 91.2474C65.3104 90.915 64.5689 90.7488 63.6825 90.7488H61.6626V99.736ZM74.7572 101.986C74.135 101.986 73.5746 101.875 73.0761 101.654C72.5817 101.428 72.1897 101.095 71.8999 100.656C71.6144 100.218 71.4717 99.6763 71.4717 99.0329C71.4717 98.4789 71.5739 98.0208 71.7785 97.6586C71.983 97.2964 72.2621 97.0066 72.6158 96.7893C72.9695 96.5719 73.368 96.4079 73.8112 96.2971C74.2586 96.182 74.721 96.0989 75.1982 96.0478C75.7735 95.9881 76.2401 95.9349 76.5981 95.888C76.956 95.8368 77.216 95.7601 77.3779 95.6579C77.5441 95.5513 77.6272 95.3873 77.6272 95.1657V95.1273C77.6272 94.6458 77.4844 94.2729 77.1989 94.0087C76.9134 93.7445 76.5022 93.6124 75.9653 93.6124C75.3985 93.6124 74.9489 93.736 74.6165 93.9832C74.2884 94.2303 74.0668 94.5222 73.9518 94.8589L71.7913 94.552C71.9617 93.9555 72.243 93.4569 72.635 93.0563C73.0271 92.6515 73.5065 92.3489 74.0732 92.1486C74.64 91.9441 75.2664 91.8418 75.9525 91.8418C76.4255 91.8418 76.8964 91.8972 77.3651 92.008C77.8339 92.1188 78.2621 92.302 78.6499 92.5577C79.0377 92.8091 79.3488 93.1522 79.5832 93.5868C79.8218 94.0215 79.9411 94.5648 79.9411 95.2168V101.788H77.7167V100.439H77.64C77.4994 100.712 77.3012 100.968 77.0455 101.206C76.7941 101.441 76.4766 101.63 76.0931 101.775C75.7138 101.916 75.2685 101.986 74.7572 101.986ZM75.358 100.286C75.8225 100.286 76.2252 100.194 76.5661 100.011C76.907 99.8234 77.1691 99.5762 77.3523 99.2694C77.5398 98.9626 77.6336 98.628 77.6336 98.2658V97.1089C77.5612 97.1685 77.4376 97.2239 77.2629 97.2751C77.0924 97.3262 76.9006 97.3709 76.6876 97.4093C76.4745 97.4476 76.2636 97.4817 76.0548 97.5116C75.846 97.5414 75.6648 97.567 75.5114 97.5883C75.1663 97.6351 74.8573 97.7118 74.5846 97.8184C74.3119 97.9249 74.0967 98.0741 73.939 98.2658C73.7813 98.4533 73.7025 98.6962 73.7025 98.9945C73.7025 99.4207 73.858 99.7424 74.1691 99.9597C74.4802 100.177 74.8765 100.286 75.358 100.286ZM89.7278 94.5648L87.6184 94.7949C87.5587 94.5819 87.4543 94.3816 87.3052 94.1941C87.1603 94.0066 86.9643 93.8553 86.7171 93.7403C86.47 93.6252 86.1674 93.5677 85.8094 93.5677C85.3279 93.5677 84.9231 93.6721 84.595 93.8809C84.2711 94.0897 84.1113 94.3603 84.1156 94.6927C84.1113 94.9782 84.2157 95.2104 84.4288 95.3894C84.6461 95.5684 85.004 95.7154 85.5026 95.8305L87.1773 96.1884C88.1063 96.3887 88.7967 96.7062 89.2484 97.1408C89.7043 97.5755 89.9344 98.1444 89.9387 98.8475C89.9344 99.4654 89.7533 100.011 89.3954 100.484C89.0417 100.953 88.5495 101.319 87.9188 101.583C87.2881 101.848 86.5637 101.98 85.7455 101.98C84.5438 101.98 83.5765 101.728 82.8435 101.225C82.1106 100.718 81.6738 100.013 81.5332 99.1096L83.7896 98.8922C83.8918 99.3354 84.1092 99.6699 84.4415 99.8958C84.7739 100.122 85.2065 100.235 85.7391 100.235C86.2888 100.235 86.7299 100.122 87.0623 99.8958C87.3989 99.6699 87.5673 99.3908 87.5673 99.0584C87.5673 98.7772 87.4586 98.5449 87.2413 98.3617C87.0282 98.1785 86.6958 98.0378 86.2441 97.9398L84.5694 97.5883C83.6276 97.3922 82.9309 97.062 82.4792 96.5975C82.0275 96.1288 81.8038 95.5364 81.808 94.8205C81.8038 94.2154 81.9678 93.6913 82.3002 93.2481C82.6369 92.8006 83.1035 92.4555 83.7001 92.2126C84.3009 91.9654 84.9934 91.8418 85.7775 91.8418C86.9281 91.8418 87.8336 92.0868 88.4941 92.5769C89.1589 93.067 89.5701 93.7296 89.7278 94.5648ZM93.8607 96.035V101.788H91.5467V88.6969H93.8095V93.638H93.9246C94.1547 93.084 94.5105 92.6472 94.992 92.3276C95.4778 92.0038 96.0957 91.8418 96.8457 91.8418C97.5276 91.8418 98.122 91.9846 98.6291 92.2701C99.1362 92.5556 99.5283 92.9732 99.8053 93.5229C100.087 94.0726 100.227 94.7438 100.227 95.5364V101.788H97.9132V95.8944C97.9132 95.2339 97.7428 94.7204 97.4018 94.3539C97.0652 93.9832 96.5922 93.7978 95.9828 93.7978C95.5737 93.7978 95.2072 93.8873 94.8834 94.0663C94.5638 94.241 94.3124 94.4945 94.1291 94.8269C93.9501 95.1593 93.8607 95.562 93.8607 96.035ZM102.388 101.788V88.6969H104.702V93.5932H104.798C104.917 93.3546 105.086 93.1011 105.303 92.8326C105.52 92.5599 105.814 92.3276 106.185 92.1359C106.556 91.9398 107.029 91.8418 107.604 91.8418C108.362 91.8418 109.046 92.0357 109.656 92.4235C110.269 92.807 110.755 93.3759 111.113 94.1302C111.475 94.8802 111.657 95.8006 111.657 96.8915C111.657 97.9697 111.48 98.8859 111.126 99.6401C110.772 100.394 110.291 100.97 109.681 101.366C109.072 101.762 108.382 101.96 107.61 101.96C107.048 101.96 106.581 101.867 106.211 101.679C105.84 101.492 105.541 101.266 105.316 101.002C105.094 100.733 104.921 100.48 104.798 100.241H104.664V101.788H102.388ZM104.657 96.8788C104.657 97.5137 104.747 98.0698 104.926 98.5471C105.109 99.0243 105.371 99.3972 105.712 99.6657C106.057 99.9299 106.475 100.062 106.965 100.062C107.476 100.062 107.904 99.9256 108.25 99.6529C108.595 99.3759 108.855 98.9988 109.029 98.5215C109.208 98.04 109.298 97.4924 109.298 96.8788C109.298 96.2694 109.211 95.7282 109.036 95.2552C108.861 94.7822 108.601 94.4114 108.256 94.143C107.911 93.8745 107.48 93.7403 106.965 93.7403C106.47 93.7403 106.051 93.8702 105.706 94.1302C105.36 94.3901 105.098 94.7545 104.919 95.2232C104.745 95.692 104.657 96.2438 104.657 96.8788ZM117.606 101.98C116.648 101.98 115.817 101.769 115.113 101.347C114.41 100.925 113.865 100.335 113.477 99.5762C113.094 98.8177 112.902 97.9313 112.902 96.9171C112.902 95.9029 113.094 95.0144 113.477 94.2516C113.865 93.4888 114.41 92.8965 115.113 92.4746C115.817 92.0528 116.648 91.8418 117.606 91.8418C118.565 91.8418 119.396 92.0528 120.099 92.4746C120.802 92.8965 121.346 93.4888 121.729 94.2516C122.117 95.0144 122.311 95.9029 122.311 96.9171C122.311 97.9313 122.117 98.8177 121.729 99.5762C121.346 100.335 120.802 100.925 120.099 101.347C119.396 101.769 118.565 101.98 117.606 101.98ZM117.619 100.126C118.139 100.126 118.574 99.9832 118.923 99.6976C119.273 99.4079 119.532 99.0201 119.703 98.5343C119.878 98.0485 119.965 97.5073 119.965 96.9107C119.965 96.3099 119.878 95.7665 119.703 95.2807C119.532 94.7907 119.273 94.4008 118.923 94.111C118.574 93.8212 118.139 93.6763 117.619 93.6763C117.086 93.6763 116.643 93.8212 116.29 94.111C115.94 94.4008 115.678 94.7907 115.503 95.2807C115.333 95.7665 115.248 96.3099 115.248 96.9107C115.248 97.5073 115.333 98.0485 115.503 98.5343C115.678 99.0201 115.94 99.4079 116.29 99.6976C116.643 99.9832 117.086 100.126 117.619 100.126ZM126.8 101.986C126.178 101.986 125.618 101.875 125.119 101.654C124.625 101.428 124.233 101.095 123.943 100.656C123.657 100.218 123.515 99.6763 123.515 99.0329C123.515 98.4789 123.617 98.0208 123.821 97.6586C124.026 97.2964 124.305 97.0066 124.659 96.7893C125.012 96.5719 125.411 96.4079 125.854 96.2971C126.302 96.182 126.764 96.0989 127.241 96.0478C127.816 95.9881 128.283 95.9349 128.641 95.888C128.999 95.8368 129.259 95.7601 129.421 95.6579C129.587 95.5513 129.67 95.3873 129.67 95.1657V95.1273C129.67 94.6458 129.527 94.2729 129.242 94.0087C128.956 93.7445 128.545 93.6124 128.008 93.6124C127.441 93.6124 126.992 93.736 126.66 93.9832C126.331 94.2303 126.11 94.5222 125.995 94.8589L123.834 94.552C124.005 93.9555 124.286 93.4569 124.678 93.0563C125.07 92.6515 125.549 92.3489 126.116 92.1486C126.683 91.9441 127.309 91.8418 127.995 91.8418C128.468 91.8418 128.939 91.8972 129.408 92.008C129.877 92.1188 130.305 92.302 130.693 92.5577C131.081 92.8091 131.392 93.1522 131.626 93.5868C131.865 94.0215 131.984 94.5648 131.984 95.2168V101.788H129.76V100.439H129.683C129.542 100.712 129.344 100.968 129.088 101.206C128.837 101.441 128.52 101.63 128.136 101.775C127.757 101.916 127.312 101.986 126.8 101.986ZM127.401 100.286C127.865 100.286 128.268 100.194 128.609 100.011C128.95 99.8234 129.212 99.5762 129.395 99.2694C129.583 98.9626 129.677 98.628 129.677 98.2658V97.1089C129.604 97.1685 129.481 97.2239 129.306 97.2751C129.135 97.3262 128.944 97.3709 128.731 97.4093C128.517 97.4476 128.307 97.4817 128.098 97.5116C127.889 97.5414 127.708 97.567 127.554 97.5883C127.209 97.6351 126.9 97.7118 126.628 97.8184C126.355 97.9249 126.14 98.0741 125.982 98.2658C125.824 98.4533 125.745 98.6962 125.745 98.9945C125.745 99.4207 125.901 99.7424 126.212 99.9597C126.523 100.177 126.919 100.286 127.401 100.286ZM134.011 101.788V91.9697H136.254V93.606H136.357C136.536 93.0393 136.842 92.6025 137.277 92.2957C137.716 91.9846 138.217 91.829 138.779 91.829C138.907 91.829 139.05 91.8354 139.208 91.8482C139.369 91.8567 139.504 91.8716 139.61 91.893V94.0215C139.512 93.9874 139.357 93.9576 139.144 93.932C138.935 93.9022 138.732 93.8873 138.536 93.8873C138.114 93.8873 137.735 93.9789 137.399 94.1621C137.066 94.3411 136.804 94.5904 136.612 94.91C136.421 95.2296 136.325 95.5982 136.325 96.0158V101.788H134.011ZM144.087 101.96C143.315 101.96 142.625 101.762 142.016 101.366C141.406 100.97 140.925 100.394 140.571 99.6401C140.217 98.8859 140.041 97.9697 140.041 96.8915C140.041 95.8006 140.219 94.8802 140.577 94.1302C140.94 93.3759 141.428 92.807 142.041 92.4235C142.655 92.0357 143.339 91.8418 144.093 91.8418C144.668 91.8418 145.141 91.9398 145.512 92.1359C145.883 92.3276 146.177 92.5599 146.394 92.8326C146.612 93.1011 146.78 93.3546 146.899 93.5932H146.995V88.6969H149.315V101.788H147.04V100.241H146.899C146.78 100.48 146.607 100.733 146.381 101.002C146.156 101.266 145.857 101.492 145.487 101.679C145.116 101.867 144.649 101.96 144.087 101.96ZM144.732 100.062C145.222 100.062 145.64 99.9299 145.985 99.6657C146.33 99.3972 146.592 99.0243 146.771 98.5471C146.95 98.0698 147.04 97.5137 147.04 96.8788C147.04 96.2438 146.95 95.692 146.771 95.2232C146.597 94.7545 146.337 94.3901 145.992 94.1302C145.651 93.8702 145.231 93.7403 144.732 93.7403C144.217 93.7403 143.786 93.8745 143.441 94.143C143.096 94.4114 142.836 94.7822 142.661 95.2552C142.487 95.7282 142.399 96.2694 142.399 96.8788C142.399 97.4924 142.487 98.04 142.661 98.5215C142.84 98.9988 143.102 99.3759 143.447 99.6529C143.797 99.9256 144.225 100.062 144.732 100.062Z" fill="#083C2F"/>
<circle opacity="0.6" cx="512.5" cy="72.2878" r="38" stroke="url(#paint4_linear_354_1897)"/>
</g>
<defs>
<linearGradient id="paint0_linear_354_1897" x1="-56" y1="71.2844" x2="565" y2="71.2844" gradientUnits="userSpaceOnUse">
<stop stop-color="#083C2F" stop-opacity="0"/>
<stop offset="0.494792" stop-color="#083C2F"/>
<stop offset="1" stop-color="#083C2F" stop-opacity="0"/>
</linearGradient>
<linearGradient id="paint1_linear_354_1897" x1="574" y1="376.284" x2="-47" y2="376.284" gradientUnits="userSpaceOnUse">
<stop stop-color="#083C2F" stop-opacity="0"/>
<stop offset="0.494792" stop-color="#083C2F"/>
<stop offset="1" stop-color="#083C2F" stop-opacity="0"/>
</linearGradient>
<linearGradient id="paint2_linear_354_1897" x1="28.4972" y1="565.288" x2="28.4972" y2="-18.5122" gradientUnits="userSpaceOnUse">
<stop offset="0.0364583" stop-color="#083C2F" stop-opacity="0"/>
<stop offset="0.494792" stop-color="#083C2F"/>
<stop offset="1" stop-color="#083C2F" stop-opacity="0"/>
</linearGradient>
<linearGradient id="paint3_linear_354_1897" x1="511.497" y1="564.788" x2="511.497" y2="-19.0122" gradientUnits="userSpaceOnUse">
<stop offset="0.0364583" stop-color="#083C2F" stop-opacity="0"/>
<stop offset="0.494792" stop-color="#083C2F"/>
<stop offset="1" stop-color="#083C2F" stop-opacity="0"/>
</linearGradient>
<linearGradient id="paint4_linear_354_1897" x1="462.716" y1="42.4172" x2="541.707" y2="118.753" gradientUnits="userSpaceOnUse">
<stop offset="0.0385834" stop-color="#083C2F" stop-opacity="0"/>
<stop offset="0.545402" stop-color="#083C2F"/>
<stop offset="1" stop-color="#083C2F" stop-opacity="0"/>
</linearGradient>
<clipPath id="clip0_354_1897">
<rect x="-13" y="0.787842" width="578" height="454" rx="8" fill="white"/>
</clipPath>
</defs>
</svg>
