<svg width="565" height="377" viewBox="0 0 565 377" fill="none" xmlns="http://www.w3.org/2000/svg">
<g clip-path="url(#clip0_32_87)">
<mask id="mask0_32_87" style="mask-type:luminance" maskUnits="userSpaceOnUse" x="-13" y="0" width="578" height="455">
<path d="M557 0.787842H-5C-9.41828 0.787842 -13 4.36956 -13 8.78784V446.788C-13 451.206 -9.41828 454.788 -5 454.788H557C561.418 454.788 565 451.206 565 446.788V8.78784C565 4.36956 561.418 0.787842 557 0.787842Z" fill="white"/>
</mask>
<g mask="url(#mask0_32_87)">
<path d="M-47 71.7878H565" stroke="url(#paint0_linear_32_87)"/>
<path d="M565 376.788H-47" stroke="url(#paint1_linear_32_87)"/>
<path d="M29 556.288V-55.7122" stroke="url(#paint2_linear_32_87)"/>
<path d="M512 555.788V-56.2122" stroke="url(#paint3_linear_32_87)"/>
<path d="M71 358H80C80.5523 358 81 357.401 81 356.662L81 256.338C81 255.599 80.5523 255 80 255H71C70.4477 255 70 255.599 70 256.338L70 356.662C70 357.401 70.4477 358 71 358Z" fill="#006F37"/>
<path d="M112 358H122C122.552 358 123 357.448 123 356.767L123 248.233C123 247.552 122.552 247 122 247H112C111.448 247 111 247.552 111 248.233L111 356.767C111 357.448 111.448 358 112 358Z" fill="#006F37"/>
<path d="M155 358H164C164.552 358 165 357.332 165 356.507V253.493C165 252.668 164.552 252 164 252H155C154.448 252 154 252.668 154 253.493V356.507C154 357.332 154.448 358 155 358Z" fill="#006F37"/>
<path d="M196.5 357.787H205.5C206.052 357.787 206.5 357.339 206.5 356.787V249.787C206.5 249.235 206.052 248.787 205.5 248.787H196.5C195.948 248.787 195.5 249.235 195.5 249.787V356.787C195.5 357.339 195.948 357.787 196.5 357.787Z" fill="#006F37"/>
<path d="M238.167 357.787H248.167C248.719 357.787 249.167 357.339 249.167 356.787V249.787C249.167 249.235 248.719 248.787 248.167 248.787H238.167C237.615 248.787 237.167 249.235 237.167 249.787V356.787C237.167 357.339 237.615 357.787 238.167 357.787Z" fill="#006F37"/>
<path d="M281 358H291C291.552 358 292 357.678 292 357.281V248.719C292 248.322 291.552 248 291 248H281C280.448 248 280 248.322 280 248.719V357.281C280 357.678 280.448 358 281 358Z" fill="#006F37"/>
<path d="M324 358H333C333.552 358 334 357.632 334 357.178V247.822C334 247.368 333.552 247 333 247H324C323.448 247 323 247.368 323 247.822V357.178C323 357.632 323.448 358 324 358Z" fill="#006F37"/>
<path d="M365 358H374C374.552 358 375 357.497 375 356.878V249.122C375 248.503 374.552 248 374 248H365C364.448 248 364 248.503 364 249.122V356.878C364 357.497 364.448 358 365 358Z" fill="#006F37"/>
<path d="M407 358H417C417.552 358 418 357.384 418 356.623V253.377C418 252.616 417.552 252 417 252H407C406.448 252 406 252.616 406 253.377V356.623C406 357.384 406.448 358 407 358Z" fill="#006F37"/>
<path d="M449 358H458C458.552 358 459 357.648 459 357.215V252.785C459 252.352 458.552 252 458 252H449C448.448 252 448 252.352 448 252.785V357.215C448 357.648 448.448 358 449 358Z" fill="#006F37"/>
<path d="M63.7271 101.788H59.291V88.697H63.8166C65.1163 88.697 66.2328 88.9591 67.166 89.4833C68.1035 90.0031 68.8237 90.751 69.3265 91.7269C69.8293 92.7027 70.0808 93.8703 70.0808 95.2297C70.0808 96.5933 69.8272 97.7652 69.3201 98.7453C68.8173 99.7254 68.0907 100.477 67.1404 101.002C66.1944 101.526 65.0566 101.788 63.7271 101.788ZM61.6624 99.7361H63.612C64.5239 99.7361 65.2846 99.5699 65.894 99.2375C66.5034 98.9009 66.9614 98.4002 67.2683 97.7354C67.5751 97.0664 67.7285 96.2311 67.7285 95.2297C67.7285 94.2283 67.5751 93.3973 67.2683 92.7368C66.9614 92.072 66.5076 91.5756 65.9068 91.2475C65.3102 90.9151 64.5687 90.7489 63.6823 90.7489H61.6624V99.7361ZM74.757 101.986C74.1348 101.986 73.5744 101.875 73.0759 101.654C72.5815 101.428 72.1895 101.095 71.8997 100.656C71.6142 100.218 71.4715 99.6764 71.4715 99.033C71.4715 98.479 71.5737 98.0209 71.7783 97.6587C71.9828 97.2965 72.2619 97.0067 72.6156 96.7894C72.9693 96.572 73.3678 96.408 73.811 96.2972C74.2584 96.1821 74.7208 96.099 75.198 96.0479C75.7733 95.9882 76.2399 95.935 76.5979 95.8881C76.9558 95.8369 77.2158 95.7602 77.3777 95.658C77.5439 95.5514 77.627 95.3874 77.627 95.1658V95.1274C77.627 94.6459 77.4842 94.273 77.1987 94.0088C76.9132 93.7446 76.502 93.6125 75.9651 93.6125C75.3983 93.6125 74.9487 93.7361 74.6163 93.9833C74.2882 94.2304 74.0666 94.5223 73.9516 94.859L71.7911 94.5521C71.9615 93.9556 72.2428 93.457 72.6348 93.0564C73.0269 92.6516 73.5063 92.349 74.073 92.1487C74.6398 91.9442 75.2662 91.8419 75.9523 91.8419C76.4253 91.8419 76.8962 91.8973 77.3649 92.0081C77.8337 92.1189 78.2619 92.3021 78.6497 92.5578C79.0375 92.8092 79.3486 93.1523 79.583 93.5869C79.8216 94.0216 79.9409 94.5649 79.9409 95.2169V101.788H77.7165V100.439H77.6398C77.4992 100.712 77.301 100.968 77.0453 101.206C76.7939 101.441 76.4764 101.63 76.0929 101.775C75.7136 101.916 75.2683 101.986 74.757 101.986ZM75.3578 100.286C75.8223 100.286 76.225 100.194 76.5659 100.011C76.9068 99.8235 77.1689 99.5763 77.3521 99.2695C77.5396 98.9627 77.6334 98.6281 77.6334 98.2659V97.109C77.561 97.1686 77.4374 97.224 77.2627 97.2752C77.0922 97.3263 76.9004 97.371 76.6874 97.4094C76.4743 97.4477 76.2634 97.4818 76.0546 97.5117C75.8458 97.5415 75.6646 97.5671 75.5112 97.5884C75.1661 97.6352 74.8571 97.7119 74.5844 97.8185C74.3117 97.925 74.0965 98.0742 73.9388 98.2659C73.7811 98.4534 73.7023 98.6963 73.7023 98.9946C73.7023 99.4208 73.8578 99.7425 74.1689 99.9598C74.48 100.177 74.8763 100.286 75.3578 100.286ZM89.7276 94.5649L87.6182 94.795C87.5585 94.582 87.4541 94.3817 87.305 94.1942C87.1601 94.0067 86.9641 93.8554 86.7169 93.7404C86.4698 93.6253 86.1672 93.5678 85.8092 93.5678C85.3277 93.5678 84.9229 93.6722 84.5948 93.881C84.2709 94.0898 84.1111 94.3604 84.1154 94.6928C84.1111 94.9783 84.2155 95.2105 84.4286 95.3895C84.6459 95.5685 85.0038 95.7155 85.5024 95.8306L87.1771 96.1885C88.1061 96.3888 88.7965 96.7063 89.2482 97.1409C89.7041 97.5756 89.9342 98.1445 89.9385 98.8476C89.9342 99.4655 89.7531 100.011 89.3952 100.484C89.0415 100.953 88.5493 101.319 87.9186 101.583C87.2879 101.848 86.5635 101.98 85.7453 101.98C84.5436 101.98 83.5763 101.728 82.8433 101.225C82.1104 100.718 81.6736 100.013 81.533 99.1097L83.7894 98.8923C83.8916 99.3355 84.109 99.67 84.4413 99.8959C84.7737 100.122 85.2063 100.235 85.7389 100.235C86.2886 100.235 86.7297 100.122 87.0621 99.8959C87.3987 99.67 87.5671 99.3909 87.5671 99.0585C87.5671 98.7773 87.4584 98.545 87.2411 98.3618C87.028 98.1786 86.6956 98.0379 86.2439 97.9399L84.5692 97.5884C83.6274 97.3923 82.9307 97.0621 82.479 96.5976C82.0273 96.1289 81.8036 95.5365 81.8078 94.8206C81.8036 94.2155 81.9676 93.6914 82.3 93.2482C82.6367 92.8007 83.1033 92.4556 83.6999 92.2127C84.3007 91.9655 84.9932 91.8419 85.7773 91.8419C86.9279 91.8419 87.8334 92.0869 88.4939 92.577C89.1587 93.0671 89.5699 93.7297 89.7276 94.5649ZM93.8605 96.0351V101.788H91.5465V88.697H93.8093V93.6381H93.9244C94.1545 93.0841 94.5103 92.6473 94.9918 92.3277C95.4776 92.0039 96.0955 91.8419 96.8455 91.8419C97.5274 91.8419 98.1218 91.9847 98.6289 92.2702C99.136 92.5557 99.5281 92.9733 99.8051 93.523C100.087 94.0727 100.227 94.7439 100.227 95.5365V101.788H97.913V95.8945C97.913 95.234 97.7426 94.7205 97.4016 94.354C97.065 93.9833 96.592 93.7979 95.9826 93.7979C95.5735 93.7979 95.207 93.8874 94.8832 94.0664C94.5636 94.2411 94.3122 94.4946 94.1289 94.827C93.9499 95.1594 93.8605 95.5621 93.8605 96.0351ZM102.388 101.788V88.697H104.702V93.5933H104.798C104.917 93.3547 105.086 93.1012 105.303 92.8327C105.52 92.56 105.814 92.3277 106.185 92.136C106.556 91.9399 107.029 91.8419 107.604 91.8419C108.362 91.8419 109.046 92.0358 109.656 92.4236C110.269 92.8071 110.755 93.376 111.113 94.1303C111.475 94.8803 111.657 95.8007 111.657 96.8916C111.657 97.9698 111.48 98.886 111.126 99.6402C110.772 100.394 110.291 100.97 109.681 101.366C109.072 101.762 108.382 101.96 107.61 101.96C107.048 101.96 106.581 101.867 106.211 101.679C105.84 101.492 105.541 101.266 105.316 101.002C105.094 100.733 104.921 100.48 104.798 100.241H104.664V101.788H102.388ZM104.657 96.8789C104.657 97.5138 104.747 98.0699 104.926 98.5472C105.109 99.0244 105.371 99.3973 105.712 99.6658C106.057 99.93 106.475 100.062 106.965 100.062C107.476 100.062 107.904 99.9257 108.25 99.653C108.595 99.376 108.855 98.9989 109.029 98.5216C109.208 98.0401 109.298 97.4925 109.298 96.8789C109.298 96.2695 109.211 95.7283 109.036 95.2553C108.861 94.7823 108.601 94.4115 108.256 94.1431C107.911 93.8746 107.48 93.7404 106.965 93.7404C106.47 93.7404 106.051 93.8703 105.706 94.1303C105.36 94.3902 105.098 94.7546 104.919 95.2233C104.745 95.6921 104.657 96.2439 104.657 96.8789ZM117.606 101.98C116.648 101.98 115.817 101.769 115.113 101.347C114.41 100.925 113.865 100.335 113.477 99.5763C113.094 98.8178 112.902 97.9314 112.902 96.9172C112.902 95.903 113.094 95.0145 113.477 94.2517C113.865 93.4889 114.41 92.8966 115.113 92.4747C115.817 92.0529 116.648 91.8419 117.606 91.8419C118.565 91.8419 119.396 92.0529 120.099 92.4747C120.802 92.8966 121.346 93.4889 121.729 94.2517C122.117 95.0145 122.311 95.903 122.311 96.9172C122.311 97.9314 122.117 98.8178 121.729 99.5763C121.346 100.335 120.802 100.925 120.099 101.347C119.396 101.769 118.565 101.98 117.606 101.98ZM117.619 100.126C118.139 100.126 118.574 99.9833 118.923 99.6977C119.273 99.408 119.532 99.0202 119.703 98.5344C119.878 98.0486 119.965 97.5074 119.965 96.9108C119.965 96.31 119.878 95.7666 119.703 95.2808C119.532 94.7908 119.273 94.4009 118.923 94.1111C118.574 93.8213 118.139 93.6764 117.619 93.6764C117.086 93.6764 116.643 93.8213 116.29 94.1111C115.94 94.4009 115.678 94.7908 115.503 95.2808C115.333 95.7666 115.248 96.31 115.248 96.9108C115.248 97.5074 115.333 98.0486 115.503 98.5344C115.678 99.0202 115.94 99.408 116.29 99.6977C116.643 99.9833 117.086 100.126 117.619 100.126ZM126.8 101.986C126.178 101.986 125.618 101.875 125.119 101.654C124.625 101.428 124.233 101.095 123.943 100.656C123.657 100.218 123.515 99.6764 123.515 99.033C123.515 98.479 123.617 98.0209 123.821 97.6587C124.026 97.2965 124.305 97.0067 124.659 96.7894C125.012 96.572 125.411 96.408 125.854 96.2972C126.302 96.1821 126.764 96.099 127.241 96.0479C127.816 95.9882 128.283 95.935 128.641 95.8881C128.999 95.8369 129.259 95.7602 129.421 95.658C129.587 95.5514 129.67 95.3874 129.67 95.1658V95.1274C129.67 94.6459 129.527 94.273 129.242 94.0088C128.956 93.7446 128.545 93.6125 128.008 93.6125C127.441 93.6125 126.992 93.7361 126.66 93.9833C126.331 94.2304 126.11 94.5223 125.995 94.859L123.834 94.5521C124.005 93.9556 124.286 93.457 124.678 93.0564C125.07 92.6516 125.549 92.349 126.116 92.1487C126.683 91.9442 127.309 91.8419 127.995 91.8419C128.468 91.8419 128.939 91.8973 129.408 92.0081C129.877 92.1189 130.305 92.3021 130.693 92.5578C131.081 92.8092 131.392 93.1523 131.626 93.5869C131.865 94.0216 131.984 94.5649 131.984 95.2169V101.788H129.76V100.439H129.683C129.542 100.712 129.344 100.968 129.088 101.206C128.837 101.441 128.52 101.63 128.136 101.775C127.757 101.916 127.312 101.986 126.8 101.986ZM127.401 100.286C127.865 100.286 128.268 100.194 128.609 100.011C128.95 99.8235 129.212 99.5763 129.395 99.2695C129.583 98.9627 129.677 98.6281 129.677 98.2659V97.109C129.604 97.1686 129.481 97.224 129.306 97.2752C129.135 97.3263 128.944 97.371 128.731 97.4094C128.517 97.4477 128.307 97.4818 128.098 97.5117C127.889 97.5415 127.708 97.5671 127.554 97.5884C127.209 97.6352 126.9 97.7119 126.628 97.8185C126.355 97.925 126.14 98.0742 125.982 98.2659C125.824 98.4534 125.745 98.6963 125.745 98.9946C125.745 99.4208 125.901 99.7425 126.212 99.9598C126.523 100.177 126.919 100.286 127.401 100.286ZM134.011 101.788V91.9698H136.254V93.6061H136.357C136.536 93.0394 136.842 92.6026 137.277 92.2958C137.716 91.9847 138.217 91.8291 138.779 91.8291C138.907 91.8291 139.05 91.8355 139.208 91.8483C139.369 91.8568 139.504 91.8717 139.61 91.8931V94.0216C139.512 93.9875 139.357 93.9577 139.144 93.9321C138.935 93.9023 138.732 93.8874 138.536 93.8874C138.114 93.8874 137.735 93.979 137.399 94.1622C137.066 94.3412 136.804 94.5905 136.612 94.9101C136.421 95.2297 136.325 95.5983 136.325 96.0159V101.788H134.011ZM144.087 101.96C143.315 101.96 142.625 101.762 142.016 101.366C141.406 100.97 140.925 100.394 140.571 99.6402C140.217 98.886 140.041 97.9698 140.041 96.8916C140.041 95.8007 140.219 94.8803 140.577 94.1303C140.94 93.376 141.428 92.8071 142.041 92.4236C142.655 92.0358 143.339 91.8419 144.093 91.8419C144.668 91.8419 145.141 91.9399 145.512 92.136C145.883 92.3277 146.177 92.56 146.394 92.8327C146.612 93.1012 146.78 93.3547 146.899 93.5933H146.995V88.697H149.315V101.788H147.04V100.241H146.899C146.78 100.48 146.607 100.733 146.381 101.002C146.156 101.266 145.857 101.492 145.487 101.679C145.116 101.867 144.649 101.96 144.087 101.96ZM144.732 100.062C145.222 100.062 145.64 99.93 145.985 99.6658C146.33 99.3973 146.592 99.0244 146.771 98.5472C146.95 98.0699 147.04 97.5138 147.04 96.8789C147.04 96.2439 146.95 95.6921 146.771 95.2233C146.597 94.7546 146.337 94.3902 145.992 94.1303C145.651 93.8703 145.231 93.7404 144.732 93.7404C144.217 93.7404 143.786 93.8746 143.441 94.1431C143.096 94.4115 142.836 94.7823 142.661 95.2553C142.487 95.7283 142.399 96.2695 142.399 96.8789C142.399 97.4925 142.487 98.0401 142.661 98.5216C142.84 98.9989 143.102 99.376 143.447 99.653C143.797 99.9257 144.225 100.062 144.732 100.062Z" fill="#083C2F"/>
<path opacity="0.6" d="M512.5 110.288C533.487 110.288 550.5 93.2747 550.5 72.2878C550.5 51.301 533.487 34.2878 512.5 34.2878C491.513 34.2878 474.5 51.301 474.5 72.2878C474.5 93.2747 491.513 110.288 512.5 110.288Z" stroke="url(#paint4_linear_32_87)"/>
</g>
<path d="M61.2427 145L58.314 134.289H59.6319L61.8703 143.013H61.9749L64.2551 134.289H65.7194L67.9997 143.013H68.1043L70.3426 134.289H71.6606L68.7318 145H67.393L65.0291 136.465H64.9454L62.5815 145H61.2427Z" fill="#3C4A47"/>
<path d="M74.7253 145.188C74.2162 145.188 73.7542 145.092 73.3393 144.901C72.9244 144.705 72.595 144.425 72.3509 144.059C72.1068 143.689 71.9848 143.243 71.9848 142.72C71.9848 142.26 72.0755 141.887 72.2568 141.601C72.4381 141.311 72.6804 141.085 72.9837 140.921C73.287 140.757 73.6218 140.635 73.9878 140.555C74.3574 140.471 74.7287 140.405 75.1018 140.356C75.5899 140.293 75.9856 140.246 76.289 140.215C76.5958 140.18 76.8189 140.122 76.9584 140.042C77.1013 139.962 77.1728 139.822 77.1728 139.624V139.582C77.1728 139.066 77.0316 138.665 76.7492 138.379C76.4703 138.093 76.0467 137.95 75.4783 137.95C74.8891 137.95 74.4271 138.079 74.0924 138.337C73.7577 138.595 73.5224 138.871 73.3864 139.164L72.2149 138.745C72.4241 138.257 72.703 137.877 73.0517 137.605C73.4038 137.33 73.7874 137.138 74.2023 137.03C74.6207 136.918 75.0321 136.862 75.4365 136.862C75.6945 136.862 75.9909 136.894 76.3256 136.957C76.6638 137.016 76.9898 137.14 77.3036 137.328C77.6208 137.516 77.8841 137.8 78.0933 138.18C78.3025 138.56 78.4071 139.069 78.4071 139.707V145H77.1728V143.912H77.1101C77.0264 144.087 76.8869 144.273 76.6917 144.472C76.4964 144.671 76.2367 144.84 75.9124 144.979C75.5882 145.119 75.1925 145.188 74.7253 145.188ZM74.9135 144.08C75.4016 144.08 75.8131 143.984 76.1478 143.792C76.486 143.6 76.7405 143.353 76.9113 143.049C77.0857 142.746 77.1728 142.427 77.1728 142.092V140.963C77.1205 141.025 77.0055 141.083 76.8277 141.135C76.6533 141.184 76.4511 141.228 76.221 141.266C75.9944 141.301 75.773 141.332 75.5568 141.36C75.3441 141.384 75.1715 141.405 75.039 141.423C74.7183 141.465 74.4184 141.533 74.1395 141.627C73.8641 141.717 73.6409 141.855 73.4701 142.04C73.3027 142.221 73.2191 142.469 73.2191 142.783C73.2191 143.211 73.3777 143.536 73.695 143.755C74.0157 143.972 74.4219 144.08 74.9135 144.08Z" fill="#3C4A47"/>
<path d="M81.8941 134.289V145H80.6598V134.289H81.8941Z" fill="#3C4A47"/>
<path d="M85.3889 134.289V145H84.1547V134.289H85.3889Z" fill="#3C4A47"/>
<path d="M91.0176 145.167C90.2435 145.167 89.5759 144.997 89.0145 144.655C88.4567 144.31 88.0261 143.829 87.7227 143.211C87.4229 142.591 87.273 141.869 87.273 141.046C87.273 140.223 87.4229 139.498 87.7227 138.871C88.0261 138.24 88.448 137.748 88.9884 137.396C89.5323 137.04 90.1668 136.862 90.892 136.862C91.3104 136.862 91.7236 136.932 92.1315 137.072C92.5394 137.211 92.9108 137.438 93.2455 137.751C93.5802 138.062 93.8469 138.473 94.0456 138.986C94.2444 139.498 94.3437 140.129 94.3437 140.879V141.402H88.1516V140.335H93.0886C93.0886 139.882 92.9979 139.477 92.8166 139.122C92.6388 138.766 92.3843 138.485 92.0531 138.28C91.7253 138.074 91.3383 137.971 90.892 137.971C90.4004 137.971 89.9751 138.093 89.616 138.337C89.2603 138.578 88.9866 138.892 88.7949 139.279C88.6031 139.666 88.5072 140.08 88.5072 140.523V141.235C88.5072 141.841 88.6118 142.355 88.821 142.777C89.0337 143.196 89.3283 143.515 89.7049 143.734C90.0814 143.951 90.519 144.059 91.0176 144.059C91.3418 144.059 91.6347 144.013 91.8962 143.923C92.1612 143.829 92.3895 143.689 92.5813 143.504C92.773 143.316 92.9212 143.082 93.0258 142.804L94.2182 143.138C94.0927 143.543 93.8818 143.898 93.5854 144.205C93.2891 144.508 92.923 144.746 92.4871 144.916C92.0513 145.084 91.5615 145.167 91.0176 145.167Z" fill="#3C4A47"/>
<path d="M99.7148 136.967V138.013H95.5518V136.967H99.7148ZM96.7652 135.042H97.9994V142.699C97.9994 143.048 98.05 143.309 98.1511 143.483C98.2557 143.654 98.3882 143.769 98.5485 143.829C98.7124 143.884 98.885 143.912 99.0663 143.912C99.2023 143.912 99.3139 143.905 99.401 143.891C99.4882 143.874 99.5579 143.86 99.6102 143.849L99.8612 144.958C99.7776 144.99 99.6608 145.021 99.5108 145.052C99.3609 145.087 99.1709 145.105 98.9408 145.105C98.5921 145.105 98.2504 145.03 97.9157 144.88C97.5845 144.73 97.3091 144.501 97.0894 144.195C96.8733 143.888 96.7652 143.501 96.7652 143.034V135.042Z" fill="#3C4A47"/>
<path d="M105.881 145V134.289H109.625C110.372 134.289 110.987 134.418 111.472 134.676C111.956 134.931 112.317 135.274 112.554 135.707C112.791 136.135 112.91 136.611 112.91 137.134C112.91 137.595 112.828 137.975 112.664 138.274C112.504 138.574 112.291 138.811 112.026 138.986C111.764 139.16 111.48 139.289 111.173 139.373V139.477C111.501 139.498 111.831 139.613 112.162 139.822C112.493 140.032 112.77 140.332 112.993 140.722C113.217 141.113 113.328 141.59 113.328 142.155C113.328 142.692 113.206 143.175 112.962 143.604C112.718 144.033 112.333 144.372 111.806 144.624C111.28 144.875 110.595 145 109.751 145H105.881ZM107.178 143.849H109.751C110.598 143.849 111.2 143.686 111.555 143.358C111.914 143.027 112.094 142.626 112.094 142.155C112.094 141.792 112.001 141.458 111.817 141.151C111.632 140.841 111.369 140.593 111.027 140.408C110.685 140.22 110.281 140.126 109.814 140.126H107.178V143.849ZM107.178 138.996H109.584C109.974 138.996 110.326 138.919 110.64 138.766C110.957 138.613 111.208 138.396 111.393 138.118C111.581 137.839 111.675 137.511 111.675 137.134C111.675 136.664 111.512 136.264 111.184 135.937C110.856 135.605 110.337 135.44 109.625 135.44H107.178V138.996Z" fill="#3C4A47"/>
<path d="M117.656 145.188C117.147 145.188 116.685 145.092 116.27 144.901C115.855 144.705 115.526 144.425 115.281 144.059C115.037 143.689 114.915 143.243 114.915 142.72C114.915 142.26 115.006 141.887 115.187 141.601C115.369 141.311 115.611 141.085 115.914 140.921C116.218 140.757 116.552 140.635 116.918 140.555C117.288 140.471 117.659 140.405 118.032 140.356C118.52 140.293 118.916 140.246 119.22 140.215C119.526 140.18 119.75 140.122 119.889 140.042C120.032 139.962 120.103 139.822 120.103 139.624V139.582C120.103 139.066 119.962 138.665 119.68 138.379C119.401 138.093 118.977 137.95 118.409 137.95C117.82 137.95 117.358 138.079 117.023 138.337C116.688 138.595 116.453 138.871 116.317 139.164L115.145 138.745C115.355 138.257 115.634 137.877 115.982 137.605C116.334 137.33 116.718 137.138 117.133 137.03C117.551 136.918 117.963 136.862 118.367 136.862C118.625 136.862 118.921 136.894 119.256 136.957C119.594 137.016 119.92 137.14 120.234 137.328C120.551 137.516 120.815 137.8 121.024 138.18C121.233 138.56 121.338 139.069 121.338 139.707V145H120.103V143.912H120.041C119.957 144.087 119.818 144.273 119.622 144.472C119.427 144.671 119.167 144.84 118.843 144.979C118.519 145.119 118.123 145.188 117.656 145.188ZM117.844 144.08C118.332 144.08 118.744 143.984 119.078 143.792C119.417 143.6 119.671 143.353 119.842 143.049C120.016 142.746 120.103 142.427 120.103 142.092V140.963C120.051 141.025 119.936 141.083 119.758 141.135C119.584 141.184 119.382 141.228 119.152 141.266C118.925 141.301 118.704 141.332 118.487 141.36C118.275 141.384 118.102 141.405 117.97 141.423C117.649 141.465 117.349 141.533 117.07 141.627C116.795 141.717 116.572 141.855 116.401 142.04C116.233 142.221 116.15 142.469 116.15 142.783C116.15 143.211 116.308 143.536 116.626 143.755C116.946 143.972 117.352 144.08 117.844 144.08Z" fill="#3C4A47"/>
<path d="M124.825 134.289V145H123.59V134.289H124.825Z" fill="#3C4A47"/>
<path d="M129.449 145.188C128.94 145.188 128.478 145.092 128.063 144.901C127.648 144.705 127.319 144.425 127.075 144.059C126.831 143.689 126.709 143.243 126.709 142.72C126.709 142.26 126.799 141.887 126.981 141.601C127.162 141.311 127.404 141.085 127.708 140.921C128.011 140.757 128.346 140.635 128.712 140.555C129.081 140.471 129.453 140.405 129.826 140.356C130.314 140.293 130.71 140.246 131.013 140.215C131.32 140.18 131.543 140.122 131.682 140.042C131.825 139.962 131.897 139.822 131.897 139.624V139.582C131.897 139.066 131.756 138.665 131.473 138.379C131.194 138.093 130.771 137.95 130.202 137.95C129.613 137.95 129.151 138.079 128.816 138.337C128.482 138.595 128.246 138.871 128.11 139.164L126.939 138.745C127.148 138.257 127.427 137.877 127.776 137.605C128.128 137.33 128.511 137.138 128.926 137.03C129.345 136.918 129.756 136.862 130.16 136.862C130.418 136.862 130.715 136.894 131.049 136.957C131.388 137.016 131.714 137.14 132.027 137.328C132.345 137.516 132.608 137.8 132.817 138.18C133.026 138.56 133.131 139.069 133.131 139.707V145H131.897V143.912H131.834C131.75 144.087 131.611 144.273 131.416 144.472C131.22 144.671 130.961 144.84 130.636 144.979C130.312 145.119 129.916 145.188 129.449 145.188ZM129.637 144.08C130.126 144.08 130.537 143.984 130.872 143.792C131.21 143.6 131.464 143.353 131.635 143.049C131.81 142.746 131.897 142.427 131.897 142.092V140.963C131.844 141.025 131.729 141.083 131.552 141.135C131.377 141.184 131.175 141.228 130.945 141.266C130.718 141.301 130.497 141.332 130.281 141.36C130.068 141.384 129.895 141.405 129.763 141.423C129.442 141.465 129.142 141.533 128.863 141.627C128.588 141.717 128.365 141.855 128.194 142.04C128.027 142.221 127.943 142.469 127.943 142.783C127.943 143.211 128.102 143.536 128.419 143.755C128.74 143.972 129.146 144.08 129.637 144.08Z" fill="#3C4A47"/>
<path d="M136.618 140.168V145H135.384V136.967H136.576V138.222H136.681C136.869 137.814 137.155 137.486 137.538 137.239C137.922 136.988 138.417 136.862 139.024 136.862C139.568 136.862 140.044 136.974 140.451 137.197C140.859 137.417 141.177 137.751 141.403 138.201C141.63 138.648 141.743 139.212 141.743 139.896V145H140.509V139.979C140.509 139.348 140.345 138.857 140.017 138.505C139.69 138.149 139.24 137.971 138.668 137.971C138.274 137.971 137.922 138.057 137.612 138.227C137.305 138.398 137.063 138.648 136.885 138.975C136.707 139.303 136.618 139.7 136.618 140.168Z" fill="#3C4A47"/>
<path d="M147.262 145.167C146.509 145.167 145.86 144.99 145.317 144.634C144.773 144.278 144.354 143.788 144.061 143.164C143.768 142.54 143.622 141.827 143.622 141.025C143.622 140.21 143.772 139.49 144.072 138.865C144.375 138.238 144.797 137.748 145.337 137.396C145.881 137.04 146.516 136.862 147.241 136.862C147.806 136.862 148.315 136.967 148.768 137.176C149.221 137.385 149.593 137.678 149.882 138.055C150.172 138.431 150.351 138.871 150.421 139.373H149.187C149.092 139.007 148.883 138.682 148.559 138.4C148.238 138.114 147.806 137.971 147.262 137.971C146.781 137.971 146.359 138.097 145.996 138.348C145.637 138.595 145.357 138.946 145.154 139.399C144.956 139.849 144.856 140.377 144.856 140.984C144.856 141.604 144.954 142.145 145.149 142.605C145.348 143.065 145.627 143.422 145.986 143.677C146.349 143.931 146.774 144.059 147.262 144.059C147.583 144.059 147.874 144.003 148.135 143.891C148.397 143.78 148.618 143.619 148.8 143.41C148.981 143.201 149.11 142.95 149.187 142.657H150.421C150.351 143.131 150.179 143.558 149.903 143.938C149.631 144.315 149.27 144.615 148.821 144.838C148.374 145.058 147.855 145.167 147.262 145.167Z" fill="#3C4A47"/>
<path d="M155.593 145.167C154.819 145.167 154.152 144.997 153.59 144.655C153.032 144.31 152.602 143.829 152.298 143.211C151.999 142.591 151.849 141.869 151.849 141.046C151.849 140.223 151.999 139.498 152.298 138.871C152.602 138.24 153.024 137.748 153.564 137.396C154.108 137.04 154.742 136.862 155.468 136.862C155.886 136.862 156.299 136.932 156.707 137.072C157.115 137.211 157.486 137.438 157.821 137.751C158.156 138.062 158.423 138.473 158.621 138.986C158.82 139.498 158.919 140.129 158.919 140.879V141.402H152.727V140.335H157.664C157.664 139.882 157.574 139.477 157.392 139.122C157.214 138.766 156.96 138.485 156.629 138.28C156.301 138.074 155.914 137.971 155.468 137.971C154.976 137.971 154.551 138.093 154.192 138.337C153.836 138.578 153.562 138.892 153.371 139.279C153.179 139.666 153.083 140.08 153.083 140.523V141.235C153.083 141.841 153.187 142.355 153.397 142.777C153.609 143.196 153.904 143.515 154.281 143.734C154.657 143.951 155.095 144.059 155.593 144.059C155.917 144.059 156.21 144.013 156.472 143.923C156.737 143.829 156.965 143.689 157.157 143.504C157.349 143.316 157.497 143.082 157.601 142.804L158.794 143.138C158.668 143.543 158.457 143.898 158.161 144.205C157.865 144.508 157.499 144.746 157.063 144.916C156.627 145.084 156.137 145.167 155.593 145.167Z" fill="#3C4A47"/>
<path d="M223.297 145V134.289H226.916C227.753 134.289 228.44 134.432 228.977 134.718C229.514 135.001 229.911 135.389 230.169 135.884C230.427 136.38 230.556 136.943 230.556 137.574C230.556 138.205 230.427 138.764 230.169 139.252C229.911 139.741 229.515 140.124 228.982 140.403C228.449 140.678 227.767 140.816 226.937 140.816H224.008V139.645H226.895C227.467 139.645 227.927 139.561 228.276 139.394C228.628 139.226 228.883 138.989 229.04 138.682C229.2 138.372 229.28 138.003 229.28 137.574C229.28 137.145 229.2 136.77 229.04 136.449C228.879 136.128 228.623 135.881 228.271 135.707C227.919 135.529 227.453 135.44 226.874 135.44H224.594V145H223.297ZM228.339 140.189L230.975 145H229.468L226.874 140.189H228.339Z" fill="#3C4A47"/>
<path d="M235.832 145.167C235.058 145.167 234.39 144.997 233.829 144.655C233.271 144.31 232.84 143.829 232.537 143.211C232.237 142.591 232.087 141.869 232.087 141.046C232.087 140.223 232.237 139.498 232.537 138.871C232.84 138.24 233.262 137.748 233.803 137.396C234.347 137.04 234.981 136.862 235.706 136.862C236.125 136.862 236.538 136.932 236.946 137.072C237.354 137.211 237.725 137.438 238.06 137.751C238.394 138.062 238.661 138.473 238.86 138.986C239.059 139.498 239.158 140.129 239.158 140.879V141.402H232.966V140.335H237.903C237.903 139.882 237.812 139.477 237.631 139.122C237.453 138.766 237.199 138.485 236.867 138.28C236.54 138.074 236.153 137.971 235.706 137.971C235.215 137.971 234.789 138.093 234.43 138.337C234.075 138.578 233.801 138.892 233.609 139.279C233.417 139.666 233.322 140.08 233.322 140.523V141.235C233.322 141.841 233.426 142.355 233.635 142.777C233.848 143.196 234.143 143.515 234.519 143.734C234.896 143.951 235.333 144.059 235.832 144.059C236.156 144.059 236.449 144.013 236.71 143.923C236.975 143.829 237.204 143.689 237.396 143.504C237.587 143.316 237.736 143.082 237.84 142.804L239.033 143.138C238.907 143.543 238.696 143.898 238.4 144.205C238.103 144.508 237.737 144.746 237.301 144.916C236.866 145.084 236.376 145.167 235.832 145.167Z" fill="#3C4A47"/>
<path d="M244.529 136.967V138.013H240.366V136.967H244.529ZM241.579 135.042H242.814V142.699C242.814 143.048 242.864 143.309 242.965 143.483C243.07 143.654 243.202 143.769 243.363 143.829C243.527 143.884 243.699 143.912 243.881 143.912C244.017 143.912 244.128 143.905 244.215 143.891C244.302 143.874 244.372 143.86 244.424 143.849L244.676 144.958C244.592 144.99 244.475 145.021 244.325 145.052C244.175 145.087 243.985 145.105 243.755 145.105C243.406 145.105 243.065 145.03 242.73 144.88C242.399 144.73 242.123 144.501 241.904 144.195C241.688 143.888 241.579 143.501 241.579 143.034V135.042Z" fill="#3C4A47"/>
<path d="M251.448 141.716V136.967H252.682V145H251.448V143.64H251.365C251.176 144.048 250.883 144.395 250.486 144.681C250.088 144.963 249.586 145.105 248.98 145.105C248.478 145.105 248.031 144.995 247.641 144.775C247.25 144.552 246.944 144.217 246.72 143.771C246.497 143.321 246.386 142.755 246.386 142.071V136.967H247.62V141.988C247.62 142.573 247.784 143.041 248.112 143.389C248.443 143.738 248.865 143.912 249.377 143.912C249.684 143.912 249.996 143.834 250.313 143.677C250.634 143.52 250.903 143.279 251.119 142.955C251.338 142.631 251.448 142.218 251.448 141.716Z" fill="#3C4A47"/>
<path d="M254.943 145V136.967H256.135V138.18H256.219C256.366 137.783 256.631 137.46 257.014 137.213C257.398 136.965 257.83 136.841 258.311 136.841C258.402 136.841 258.515 136.843 258.651 136.847C258.787 136.85 258.89 136.855 258.96 136.862V138.118C258.918 138.107 258.822 138.091 258.672 138.07C258.525 138.046 258.37 138.034 258.206 138.034C257.816 138.034 257.467 138.116 257.16 138.28C256.857 138.44 256.617 138.663 256.439 138.949C256.264 139.232 256.177 139.554 256.177 139.917V145H254.943Z" fill="#3C4A47"/>
<path d="M261.657 140.168V145H260.423V136.967H261.615V138.222H261.72C261.908 137.814 262.194 137.486 262.577 137.239C262.961 136.988 263.456 136.862 264.063 136.862C264.606 136.862 265.082 136.974 265.49 137.197C265.898 137.417 266.216 137.751 266.442 138.201C266.669 138.648 266.782 139.212 266.782 139.896V145H265.548V139.979C265.548 139.348 265.384 138.857 265.056 138.505C264.729 138.149 264.279 137.971 263.707 137.971C263.313 137.971 262.961 138.057 262.651 138.227C262.344 138.398 262.101 138.648 261.924 138.975C261.746 139.303 261.657 139.7 261.657 140.168Z" fill="#3C4A47"/>
<path d="M274.728 138.766L273.619 139.08C273.549 138.895 273.446 138.716 273.31 138.541C273.178 138.363 272.997 138.217 272.766 138.102C272.536 137.987 272.242 137.929 271.883 137.929C271.391 137.929 270.981 138.043 270.654 138.269C270.329 138.492 270.167 138.777 270.167 139.122C270.167 139.429 270.279 139.671 270.502 139.849C270.725 140.026 271.074 140.175 271.548 140.293L272.74 140.586C273.458 140.76 273.994 141.027 274.346 141.386C274.698 141.742 274.874 142.2 274.874 142.762C274.874 143.222 274.742 143.633 274.477 143.996C274.215 144.359 273.849 144.644 273.378 144.854C272.908 145.063 272.36 145.167 271.736 145.167C270.917 145.167 270.239 144.99 269.702 144.634C269.165 144.278 268.825 143.759 268.682 143.075L269.853 142.783C269.965 143.215 270.176 143.539 270.486 143.755C270.8 143.972 271.21 144.08 271.715 144.08C272.29 144.08 272.747 143.958 273.085 143.714C273.427 143.466 273.598 143.17 273.598 142.824C273.598 142.546 273.5 142.312 273.305 142.124C273.11 141.932 272.81 141.789 272.406 141.695L271.067 141.381C270.331 141.207 269.791 140.936 269.445 140.57C269.104 140.201 268.933 139.739 268.933 139.184C268.933 138.731 269.06 138.33 269.315 137.982C269.573 137.633 269.923 137.359 270.366 137.16C270.812 136.962 271.318 136.862 271.883 136.862C272.677 136.862 273.302 137.037 273.755 137.385C274.212 137.734 274.536 138.194 274.728 138.766Z" fill="#3C4A47"/>
<path d="M63.4532 174.711V157.603H64.5491V174.711H63.4532ZM67.142 162.736C67.0618 162.058 66.7366 161.533 66.1663 161.158C65.5961 160.784 64.8966 160.597 64.068 160.597C63.4621 160.597 62.9319 160.695 62.4775 160.891C62.0275 161.087 61.6756 161.357 61.4217 161.7C61.1722 162.043 61.0474 162.433 61.0474 162.869C61.0474 163.235 61.1343 163.549 61.3081 163.811C61.4863 164.07 61.7135 164.286 61.9897 164.46C62.2659 164.629 62.5555 164.769 62.8584 164.881C63.1614 164.988 63.4398 165.074 63.6937 165.141L65.0837 165.516C65.4401 165.609 65.8366 165.738 66.2732 165.903C66.7143 166.068 67.1353 166.293 67.5362 166.578C67.9416 166.859 68.2758 167.22 68.5386 167.661C68.8015 168.102 68.9329 168.643 68.9329 169.285C68.9329 170.024 68.7391 170.692 68.3515 171.289C67.9684 171.886 67.407 172.361 66.6675 172.713C65.9324 173.065 65.0392 173.241 63.9878 173.241C63.0077 173.241 62.159 173.082 61.4417 172.766C60.7289 172.45 60.1676 172.009 59.7577 171.443C59.3523 170.877 59.1228 170.22 59.0694 169.472H60.7801C60.8247 169.988 60.9984 170.416 61.3014 170.755C61.6088 171.089 61.9964 171.338 62.4641 171.503C62.9364 171.664 63.4443 171.744 63.9878 171.744C64.6204 171.744 65.1884 171.641 65.6918 171.436C66.1953 171.227 66.594 170.937 66.888 170.568C67.1821 170.193 67.3291 169.757 67.3291 169.258C67.3291 168.803 67.2021 168.434 66.9482 168.148C66.6942 167.863 66.3601 167.632 65.9458 167.453C65.5315 167.275 65.0837 167.119 64.6026 166.986L62.9186 166.505C61.8493 166.197 61.0029 165.758 60.3792 165.188C59.7555 164.618 59.4436 163.872 59.4436 162.949C59.4436 162.183 59.6508 161.515 60.0651 160.945C60.4839 160.37 61.0452 159.924 61.7491 159.608C62.4575 159.287 63.2482 159.127 64.1214 159.127C65.0035 159.127 65.7876 159.285 66.4737 159.601C67.1598 159.913 67.7033 160.341 68.1043 160.885C68.5097 161.428 68.7235 162.045 68.7458 162.736H67.142Z" fill="#083C2F"/>
<path d="M71.4171 173V171.797L75.9346 166.852C76.4647 166.273 76.9013 165.769 77.2444 165.342C77.5874 164.91 77.8413 164.504 78.0062 164.126C78.1755 163.742 78.2601 163.341 78.2601 162.923C78.2601 162.442 78.1443 162.025 77.9126 161.673C77.6854 161.321 77.3736 161.049 76.9771 160.858C76.5806 160.666 76.1351 160.57 75.6405 160.57C75.1149 160.57 74.656 160.68 74.2639 160.898C73.8763 161.112 73.5756 161.412 73.3618 161.8C73.1524 162.188 73.0477 162.642 73.0477 163.163H71.4706C71.4706 162.361 71.6555 161.657 72.0253 161.052C72.395 160.446 72.8985 159.973 73.5355 159.635C74.1771 159.296 74.8966 159.127 75.694 159.127C76.4959 159.127 77.2065 159.296 77.8258 159.635C78.445 159.973 78.9306 160.43 79.2826 161.005C79.6345 161.58 79.8105 162.219 79.8105 162.923C79.8105 163.426 79.7192 163.918 79.5365 164.4C79.3583 164.876 79.0464 165.409 78.6009 165.997C78.1599 166.58 77.5473 167.293 76.7632 168.135L73.6892 171.423V171.53H80.0511V173H71.4171Z" fill="#083C2F"/>
<path d="M85.19 171.129L85.0831 171.851C85.0073 172.359 84.8915 172.902 84.7356 173.481C84.5841 174.06 84.4259 174.606 84.2611 175.118C84.0963 175.631 83.9604 176.038 83.8535 176.341H82.6506C82.7085 176.056 82.7842 175.68 82.8778 175.212C82.9714 174.744 83.0649 174.221 83.1585 173.642C83.2565 173.067 83.3367 172.479 83.399 171.877L83.4792 171.129H85.19Z" fill="#083C2F"/>
<path d="M87.7644 170.193V168.83L93.7788 159.314H94.7678V161.426H94.0995L89.5554 168.616V168.723H97.6547V170.193H87.7644ZM94.2065 173V159.314H95.7836V173H94.2065Z" fill="#083C2F"/>
<path d="M104.436 173.187C103.652 173.187 102.946 173.031 102.317 172.719C101.689 172.408 101.186 171.98 100.807 171.436C100.429 170.893 100.221 170.274 100.186 169.579H101.79C101.852 170.198 102.133 170.71 102.632 171.116C103.135 171.517 103.736 171.717 104.436 171.717C104.997 171.717 105.496 171.586 105.933 171.323C106.374 171.06 106.719 170.699 106.969 170.24C107.222 169.777 107.349 169.253 107.349 168.67C107.349 168.073 107.218 167.54 106.955 167.073C106.697 166.6 106.34 166.228 105.886 165.957C105.432 165.685 104.913 165.547 104.329 165.542C103.91 165.538 103.48 165.602 103.039 165.736C102.598 165.865 102.235 166.032 101.95 166.237L100.4 166.05L101.228 159.314H108.338V160.784H102.618L102.137 164.821H102.217C102.498 164.598 102.85 164.413 103.273 164.266C103.696 164.119 104.137 164.045 104.596 164.045C105.434 164.045 106.18 164.246 106.835 164.647C107.494 165.043 108.011 165.587 108.385 166.277C108.764 166.968 108.953 167.756 108.953 168.643C108.953 169.516 108.757 170.296 108.365 170.982C107.978 171.664 107.443 172.203 106.761 172.599C106.08 172.991 105.305 173.187 104.436 173.187Z" fill="#083C2F"/>
<path d="M116.232 173.187C115.35 173.187 114.564 173.036 113.873 172.733C113.187 172.43 112.642 172.009 112.236 171.47C111.835 170.926 111.617 170.296 111.581 169.579H113.265C113.301 170.02 113.452 170.401 113.72 170.721C113.987 171.038 114.337 171.283 114.769 171.456C115.201 171.63 115.68 171.717 116.206 171.717C116.794 171.717 117.315 171.615 117.769 171.41C118.224 171.205 118.58 170.92 118.839 170.554C119.097 170.189 119.226 169.766 119.226 169.285C119.226 168.781 119.101 168.338 118.852 167.955C118.602 167.567 118.237 167.264 117.756 167.046C117.275 166.828 116.687 166.718 115.992 166.718H114.896V165.248H115.992C116.535 165.248 117.012 165.15 117.422 164.954C117.836 164.758 118.159 164.482 118.391 164.126C118.627 163.769 118.745 163.35 118.745 162.869C118.745 162.406 118.642 162.003 118.438 161.66C118.233 161.317 117.943 161.049 117.569 160.858C117.199 160.666 116.762 160.57 116.259 160.57C115.787 160.57 115.341 160.657 114.923 160.831C114.508 161 114.17 161.248 113.907 161.573C113.644 161.894 113.501 162.281 113.479 162.736H111.875C111.902 162.018 112.118 161.39 112.523 160.851C112.929 160.308 113.459 159.884 114.114 159.581C114.773 159.278 115.497 159.127 116.286 159.127C117.132 159.127 117.858 159.299 118.464 159.642C119.07 159.98 119.536 160.428 119.861 160.985C120.186 161.542 120.349 162.143 120.349 162.789C120.349 163.56 120.146 164.217 119.741 164.76C119.34 165.304 118.794 165.68 118.103 165.89V165.997C118.968 166.139 119.643 166.507 120.128 167.099C120.614 167.687 120.857 168.416 120.857 169.285C120.857 170.029 120.654 170.697 120.249 171.289C119.848 171.877 119.3 172.341 118.605 172.679C117.91 173.018 117.119 173.187 116.232 173.187Z" fill="#083C2F"/>
<path d="M125.546 171.129L125.439 171.851C125.363 172.359 125.248 172.902 125.092 173.481C124.94 174.06 124.782 174.606 124.617 175.118C124.452 175.631 124.317 176.038 124.21 176.341H123.007C123.065 176.056 123.14 175.68 123.234 175.212C123.328 174.744 123.421 174.221 123.515 173.642C123.613 173.067 123.693 172.479 123.755 171.877L123.835 171.129H125.546Z" fill="#083C2F"/>
<path d="M132.551 173.187C131.669 173.187 130.883 173.036 130.192 172.733C129.506 172.43 128.96 172.009 128.555 171.47C128.154 170.926 127.936 170.296 127.9 169.579H129.584C129.62 170.02 129.771 170.401 130.039 170.721C130.306 171.038 130.656 171.283 131.088 171.456C131.52 171.63 131.999 171.717 132.524 171.717C133.113 171.717 133.634 171.615 134.088 171.41C134.543 171.205 134.899 170.92 135.157 170.554C135.416 170.189 135.545 169.766 135.545 169.285C135.545 168.781 135.42 168.338 135.171 167.955C134.921 167.567 134.556 167.264 134.075 167.046C133.594 166.828 133.006 166.718 132.311 166.718H131.215V165.248H132.311C132.854 165.248 133.331 165.15 133.741 164.954C134.155 164.758 134.478 164.482 134.71 164.126C134.946 163.769 135.064 163.35 135.064 162.869C135.064 162.406 134.961 162.003 134.756 161.66C134.551 161.317 134.262 161.049 133.888 160.858C133.518 160.666 133.081 160.57 132.578 160.57C132.106 160.57 131.66 160.657 131.241 160.831C130.827 161 130.488 161.248 130.226 161.573C129.963 161.894 129.82 162.281 129.798 162.736H128.194C128.221 162.018 128.437 161.39 128.842 160.851C129.248 160.308 129.778 159.884 130.433 159.581C131.092 159.278 131.816 159.127 132.605 159.127C133.451 159.127 134.177 159.299 134.783 159.642C135.389 159.98 135.855 160.428 136.18 160.985C136.505 161.542 136.668 162.143 136.668 162.789C136.668 163.56 136.465 164.217 136.06 164.76C135.659 165.304 135.113 165.68 134.422 165.89V165.997C135.287 166.139 135.962 166.507 136.447 167.099C136.933 167.687 137.176 168.416 137.176 169.285C137.176 170.029 136.973 170.697 136.567 171.289C136.166 171.877 135.618 172.341 134.924 172.679C134.229 173.018 133.438 173.187 132.551 173.187Z" fill="#083C2F"/>
<path d="M144.186 173.187C143.401 173.187 142.695 173.031 142.067 172.719C141.439 172.408 140.936 171.98 140.557 171.436C140.178 170.893 139.971 170.274 139.935 169.579H141.539C141.602 170.198 141.882 170.71 142.381 171.116C142.885 171.517 143.486 171.717 144.186 171.717C144.747 171.717 145.246 171.586 145.682 171.323C146.124 171.06 146.469 170.699 146.718 170.24C146.972 169.777 147.099 169.253 147.099 168.67C147.099 168.073 146.968 167.54 146.705 167.073C146.447 166.6 146.09 166.228 145.636 165.957C145.181 165.685 144.662 165.547 144.079 165.542C143.66 165.538 143.23 165.602 142.789 165.736C142.348 165.865 141.985 166.032 141.7 166.237L140.149 166.05L140.978 159.314H148.088V160.784H142.368L141.887 164.821H141.967C142.248 164.598 142.6 164.413 143.023 164.266C143.446 164.119 143.887 164.045 144.346 164.045C145.184 164.045 145.93 164.246 146.585 164.647C147.244 165.043 147.761 165.587 148.135 166.277C148.514 166.968 148.703 167.756 148.703 168.643C148.703 169.516 148.507 170.296 148.115 170.982C147.727 171.664 147.193 172.203 146.511 172.599C145.829 172.991 145.054 173.187 144.186 173.187Z" fill="#083C2F"/>
<path d="M155.902 173.187C155.34 173.178 154.779 173.071 154.218 172.866C153.656 172.661 153.144 172.316 152.681 171.831C152.217 171.341 151.846 170.679 151.565 169.846C151.284 169.008 151.144 167.957 151.144 166.692C151.144 165.48 151.257 164.406 151.485 163.471C151.712 162.531 152.042 161.74 152.474 161.098C152.906 160.452 153.427 159.962 154.037 159.628C154.652 159.294 155.345 159.127 156.116 159.127C156.882 159.127 157.564 159.281 158.161 159.588C158.762 159.891 159.252 160.314 159.631 160.858C160.009 161.401 160.254 162.027 160.366 162.736H158.735C158.584 162.121 158.29 161.611 157.853 161.205C157.417 160.8 156.837 160.597 156.116 160.597C155.055 160.597 154.22 161.058 153.61 161.98C153.004 162.903 152.699 164.197 152.694 165.863H152.801C153.051 165.484 153.347 165.161 153.69 164.894C154.037 164.622 154.421 164.413 154.839 164.266C155.258 164.119 155.701 164.045 156.169 164.045C156.953 164.045 157.67 164.241 158.321 164.633C158.971 165.021 159.493 165.558 159.885 166.244C160.277 166.926 160.473 167.707 160.473 168.59C160.473 169.436 160.283 170.211 159.905 170.915C159.526 171.615 158.994 172.171 158.308 172.586C157.626 172.996 156.824 173.196 155.902 173.187ZM155.902 171.717C156.463 171.717 156.967 171.577 157.412 171.296C157.862 171.015 158.216 170.639 158.475 170.167C158.737 169.694 158.869 169.169 158.869 168.59C158.869 168.024 158.742 167.509 158.488 167.046C158.239 166.578 157.893 166.206 157.452 165.93C157.016 165.654 156.517 165.516 155.955 165.516C155.532 165.516 155.138 165.6 154.772 165.769C154.407 165.934 154.086 166.162 153.81 166.451C153.538 166.741 153.325 167.073 153.169 167.447C153.013 167.817 152.935 168.206 152.935 168.616C152.935 169.16 153.062 169.668 153.316 170.14C153.574 170.612 153.926 170.993 154.372 171.283C154.821 171.572 155.332 171.717 155.902 171.717Z" fill="#083C2F"/>
<path d="M163.634 173.107C163.304 173.107 163.021 172.989 162.785 172.753C162.549 172.517 162.431 172.234 162.431 171.904C162.431 171.574 162.549 171.292 162.785 171.055C163.021 170.819 163.304 170.701 163.634 170.701C163.963 170.701 164.246 170.819 164.482 171.055C164.718 171.292 164.836 171.574 164.836 171.904C164.836 172.122 164.781 172.323 164.669 172.506C164.562 172.688 164.418 172.835 164.235 172.947C164.057 173.054 163.856 173.107 163.634 173.107Z" fill="#083C2F"/>
<path d="M171.626 173.187C170.619 173.187 169.762 172.913 169.053 172.365C168.345 171.813 167.804 171.013 167.429 169.966C167.055 168.915 166.868 167.645 166.868 166.157C166.868 164.678 167.055 163.415 167.429 162.368C167.808 161.317 168.352 160.515 169.06 159.962C169.773 159.405 170.628 159.127 171.626 159.127C172.624 159.127 173.477 159.405 174.185 159.962C174.898 160.515 175.442 161.317 175.816 162.368C176.195 163.415 176.384 164.678 176.384 166.157C176.384 167.645 176.197 168.915 175.823 169.966C175.448 171.013 174.907 171.813 174.199 172.365C173.49 172.913 172.633 173.187 171.626 173.187ZM171.626 171.717C172.624 171.717 173.399 171.236 173.952 170.274C174.504 169.311 174.78 167.939 174.78 166.157C174.78 164.972 174.653 163.963 174.399 163.13C174.15 162.297 173.789 161.662 173.317 161.225C172.849 160.789 172.285 160.57 171.626 160.57C170.637 160.57 169.864 161.058 169.307 162.034C168.75 163.005 168.472 164.38 168.472 166.157C168.472 167.342 168.597 168.349 168.846 169.178C169.095 170.006 169.454 170.637 169.922 171.069C170.394 171.501 170.962 171.717 171.626 171.717Z" fill="#083C2F"/>
<path d="M183.387 173.187C182.38 173.187 181.523 172.913 180.815 172.365C180.106 171.813 179.565 171.013 179.191 169.966C178.816 168.915 178.629 167.645 178.629 166.157C178.629 164.678 178.816 163.415 179.191 162.368C179.569 161.317 180.113 160.515 180.821 159.962C181.534 159.405 182.389 159.127 183.387 159.127C184.385 159.127 185.238 159.405 185.947 159.962C186.66 160.515 187.203 161.317 187.577 162.368C187.956 163.415 188.145 164.678 188.145 166.157C188.145 167.645 187.958 168.915 187.584 169.966C187.21 171.013 186.668 171.813 185.96 172.365C185.252 172.913 184.394 173.187 183.387 173.187ZM183.387 171.717C184.385 171.717 185.16 171.236 185.713 170.274C186.265 169.311 186.542 167.939 186.542 166.157C186.542 164.972 186.415 163.963 186.161 163.13C185.911 162.297 185.55 161.662 185.078 161.225C184.61 160.789 184.047 160.57 183.387 160.57C182.398 160.57 181.625 161.058 181.068 162.034C180.512 163.005 180.233 164.38 180.233 166.157C180.233 167.342 180.358 168.349 180.607 169.178C180.857 170.006 181.215 170.637 181.683 171.069C182.156 171.501 182.724 171.717 183.387 171.717Z" fill="#083C2F"/>
<path d="M227.453 174.711V157.603H228.549V174.711H227.453ZM231.142 162.736C231.062 162.058 230.737 161.533 230.166 161.158C229.596 160.784 228.897 160.597 228.068 160.597C227.462 160.597 226.932 160.695 226.478 160.891C226.028 161.087 225.676 161.357 225.422 161.7C225.172 162.043 225.047 162.433 225.047 162.869C225.047 163.235 225.134 163.549 225.308 163.811C225.486 164.07 225.713 164.286 225.99 164.46C226.266 164.629 226.555 164.769 226.858 164.881C227.161 164.988 227.44 165.074 227.694 165.141L229.084 165.516C229.44 165.609 229.837 165.738 230.273 165.903C230.714 166.068 231.135 166.293 231.536 166.578C231.942 166.859 232.276 167.22 232.539 167.661C232.801 168.102 232.933 168.643 232.933 169.285C232.933 170.024 232.739 170.692 232.352 171.289C231.968 171.886 231.407 172.361 230.667 172.713C229.932 173.065 229.039 173.241 227.988 173.241C227.008 173.241 226.159 173.082 225.442 172.766C224.729 172.45 224.168 172.009 223.758 171.443C223.352 170.877 223.123 170.22 223.069 169.472H224.78C224.825 169.988 224.998 170.416 225.301 170.755C225.609 171.089 225.996 171.338 226.464 171.503C226.936 171.664 227.444 171.744 227.988 171.744C228.62 171.744 229.188 171.641 229.692 171.436C230.195 171.227 230.594 170.937 230.888 170.568C231.182 170.193 231.329 169.757 231.329 169.258C231.329 168.803 231.202 168.434 230.948 168.148C230.694 167.863 230.36 167.632 229.946 167.453C229.531 167.275 229.084 167.119 228.603 166.986L226.919 166.505C225.849 166.197 225.003 165.758 224.379 165.188C223.755 164.618 223.444 163.872 223.444 162.949C223.444 162.183 223.651 161.515 224.065 160.945C224.484 160.37 225.045 159.924 225.749 159.608C226.457 159.287 227.248 159.127 228.121 159.127C229.004 159.127 229.788 159.285 230.474 159.601C231.16 159.913 231.703 160.341 232.104 160.885C232.51 161.428 232.724 162.045 232.746 162.736H231.142Z" fill="#083C2F"/>
<path d="M235.096 170.193V168.83L241.111 159.314H242.1V161.426H241.431L236.887 168.616V168.723H244.987V170.193H235.096ZM241.538 173V159.314H243.115V173H241.538Z" fill="#083C2F"/>
<path d="M251.768 173.187C250.984 173.187 250.278 173.031 249.649 172.719C249.021 172.408 248.518 171.98 248.139 171.436C247.76 170.893 247.553 170.274 247.518 169.579H249.121C249.184 170.198 249.465 170.71 249.963 171.116C250.467 171.517 251.068 171.717 251.768 171.717C252.329 171.717 252.828 171.586 253.265 171.323C253.706 171.06 254.051 170.699 254.3 170.24C254.554 169.777 254.681 169.253 254.681 168.67C254.681 168.073 254.55 167.54 254.287 167.073C254.029 166.6 253.672 166.228 253.218 165.957C252.763 165.685 252.244 165.547 251.661 165.542C251.242 165.538 250.812 165.602 250.371 165.736C249.93 165.865 249.567 166.032 249.282 166.237L247.731 166.05L248.56 159.314H255.67V160.784H249.95L249.469 164.821H249.549C249.83 164.598 250.182 164.413 250.605 164.266C251.028 164.119 251.469 164.045 251.928 164.045C252.766 164.045 253.512 164.246 254.167 164.647C254.826 165.043 255.343 165.587 255.717 166.277C256.096 166.968 256.285 167.756 256.285 168.643C256.285 169.516 256.089 170.296 255.697 170.982C255.31 171.664 254.775 172.203 254.093 172.599C253.412 172.991 252.637 173.187 251.768 173.187Z" fill="#083C2F"/>
<path d="M263.564 173.187C262.682 173.187 261.896 173.036 261.205 172.733C260.519 172.43 259.973 172.009 259.568 171.47C259.167 170.926 258.949 170.296 258.913 169.579H260.597C260.633 170.02 260.784 170.401 261.052 170.721C261.319 171.038 261.669 171.283 262.101 171.456C262.533 171.63 263.012 171.717 263.538 171.717C264.126 171.717 264.647 171.615 265.101 171.41C265.556 171.205 265.912 170.92 266.17 170.554C266.429 170.189 266.558 169.766 266.558 169.285C266.558 168.781 266.433 168.338 266.184 167.955C265.934 167.567 265.569 167.264 265.088 167.046C264.607 166.828 264.019 166.718 263.324 166.718H262.228V165.248H263.324C263.867 165.248 264.344 165.15 264.754 164.954C265.168 164.758 265.491 164.482 265.723 164.126C265.959 163.769 266.077 163.35 266.077 162.869C266.077 162.406 265.974 162.003 265.769 161.66C265.565 161.317 265.275 161.049 264.901 160.858C264.531 160.666 264.094 160.57 263.591 160.57C263.119 160.57 262.673 160.657 262.254 160.831C261.84 161 261.502 161.248 261.239 161.573C260.976 161.894 260.833 162.281 260.811 162.736H259.207C259.234 162.018 259.45 161.39 259.855 160.851C260.261 160.308 260.791 159.884 261.446 159.581C262.105 159.278 262.829 159.127 263.618 159.127C264.464 159.127 265.19 159.299 265.796 159.642C266.402 159.98 266.868 160.428 267.193 160.985C267.518 161.542 267.681 162.143 267.681 162.789C267.681 163.56 267.478 164.217 267.073 164.76C266.672 165.304 266.126 165.68 265.435 165.89V165.997C266.3 166.139 266.975 166.507 267.46 167.099C267.946 167.687 268.189 168.416 268.189 169.285C268.189 170.029 267.986 170.697 267.58 171.289C267.18 171.877 266.632 172.341 265.937 172.679C265.242 173.018 264.451 173.187 263.564 173.187Z" fill="#083C2F"/>
<path d="M272.878 171.129L272.771 171.851C272.695 172.359 272.58 172.902 272.424 173.481C272.272 174.06 272.114 174.606 271.949 175.118C271.784 175.631 271.649 176.038 271.542 176.341H270.339C270.397 176.056 270.472 175.68 270.566 175.212C270.659 174.744 270.753 174.221 270.847 173.642C270.945 173.067 271.025 172.479 271.087 171.877L271.167 171.129H272.878Z" fill="#083C2F"/>
<path d="M279.883 173.187C279.001 173.187 278.215 173.036 277.524 172.733C276.838 172.43 276.292 172.009 275.887 171.47C275.486 170.926 275.268 170.296 275.232 169.579H276.916C276.952 170.02 277.103 170.401 277.37 170.721C277.638 171.038 277.987 171.283 278.42 171.456C278.852 171.63 279.331 171.717 279.856 171.717C280.444 171.717 280.966 171.615 281.42 171.41C281.875 171.205 282.231 170.92 282.489 170.554C282.748 170.189 282.877 169.766 282.877 169.285C282.877 168.781 282.752 168.338 282.503 167.955C282.253 167.567 281.888 167.264 281.407 167.046C280.926 166.828 280.338 166.718 279.643 166.718H278.547V165.248H279.643C280.186 165.248 280.663 165.15 281.073 164.954C281.487 164.758 281.81 164.482 282.042 164.126C282.278 163.769 282.396 163.35 282.396 162.869C282.396 162.406 282.293 162.003 282.088 161.66C281.883 161.317 281.594 161.049 281.22 160.858C280.85 160.666 280.413 160.57 279.91 160.57C279.438 160.57 278.992 160.657 278.573 160.831C278.159 161 277.82 161.248 277.558 161.573C277.295 161.894 277.152 162.281 277.13 162.736H275.526C275.553 162.018 275.769 161.39 276.174 160.851C276.58 160.308 277.11 159.884 277.765 159.581C278.424 159.278 279.148 159.127 279.937 159.127C280.783 159.127 281.509 159.299 282.115 159.642C282.721 159.98 283.187 160.428 283.512 160.985C283.837 161.542 284 162.143 284 162.789C284 163.56 283.797 164.217 283.391 164.76C282.991 165.304 282.445 165.68 281.754 165.89V165.997C282.619 166.139 283.293 166.507 283.779 167.099C284.265 167.687 284.507 168.416 284.507 169.285C284.507 170.029 284.305 170.697 283.899 171.289C283.498 171.877 282.95 172.341 282.255 172.679C281.56 173.018 280.77 173.187 279.883 173.187Z" fill="#083C2F"/>
<path d="M291.518 173.187C290.733 173.187 290.027 173.031 289.399 172.719C288.771 172.408 288.268 171.98 287.889 171.436C287.51 170.893 287.303 170.274 287.267 169.579H288.871C288.934 170.198 289.214 170.71 289.713 171.116C290.217 171.517 290.818 171.717 291.518 171.717C292.079 171.717 292.578 171.586 293.014 171.323C293.455 171.06 293.801 170.699 294.05 170.24C294.304 169.777 294.431 169.253 294.431 168.67C294.431 168.073 294.3 167.54 294.037 167.073C293.778 166.6 293.422 166.228 292.968 165.957C292.513 165.685 291.994 165.547 291.411 165.542C290.992 165.538 290.562 165.602 290.121 165.736C289.68 165.865 289.317 166.032 289.032 166.237L287.481 166.05L288.31 159.314H295.42V160.784H289.7L289.219 164.821H289.299C289.58 164.598 289.932 164.413 290.355 164.266C290.778 164.119 291.219 164.045 291.678 164.045C292.515 164.045 293.262 164.246 293.917 164.647C294.576 165.043 295.093 165.587 295.467 166.277C295.846 166.968 296.035 167.756 296.035 168.643C296.035 169.516 295.839 170.296 295.447 170.982C295.059 171.664 294.525 172.203 293.843 172.599C293.161 172.991 292.386 173.187 291.518 173.187Z" fill="#083C2F"/>
<path d="M303.234 173.187C302.672 173.178 302.111 173.071 301.55 172.866C300.988 172.661 300.476 172.316 300.013 171.831C299.549 171.341 299.177 170.679 298.897 169.846C298.616 169.008 298.476 167.957 298.476 166.692C298.476 165.48 298.589 164.406 298.817 163.471C299.044 162.531 299.373 161.74 299.806 161.098C300.238 160.452 300.759 159.962 301.369 159.628C301.984 159.294 302.677 159.127 303.448 159.127C304.214 159.127 304.896 159.281 305.492 159.588C306.094 159.891 306.584 160.314 306.963 160.858C307.341 161.401 307.586 162.027 307.698 162.736H306.067C305.916 162.121 305.622 161.611 305.185 161.205C304.748 160.8 304.169 160.597 303.448 160.597C302.387 160.597 301.552 161.058 300.942 161.98C300.336 162.903 300.031 164.197 300.026 165.863H300.133C300.383 165.484 300.679 165.161 301.022 164.894C301.369 164.622 301.752 164.413 302.171 164.266C302.59 164.119 303.033 164.045 303.501 164.045C304.285 164.045 305.002 164.241 305.653 164.633C306.303 165.021 306.825 165.558 307.217 166.244C307.609 166.926 307.805 167.707 307.805 168.59C307.805 169.436 307.615 170.211 307.237 170.915C306.858 171.615 306.326 172.171 305.64 172.586C304.958 172.996 304.156 173.196 303.234 173.187ZM303.234 171.717C303.795 171.717 304.299 171.577 304.744 171.296C305.194 171.015 305.548 170.639 305.807 170.167C306.069 169.694 306.201 169.169 306.201 168.59C306.201 168.024 306.074 167.509 305.82 167.046C305.57 166.578 305.225 166.206 304.784 165.93C304.348 165.654 303.849 165.516 303.287 165.516C302.864 165.516 302.47 165.6 302.104 165.769C301.739 165.934 301.418 166.162 301.142 166.451C300.87 166.741 300.657 167.073 300.501 167.447C300.345 167.817 300.267 168.206 300.267 168.616C300.267 169.16 300.394 169.668 300.648 170.14C300.906 170.612 301.258 170.993 301.703 171.283C302.153 171.572 302.664 171.717 303.234 171.717Z" fill="#083C2F"/>
<path d="M310.966 173.107C310.636 173.107 310.353 172.989 310.117 172.753C309.881 172.517 309.763 172.234 309.763 171.904C309.763 171.574 309.881 171.292 310.117 171.055C310.353 170.819 310.636 170.701 310.966 170.701C311.295 170.701 311.578 170.819 311.814 171.055C312.05 171.292 312.168 171.574 312.168 171.904C312.168 172.122 312.113 172.323 312.001 172.506C311.894 172.688 311.75 172.835 311.567 172.947C311.389 173.054 311.188 173.107 310.966 173.107Z" fill="#083C2F"/>
<path d="M318.958 173.187C317.951 173.187 317.093 172.913 316.385 172.365C315.677 171.813 315.135 171.013 314.761 169.966C314.387 168.915 314.2 167.645 314.2 166.157C314.2 164.678 314.387 163.415 314.761 162.368C315.14 161.317 315.683 160.515 316.392 159.962C317.105 159.405 317.96 159.127 318.958 159.127C319.956 159.127 320.809 159.405 321.517 159.962C322.23 160.515 322.774 161.317 323.148 162.368C323.527 163.415 323.716 164.678 323.716 166.157C323.716 167.645 323.529 168.915 323.155 169.966C322.78 171.013 322.239 171.813 321.531 172.365C320.822 172.913 319.965 173.187 318.958 173.187ZM318.958 171.717C319.956 171.717 320.731 171.236 321.283 170.274C321.836 169.311 322.112 167.939 322.112 166.157C322.112 164.972 321.985 163.963 321.731 163.13C321.482 162.297 321.121 161.662 320.649 161.225C320.181 160.789 319.617 160.57 318.958 160.57C317.969 160.57 317.196 161.058 316.639 162.034C316.082 163.005 315.804 164.38 315.804 166.157C315.804 167.342 315.928 168.349 316.178 169.178C316.427 170.006 316.786 170.637 317.254 171.069C317.726 171.501 318.294 171.717 318.958 171.717Z" fill="#083C2F"/>
<path d="M330.719 173.187C329.712 173.187 328.855 172.913 328.146 172.365C327.438 171.813 326.897 171.013 326.523 169.966C326.148 168.915 325.961 167.645 325.961 166.157C325.961 164.678 326.148 163.415 326.523 162.368C326.901 161.317 327.445 160.515 328.153 159.962C328.866 159.405 329.721 159.127 330.719 159.127C331.717 159.127 332.57 159.405 333.279 159.962C333.992 160.515 334.535 161.317 334.909 162.368C335.288 163.415 335.477 164.678 335.477 166.157C335.477 167.645 335.29 168.915 334.916 169.966C334.542 171.013 334 171.813 333.292 172.365C332.584 172.913 331.726 173.187 330.719 173.187ZM330.719 171.717C331.717 171.717 332.492 171.236 333.045 170.274C333.597 169.311 333.873 167.939 333.873 166.157C333.873 164.972 333.746 163.963 333.493 163.13C333.243 162.297 332.882 161.662 332.41 161.225C331.942 160.789 331.379 160.57 330.719 160.57C329.73 160.57 328.957 161.058 328.4 162.034C327.844 163.005 327.565 164.38 327.565 166.157C327.565 167.342 327.69 168.349 327.939 169.178C328.189 170.006 328.547 170.637 329.015 171.069C329.487 171.501 330.055 171.717 330.719 171.717Z" fill="#083C2F"/>
</g>
<defs>
<linearGradient id="paint0_linear_32_87" x1="nan" y1="nan" x2="nan" y2="nan" gradientUnits="userSpaceOnUse">
<stop stop-color="#083C2F" stop-opacity="0"/>
<stop offset="0.494792" stop-color="#083C2F"/>
<stop offset="1" stop-color="#083C2F" stop-opacity="0"/>
</linearGradient>
<linearGradient id="paint1_linear_32_87" x1="nan" y1="nan" x2="nan" y2="nan" gradientUnits="userSpaceOnUse">
<stop stop-color="#083C2F" stop-opacity="0"/>
<stop offset="0.494792" stop-color="#083C2F"/>
<stop offset="1" stop-color="#083C2F" stop-opacity="0"/>
</linearGradient>
<linearGradient id="paint2_linear_32_87" x1="nan" y1="nan" x2="nan" y2="nan" gradientUnits="userSpaceOnUse">
<stop offset="0.0364583" stop-color="#083C2F" stop-opacity="0"/>
<stop offset="0.494792" stop-color="#083C2F"/>
<stop offset="1" stop-color="#083C2F" stop-opacity="0"/>
</linearGradient>
<linearGradient id="paint3_linear_32_87" x1="nan" y1="nan" x2="nan" y2="nan" gradientUnits="userSpaceOnUse">
<stop offset="0.0364583" stop-color="#083C2F" stop-opacity="0"/>
<stop offset="0.494792" stop-color="#083C2F"/>
<stop offset="1" stop-color="#083C2F" stop-opacity="0"/>
</linearGradient>
<linearGradient id="paint4_linear_32_87" x1="462.716" y1="42.4172" x2="541.707" y2="118.753" gradientUnits="userSpaceOnUse">
<stop offset="0.0385834" stop-color="#083C2F" stop-opacity="0"/>
<stop offset="0.545402" stop-color="#083C2F"/>
<stop offset="1" stop-color="#083C2F" stop-opacity="0"/>
</linearGradient>
<clipPath id="clip0_32_87">
<rect width="565" height="377" fill="white"/>
</clipPath>
</defs>
</svg>
