 <svg
      width="616"
      height="481"
      viewBox="0 0 616 481"
      fill="none"
      xmlns="http://www.w3.org/2000/svg"
    >
      <g clip-path="url(#clip0_354_1895)">
        <g clip-path="url(#clip1_354_1895)">
          <path
            d="M-47 175H565"
            stroke="url(#paint0_linear_354_1895)"
            className="loans-line"
          />
          <path
            d="M565 480H-47"
            stroke="url(#paint1_linear_354_1895)"
            className="loans-line"
          />
          <path
            d="M29 659.5L29 47.5"
            stroke="url(#paint2_linear_354_1895)"
            className="loans-line"
          />
          <path
            d="M512 659L512 47"
            stroke="url(#paint3_linear_354_1895)"
            className="loans-line"
          />
          <g className="graph-rect">
            <rect
              x="80.5"
              y="460.999"
              width="11"
              height="77"
              rx="1"
              transform="rotate(-180 80.5 460.999)"
              fill="#006F37"
              id="graph1"
            />
            <rect
              x="123.167"
              y="460.999"
              width="12"
              height="90"
              rx="1"
              transform="rotate(-180 123.167 460.999)"
              fill="#006F37"
              id="graph2"
            />
            <rect
              x="164.833"
              y="460.999"
              width="11"
              height="71"
              rx="1"
              transform="rotate(-180 164.833 460.999)"
              fill="#006F37"
              id="graph3"
            />
            <rect
              x="206.5"
              y="460.999"
              width="11"
              height="109"
              rx="1"
              transform="rotate(-180 206.5 460.999)"
              fill="#006F37"
              id="graph4"
            />
            <rect
              x="249.167"
              y="460.999"
              width="12"
              height="109"
              rx="1"
              transform="rotate(-180 249.167 460.999)"
              fill="#006F37"
              id="graph5"
            />
            <rect
              x="291.833"
              y="460.999"
              width="12"
              height="153"
              rx="1"
              transform="rotate(-180 291.833 460.999)"
              fill="#006F37"
              id="graph6"
            />
            <rect
              x="333.5"
              y="460.999"
              width="11"
              height="135"
              rx="1"
              transform="rotate(-180 333.5 460.999)"
              fill="#006F37"
              id="graph1"
            />
            <rect
              x="375.167"
              y="460.999"
              width="11"
              height="98"
              rx="1"
              transform="rotate(-180 375.167 460.999)"
              fill="#006F37"
              id="graph3"
            />
            <rect
              x="417.833"
              y="460.999"
              width="12"
              height="77"
              rx="1"
              transform="rotate(-180 417.833 460.999)"
              fill="#006F37"
              id="graph5"
            />
            <rect
              x="459.5"
              y="460.999"
              width="11"
              height="135"
              rx="1"
              transform="rotate(-180 459.5 460.999)"
              fill="#006F37"
              id="graph6"
            />
          </g>
          <path
            d="M59.233 248V237.818H62.7926C63.5019 237.818 64.0869 237.941 64.5476 238.186C65.0083 238.428 65.3513 238.754 65.5767 239.165C65.8021 239.573 65.9148 240.026 65.9148 240.523C65.9148 240.96 65.8369 241.321 65.6811 241.607C65.5286 241.892 65.3265 242.117 65.0746 242.283C64.826 242.448 64.5559 242.571 64.2642 242.651V242.75C64.5758 242.77 64.889 242.879 65.2038 243.078C65.5187 243.277 65.7822 243.562 65.9943 243.933C66.2064 244.304 66.3125 244.759 66.3125 245.295C66.3125 245.806 66.1965 246.265 65.9645 246.673C65.7325 247.08 65.3662 247.403 64.8658 247.642C64.3653 247.881 63.714 248 62.9119 248H59.233ZM60.4659 246.906H62.9119C63.7173 246.906 64.2891 246.75 64.6271 246.439C64.9685 246.124 65.1392 245.743 65.1392 245.295C65.1392 244.951 65.0514 244.633 64.8757 244.341C64.7 244.046 64.4498 243.811 64.125 243.635C63.8002 243.456 63.4157 243.366 62.9716 243.366H60.4659V246.906ZM60.4659 242.293H62.7528C63.1241 242.293 63.4588 242.22 63.7571 242.074C64.0587 241.928 64.2973 241.723 64.473 241.457C64.652 241.192 64.7415 240.881 64.7415 240.523C64.7415 240.075 64.5857 239.696 64.2741 239.384C63.9626 239.069 63.4688 238.912 62.7926 238.912H60.4659V242.293ZM70.9816 248.159C70.2922 248.159 69.6873 247.995 69.167 247.667C68.6499 247.339 68.2456 246.88 67.9539 246.29C67.6656 245.7 67.5214 245.01 67.5214 244.222C67.5214 243.426 67.6656 242.732 67.9539 242.138C68.2456 241.545 68.6499 241.085 69.167 240.756C69.6873 240.428 70.2922 240.264 70.9816 240.264C71.671 240.264 72.2742 240.428 72.7913 240.756C73.3116 241.085 73.716 241.545 74.0043 242.138C74.296 242.732 74.4418 243.426 74.4418 244.222C74.4418 245.01 74.296 245.7 74.0043 246.29C73.716 246.88 73.3116 247.339 72.7913 247.667C72.2742 247.995 71.671 248.159 70.9816 248.159ZM70.9816 247.105C71.5053 247.105 71.9362 246.971 72.2742 246.702C72.6123 246.434 72.8625 246.081 73.0249 245.643C73.1873 245.206 73.2685 244.732 73.2685 244.222C73.2685 243.711 73.1873 243.236 73.0249 242.795C72.8625 242.354 72.6123 241.998 72.2742 241.726C71.9362 241.454 71.5053 241.318 70.9816 241.318C70.4579 241.318 70.0271 241.454 69.689 241.726C69.3509 241.998 69.1007 242.354 68.9383 242.795C68.7759 243.236 68.6947 243.711 68.6947 244.222C68.6947 244.732 68.7759 245.206 68.9383 245.643C69.1007 246.081 69.3509 246.434 69.689 246.702C70.0271 246.971 70.4579 247.105 70.9816 247.105ZM75.9328 248V240.364H77.0664V241.517H77.1459C77.2851 241.139 77.537 240.833 77.9016 240.597C78.2662 240.362 78.6772 240.244 79.1346 240.244C79.2207 240.244 79.3284 240.246 79.4577 240.249C79.587 240.253 79.6847 240.258 79.751 240.264V241.457C79.7113 241.447 79.6201 241.433 79.4776 241.413C79.3384 241.389 79.1909 241.378 79.0351 241.378C78.6639 241.378 78.3325 241.456 78.0408 241.612C77.7524 241.764 77.5238 241.976 77.3547 242.248C77.189 242.516 77.1061 242.823 77.1061 243.168V248H75.9328ZM80.8418 248V240.364H81.9754V241.517H82.0549C82.1941 241.139 82.446 240.833 82.8106 240.597C83.1752 240.362 83.5862 240.244 84.0435 240.244C84.1297 240.244 84.2374 240.246 84.3667 240.249C84.496 240.253 84.5937 240.258 84.66 240.264V241.457C84.6202 241.447 84.5291 241.433 84.3866 241.413C84.2474 241.389 84.0999 241.378 83.9441 241.378C83.5729 241.378 83.2415 241.456 82.9498 241.612C82.6614 241.764 82.4327 241.976 82.2637 242.248C82.098 242.516 82.0151 242.823 82.0151 243.168V248H80.8418ZM88.6207 248.159C87.9313 248.159 87.3264 247.995 86.806 247.667C86.289 247.339 85.8846 246.88 85.593 246.29C85.3046 245.7 85.1604 245.01 85.1604 244.222C85.1604 243.426 85.3046 242.732 85.593 242.138C85.8846 241.545 86.289 241.085 86.806 240.756C87.3264 240.428 87.9313 240.264 88.6207 240.264C89.3101 240.264 89.9133 240.428 90.4303 240.756C90.9507 241.085 91.355 241.545 91.6434 242.138C91.9351 242.732 92.0809 243.426 92.0809 244.222C92.0809 245.01 91.9351 245.7 91.6434 246.29C91.355 246.88 90.9507 247.339 90.4303 247.667C89.9133 247.995 89.3101 248.159 88.6207 248.159ZM88.6207 247.105C89.1443 247.105 89.5752 246.971 89.9133 246.702C90.2513 246.434 90.5016 246.081 90.664 245.643C90.8264 245.206 90.9076 244.732 90.9076 244.222C90.9076 243.711 90.8264 243.236 90.664 242.795C90.5016 242.354 90.2513 241.998 89.9133 241.726C89.5752 241.454 89.1443 241.318 88.6207 241.318C88.097 241.318 87.6661 241.454 87.3281 241.726C86.99 241.998 86.7397 242.354 86.5773 242.795C86.4149 243.236 86.3337 243.711 86.3337 244.222C86.3337 244.732 86.4149 245.206 86.5773 245.643C86.7397 246.081 86.99 246.434 87.3281 246.702C87.6661 246.971 88.097 247.105 88.6207 247.105ZM95.0423 248L92.7156 240.364H93.9485L95.5991 246.21H95.6786L97.3093 240.364H98.5621L100.173 246.19H100.252L101.903 240.364H103.136L100.809 248H99.6559L97.9854 242.134H97.8661L96.1957 248H95.0423Z"
            fill="#3C4A47"
            className="graph-rect"
          />
          <path
            d="M63.9801 279.459V261.278H65.1449V279.459H63.9801ZM67.3395 267.094C67.2732 266.474 66.9938 265.991 66.5014 265.646C66.0137 265.3 65.3793 265.127 64.598 265.127C64.0488 265.127 63.5777 265.21 63.1847 265.376C62.7917 265.541 62.491 265.766 62.2827 266.05C62.0743 266.334 61.9678 266.659 61.9631 267.023C61.9631 267.326 62.0317 267.589 62.169 267.812C62.3111 268.034 62.5028 268.224 62.7443 268.38C62.9858 268.531 63.2533 268.659 63.5469 268.763C63.8404 268.868 64.1364 268.955 64.4347 269.026L65.7983 269.367C66.3475 269.495 66.8755 269.668 67.3821 269.886C67.8935 270.103 68.3504 270.378 68.7528 270.709C69.16 271.041 69.482 271.441 69.7188 271.91C69.9555 272.379 70.0739 272.928 70.0739 273.557C70.0739 274.41 69.8561 275.16 69.4205 275.809C68.9848 276.453 68.3551 276.957 67.5312 277.322C66.7121 277.682 65.7202 277.861 64.5554 277.861C63.4238 277.861 62.4413 277.686 61.608 277.336C60.7794 276.986 60.1307 276.474 59.6619 275.802C59.1979 275.129 58.947 274.31 58.9091 273.344H61.5014C61.5393 273.851 61.6955 274.272 61.9702 274.609C62.2448 274.945 62.6023 275.196 63.0426 275.361C63.4877 275.527 63.9848 275.61 64.5341 275.61C65.107 275.61 65.6089 275.525 66.0398 275.354C66.4754 275.179 66.8163 274.938 67.0625 274.63C67.3087 274.317 67.4342 273.953 67.4389 273.536C67.4342 273.157 67.3229 272.845 67.1051 272.599C66.8873 272.348 66.5819 272.139 66.1889 271.974C65.8007 271.803 65.3461 271.652 64.8253 271.519L63.1705 271.093C61.9725 270.785 61.0256 270.319 60.3295 269.694C59.6383 269.064 59.2926 268.228 59.2926 267.187C59.2926 266.33 59.5246 265.579 59.9886 264.935C60.4574 264.291 61.0942 263.792 61.8991 263.437C62.7041 263.077 63.6155 262.897 64.6335 262.897C65.6657 262.897 66.5701 263.077 67.3466 263.437C68.1278 263.792 68.741 264.287 69.1861 264.921C69.6312 265.551 69.8608 266.275 69.875 267.094H67.3395ZM71.9809 277.641V275.738L77.0306 270.788C77.5136 270.3 77.916 269.867 78.238 269.488C78.56 269.109 78.8014 268.742 78.9624 268.387C79.1234 268.032 79.2039 267.653 79.2039 267.251C79.2039 266.791 79.0997 266.398 78.8914 266.072C78.6831 265.74 78.3966 265.485 78.032 265.305C77.6674 265.125 77.2531 265.035 76.7891 265.035C76.3109 265.035 75.8919 265.134 75.532 265.333C75.1722 265.527 74.8928 265.804 74.694 266.164C74.4998 266.524 74.4028 266.952 74.4028 267.45H71.8957C71.8957 266.526 72.1064 265.724 72.5278 265.042C72.9492 264.36 73.5292 263.832 74.2678 263.458C75.0112 263.084 75.8635 262.897 76.8246 262.897C77.8 262.897 78.657 263.079 79.3957 263.444C80.1343 263.808 80.7072 264.308 81.1144 264.942C81.5263 265.577 81.7323 266.301 81.7323 267.116C81.7323 267.66 81.6281 268.195 81.4198 268.721C81.2115 269.246 80.8445 269.829 80.319 270.468C79.7981 271.107 79.0666 271.881 78.1244 272.79L75.6173 275.34V275.44H81.9525V277.641H71.9809ZM87.1496 275.653L87.0573 276.434C86.991 277.031 86.8727 277.637 86.7022 278.252C86.5365 278.872 86.3613 279.443 86.1766 279.964C85.992 280.485 85.8428 280.894 85.7292 281.192H83.9962C84.0625 280.904 84.1525 280.511 84.2661 280.013C84.3845 279.516 84.4981 278.958 84.607 278.337C84.7159 277.717 84.7893 277.087 84.8272 276.448L84.8769 275.653H87.1496ZM89.4384 274.942V272.847L95.6103 263.096H97.3575V266.079H96.2921L92.1373 272.663V272.776H100.752V274.942H89.4384ZM96.3773 277.641V274.303L96.4058 273.366V263.096H98.8915V277.641H96.3773ZM107.778 277.84C106.831 277.84 105.984 277.663 105.236 277.307C104.488 276.948 103.893 276.455 103.453 275.83C103.017 275.205 102.785 274.49 102.757 273.685H105.314C105.361 274.282 105.619 274.77 106.088 275.148C106.557 275.522 107.12 275.709 107.778 275.709C108.294 275.709 108.754 275.591 109.156 275.354C109.559 275.118 109.876 274.789 110.108 274.367C110.34 273.946 110.454 273.465 110.449 272.925C110.454 272.376 110.338 271.888 110.101 271.462C109.864 271.036 109.54 270.702 109.128 270.461C108.716 270.215 108.242 270.092 107.707 270.092C107.272 270.087 106.843 270.167 106.422 270.333C106 270.499 105.667 270.717 105.42 270.986L103.041 270.596L103.801 263.096H112.239V265.298H105.981L105.562 269.154H105.648C105.918 268.837 106.299 268.574 106.791 268.366C107.284 268.153 107.823 268.046 108.41 268.046C109.291 268.046 110.077 268.254 110.768 268.671C111.46 269.083 112.004 269.651 112.402 270.376C112.8 271.1 112.999 271.929 112.999 272.861C112.999 273.823 112.776 274.68 112.331 275.432C111.891 276.181 111.277 276.77 110.491 277.201C109.71 277.627 108.806 277.84 107.778 277.84ZM115.078 277.641V275.738L120.127 270.788C120.61 270.3 121.013 269.867 121.335 269.488C121.657 269.109 121.898 268.742 122.059 268.387C122.22 268.032 122.301 267.653 122.301 267.251C122.301 266.791 122.197 266.398 121.988 266.072C121.78 265.74 121.493 265.485 121.129 265.305C120.764 265.125 120.35 265.035 119.886 265.035C119.408 265.035 118.989 265.134 118.629 265.333C118.269 265.527 117.99 265.804 117.791 266.164C117.597 266.524 117.5 266.952 117.5 267.45H114.993C114.993 266.526 115.203 265.724 115.625 265.042C116.046 264.36 116.626 263.832 117.365 263.458C118.108 263.084 118.96 262.897 119.922 262.897C120.897 262.897 121.754 263.079 122.493 263.444C123.231 263.808 123.804 264.308 124.211 264.942C124.623 265.577 124.829 266.301 124.829 267.116C124.829 267.66 124.725 268.195 124.517 268.721C124.308 269.246 123.941 269.829 123.416 270.468C122.895 271.107 122.163 271.881 121.221 272.79L118.714 275.34V275.44H125.049V277.641H115.078ZM130.247 275.653L130.154 276.434C130.088 277.031 129.97 277.637 129.799 278.252C129.633 278.872 129.458 279.443 129.274 279.964C129.089 280.485 128.94 280.894 128.826 281.192H127.093C127.159 280.904 127.249 280.511 127.363 280.013C127.481 279.516 127.595 278.958 127.704 278.337C127.813 277.717 127.886 277.087 127.924 276.448L127.974 275.653H130.247ZM137.679 277.84C136.732 277.84 135.885 277.663 135.137 277.307C134.388 276.948 133.794 276.455 133.354 275.83C132.918 275.205 132.686 274.49 132.658 273.685H135.215C135.262 274.282 135.52 274.77 135.989 275.148C136.458 275.522 137.021 275.709 137.679 275.709C138.195 275.709 138.655 275.591 139.057 275.354C139.459 275.118 139.777 274.789 140.009 274.367C140.241 273.946 140.354 273.465 140.35 272.925C140.354 272.376 140.238 271.888 140.002 271.462C139.765 271.036 139.44 270.702 139.029 270.461C138.617 270.215 138.143 270.092 137.608 270.092C137.172 270.087 136.744 270.167 136.323 270.333C135.901 270.499 135.567 270.717 135.321 270.986L132.942 270.596L133.702 263.096H142.139V265.298H135.882L135.463 269.154H135.548C135.818 268.837 136.199 268.574 136.692 268.366C137.184 268.153 137.724 268.046 138.311 268.046C139.192 268.046 139.978 268.254 140.669 268.671C141.36 269.083 141.905 269.651 142.303 270.376C142.7 271.1 142.899 271.929 142.899 272.861C142.899 273.823 142.677 274.68 142.232 275.432C141.791 276.181 141.178 276.77 140.392 277.201C139.611 277.627 138.707 277.84 137.679 277.84ZM150.355 277.918C149.185 277.918 148.182 277.622 147.344 277.031C146.51 276.434 145.869 275.575 145.419 274.452C144.974 273.325 144.751 271.969 144.751 270.383C144.756 268.797 144.981 267.447 145.426 266.334C145.876 265.217 146.517 264.365 147.351 263.778C148.189 263.191 149.19 262.897 150.355 262.897C151.52 262.897 152.521 263.191 153.359 263.778C154.197 264.365 154.839 265.217 155.284 266.334C155.734 267.452 155.959 268.801 155.959 270.383C155.959 271.974 155.734 273.333 155.284 274.459C154.839 275.582 154.197 276.439 153.359 277.031C152.526 277.622 151.524 277.918 150.355 277.918ZM150.355 275.695C151.264 275.695 151.981 275.248 152.507 274.353C153.037 273.453 153.302 272.13 153.302 270.383C153.302 269.227 153.182 268.257 152.94 267.471C152.699 266.685 152.358 266.093 151.917 265.695C151.477 265.293 150.956 265.092 150.355 265.092C149.451 265.092 148.736 265.541 148.21 266.441C147.685 267.336 147.419 268.65 147.415 270.383C147.41 271.543 147.526 272.518 147.763 273.309C148.004 274.1 148.345 274.696 148.785 275.099C149.226 275.496 149.749 275.695 150.355 275.695ZM163.395 277.918C162.225 277.918 161.222 277.622 160.383 277.031C159.55 276.434 158.909 275.575 158.459 274.452C158.014 273.325 157.791 271.969 157.791 270.383C157.796 268.797 158.021 267.447 158.466 266.334C158.916 265.217 159.557 264.365 160.391 263.778C161.229 263.191 162.23 262.897 163.395 262.897C164.56 262.897 165.561 263.191 166.399 263.778C167.237 264.365 167.879 265.217 168.324 266.334C168.774 267.452 168.999 268.801 168.999 270.383C168.999 271.974 168.774 273.333 168.324 274.459C167.879 275.582 167.237 276.439 166.399 277.031C165.566 277.622 164.564 277.918 163.395 277.918ZM163.395 275.695C164.304 275.695 165.021 275.248 165.547 274.353C166.077 273.453 166.342 272.13 166.342 270.383C166.342 269.227 166.222 268.257 165.98 267.471C165.739 266.685 165.398 266.093 164.957 265.695C164.517 265.293 163.996 265.092 163.395 265.092C162.49 265.092 161.776 265.541 161.25 266.441C160.724 267.336 160.459 268.65 160.454 270.383C160.45 271.543 160.566 272.518 160.802 273.309C161.044 274.1 161.385 274.696 161.825 275.099C162.266 275.496 162.789 275.695 163.395 275.695ZM172.104 277.798C171.673 277.798 171.304 277.646 170.996 277.343C170.688 277.04 170.537 276.671 170.542 276.235C170.537 275.809 170.688 275.444 170.996 275.141C171.304 274.838 171.673 274.687 172.104 274.687C172.521 274.687 172.883 274.838 173.191 275.141C173.503 275.444 173.662 275.809 173.667 276.235C173.662 276.524 173.586 276.787 173.439 277.023C173.297 277.26 173.108 277.45 172.871 277.592C172.639 277.729 172.383 277.798 172.104 277.798ZM176.057 277.641L182.243 265.397V265.298H175.062V263.096H184.97V265.347L178.791 277.641H176.057ZM192.026 277.918C190.857 277.918 189.853 277.622 189.015 277.031C188.181 276.434 187.54 275.575 187.09 274.452C186.645 273.325 186.422 271.969 186.422 270.383C186.427 268.797 186.652 267.447 187.097 266.334C187.547 265.217 188.188 264.365 189.022 263.778C189.86 263.191 190.861 262.897 192.026 262.897C193.191 262.897 194.192 263.191 195.03 263.778C195.868 264.365 196.51 265.217 196.955 266.334C197.405 267.452 197.63 268.801 197.63 270.383C197.63 271.974 197.405 273.333 196.955 274.459C196.51 275.582 195.868 276.439 195.03 277.031C194.197 277.622 193.196 277.918 192.026 277.918ZM192.026 275.695C192.935 275.695 193.652 275.248 194.178 274.353C194.708 273.453 194.974 272.13 194.974 270.383C194.974 269.227 194.853 268.257 194.611 267.471C194.37 266.685 194.029 266.093 193.589 265.695C193.148 265.293 192.627 265.092 192.026 265.092C191.122 265.092 190.407 265.541 189.881 266.441C189.356 267.336 189.09 268.65 189.086 270.383C189.081 271.543 189.197 272.518 189.434 273.309C189.675 274.1 190.016 274.696 190.456 275.099C190.897 275.496 191.42 275.695 192.026 275.695Z"
            fill="#083C2F"
            className="graph-rect"
          />
          <path
            d="M239.926 241H238.693C238.62 240.646 238.493 240.334 238.31 240.066C238.131 239.797 237.913 239.572 237.654 239.389C237.399 239.204 237.116 239.065 236.804 238.972C236.492 238.879 236.168 238.833 235.83 238.833C235.213 238.833 234.655 238.988 234.154 239.3C233.657 239.612 233.261 240.071 232.966 240.677C232.674 241.284 232.528 242.028 232.528 242.909C232.528 243.791 232.674 244.535 232.966 245.142C233.261 245.748 233.657 246.207 234.154 246.519C234.655 246.83 235.213 246.986 235.83 246.986C236.168 246.986 236.492 246.94 236.804 246.847C237.116 246.754 237.399 246.616 237.654 246.434C237.913 246.249 238.131 246.022 238.31 245.753C238.493 245.481 238.62 245.17 238.693 244.818H239.926C239.833 245.339 239.664 245.804 239.419 246.215C239.174 246.626 238.869 246.976 238.504 247.264C238.14 247.549 237.73 247.767 237.276 247.916C236.826 248.065 236.343 248.139 235.83 248.139C234.961 248.139 234.189 247.927 233.513 247.503C232.837 247.079 232.305 246.476 231.917 245.693C231.529 244.911 231.335 243.983 231.335 242.909C231.335 241.835 231.529 240.907 231.917 240.125C232.305 239.343 232.837 238.74 233.513 238.316C234.189 237.891 234.961 237.679 235.83 237.679C236.343 237.679 236.826 237.754 237.276 237.903C237.73 238.052 238.14 238.271 238.504 238.559C238.869 238.844 239.174 239.192 239.419 239.603C239.664 240.011 239.833 240.477 239.926 241ZM244.562 248.159C243.872 248.159 243.267 247.995 242.747 247.667C242.23 247.339 241.826 246.88 241.534 246.29C241.246 245.7 241.101 245.011 241.101 244.222C241.101 243.426 241.246 242.732 241.534 242.139C241.826 241.545 242.23 241.085 242.747 240.757C243.267 240.429 243.872 240.264 244.562 240.264C245.251 240.264 245.854 240.429 246.371 240.757C246.892 241.085 247.296 241.545 247.584 242.139C247.876 242.732 248.022 243.426 248.022 244.222C248.022 245.011 247.876 245.7 247.584 246.29C247.296 246.88 246.892 247.339 246.371 247.667C245.854 247.995 245.251 248.159 244.562 248.159ZM244.562 247.105C245.085 247.105 245.516 246.971 245.854 246.703C246.192 246.434 246.443 246.081 246.605 245.644C246.767 245.206 246.849 244.732 246.849 244.222C246.849 243.711 246.767 243.236 246.605 242.795C246.443 242.354 246.192 241.998 245.854 241.726C245.516 241.454 245.085 241.318 244.562 241.318C244.038 241.318 243.607 241.454 243.269 241.726C242.931 241.998 242.681 242.354 242.518 242.795C242.356 243.236 242.275 243.711 242.275 244.222C242.275 244.732 242.356 245.206 242.518 245.644C242.681 246.081 242.931 246.434 243.269 246.703C243.607 246.971 244.038 247.105 244.562 247.105ZM250.686 237.818V248H249.513V237.818H250.686ZM253.708 237.818V248H252.535V237.818H253.708ZM257.805 248.179C257.321 248.179 256.882 248.088 256.487 247.906C256.093 247.72 255.78 247.453 255.548 247.105C255.316 246.754 255.2 246.33 255.2 245.833C255.2 245.395 255.286 245.04 255.458 244.769C255.63 244.494 255.861 244.278 256.149 244.122C256.437 243.967 256.756 243.851 257.104 243.774C257.455 243.695 257.808 243.632 258.163 243.585C258.627 243.526 259.003 243.481 259.291 243.451C259.583 243.418 259.795 243.363 259.927 243.287C260.063 243.211 260.131 243.078 260.131 242.889V242.85C260.131 242.359 259.997 241.978 259.729 241.706C259.463 241.434 259.061 241.299 258.521 241.299C257.96 241.299 257.521 241.421 257.203 241.666C256.885 241.912 256.661 242.174 256.532 242.452L255.418 242.054C255.617 241.59 255.882 241.229 256.214 240.97C256.548 240.709 256.913 240.526 257.307 240.424C257.705 240.317 258.096 240.264 258.481 240.264C258.726 240.264 259.008 240.294 259.326 240.354C259.647 240.41 259.957 240.528 260.256 240.707C260.557 240.886 260.807 241.156 261.006 241.517C261.205 241.879 261.305 242.362 261.305 242.969V248H260.131V246.966H260.072C259.992 247.132 259.86 247.309 259.674 247.498C259.488 247.687 259.241 247.848 258.933 247.98C258.625 248.113 258.249 248.179 257.805 248.179ZM257.984 247.125C258.448 247.125 258.839 247.034 259.157 246.852C259.478 246.67 259.72 246.434 259.883 246.146C260.048 245.857 260.131 245.554 260.131 245.236V244.162C260.082 244.222 259.972 244.277 259.803 244.326C259.637 244.373 259.445 244.414 259.226 244.451C259.011 244.484 258.801 244.514 258.595 244.54C258.393 244.563 258.229 244.583 258.103 244.6C257.798 244.639 257.513 244.704 257.248 244.794C256.986 244.88 256.774 245.011 256.611 245.186C256.452 245.359 256.373 245.594 256.373 245.892C256.373 246.3 256.524 246.608 256.825 246.817C257.13 247.022 257.516 247.125 257.984 247.125ZM266.467 240.364V241.358H262.51V240.364H266.467ZM263.663 238.534H264.836V245.813C264.836 246.144 264.885 246.393 264.981 246.558C265.08 246.721 265.206 246.83 265.358 246.887C265.514 246.94 265.678 246.966 265.851 246.966C265.98 246.966 266.086 246.96 266.169 246.946C266.252 246.93 266.318 246.916 266.368 246.906L266.606 247.96C266.527 247.99 266.416 248.02 266.273 248.05C266.131 248.083 265.95 248.1 265.731 248.1C265.4 248.1 265.075 248.028 264.757 247.886C264.442 247.743 264.18 247.526 263.971 247.235C263.766 246.943 263.663 246.575 263.663 246.131V238.534ZM271.052 248.159C270.316 248.159 269.681 247.997 269.148 247.672C268.617 247.344 268.208 246.887 267.92 246.3C267.635 245.71 267.492 245.024 267.492 244.242C267.492 243.46 267.635 242.77 267.92 242.174C268.208 241.574 268.609 241.106 269.123 240.772C269.64 240.433 270.243 240.264 270.932 240.264C271.33 240.264 271.723 240.331 272.111 240.463C272.498 240.596 272.851 240.811 273.17 241.11C273.488 241.405 273.741 241.796 273.93 242.283C274.119 242.77 274.214 243.37 274.214 244.083V244.58H268.327V243.566H273.02C273.02 243.135 272.934 242.75 272.762 242.412C272.593 242.074 272.351 241.807 272.036 241.612C271.725 241.416 271.357 241.318 270.932 241.318C270.465 241.318 270.061 241.434 269.719 241.666C269.381 241.895 269.121 242.193 268.939 242.561C268.757 242.929 268.665 243.324 268.665 243.745V244.421C268.665 244.997 268.765 245.486 268.964 245.887C269.166 246.285 269.446 246.588 269.804 246.797C270.162 247.003 270.578 247.105 271.052 247.105C271.36 247.105 271.638 247.062 271.887 246.976C272.139 246.887 272.356 246.754 272.538 246.578C272.721 246.399 272.861 246.177 272.961 245.912L274.094 246.23C273.975 246.615 273.775 246.953 273.493 247.245C273.211 247.533 272.863 247.758 272.449 247.921C272.034 248.08 271.569 248.159 271.052 248.159ZM275.698 248V240.364H276.832V241.517H276.912C277.051 241.139 277.303 240.833 277.667 240.598C278.032 240.362 278.443 240.245 278.9 240.245C278.986 240.245 279.094 240.246 279.223 240.25C279.353 240.253 279.45 240.258 279.517 240.264V241.458C279.477 241.448 279.386 241.433 279.243 241.413C279.104 241.39 278.957 241.378 278.801 241.378C278.43 241.378 278.098 241.456 277.806 241.612C277.518 241.764 277.289 241.976 277.12 242.248C276.955 242.517 276.872 242.823 276.872 243.168V248H275.698ZM282.855 248.179C282.371 248.179 281.932 248.088 281.537 247.906C281.143 247.72 280.83 247.453 280.598 247.105C280.366 246.754 280.25 246.33 280.25 245.833C280.25 245.395 280.336 245.04 280.508 244.769C280.68 244.494 280.911 244.278 281.199 244.122C281.487 243.967 281.806 243.851 282.154 243.774C282.505 243.695 282.858 243.632 283.213 243.585C283.677 243.526 284.053 243.481 284.341 243.451C284.633 243.418 284.845 243.363 284.977 243.287C285.113 243.211 285.181 243.078 285.181 242.889V242.85C285.181 242.359 285.047 241.978 284.779 241.706C284.513 241.434 284.111 241.299 283.571 241.299C283.01 241.299 282.571 241.421 282.253 241.666C281.935 241.912 281.711 242.174 281.582 242.452L280.468 242.054C280.667 241.59 280.932 241.229 281.264 240.97C281.598 240.709 281.963 240.526 282.357 240.424C282.755 240.317 283.146 240.264 283.531 240.264C283.776 240.264 284.058 240.294 284.376 240.354C284.697 240.41 285.007 240.528 285.306 240.707C285.607 240.886 285.857 241.156 286.056 241.517C286.255 241.879 286.355 242.362 286.355 242.969V248H285.181V246.966H285.122C285.042 247.132 284.91 247.309 284.724 247.498C284.538 247.687 284.291 247.848 283.983 247.98C283.675 248.113 283.299 248.179 282.855 248.179ZM283.034 247.125C283.498 247.125 283.889 247.034 284.207 246.852C284.528 246.67 284.77 246.434 284.933 246.146C285.098 245.857 285.181 245.554 285.181 245.236V244.162C285.132 244.222 285.022 244.277 284.853 244.326C284.687 244.373 284.495 244.414 284.276 244.451C284.061 244.484 283.851 244.514 283.645 244.54C283.443 244.563 283.279 244.583 283.153 244.6C282.848 244.639 282.563 244.704 282.298 244.794C282.036 244.88 281.824 245.011 281.661 245.186C281.502 245.359 281.423 245.594 281.423 245.892C281.423 246.3 281.574 246.608 281.875 246.817C282.18 247.022 282.566 247.125 283.034 247.125ZM289.369 237.818V248H288.196V237.818H289.369Z"
            fill="#3C4A47"
            className="graph-rect"
          />
          <path
            d="M236.48 279.46V261.278H237.645V279.46H236.48ZM239.839 267.094C239.773 266.474 239.494 265.991 239.001 265.646C238.514 265.3 237.879 265.127 237.098 265.127C236.549 265.127 236.078 265.21 235.685 265.376C235.292 265.541 234.991 265.766 234.783 266.05C234.574 266.335 234.468 266.659 234.463 267.023C234.463 267.326 234.532 267.589 234.669 267.812C234.811 268.034 235.003 268.224 235.244 268.38C235.486 268.532 235.753 268.659 236.047 268.764C236.34 268.868 236.636 268.955 236.935 269.026L238.298 269.367C238.848 269.495 239.375 269.668 239.882 269.886C240.393 270.103 240.85 270.378 241.253 270.71C241.66 271.041 241.982 271.441 242.219 271.91C242.455 272.379 242.574 272.928 242.574 273.558C242.574 274.41 242.356 275.16 241.92 275.809C241.485 276.453 240.855 276.957 240.031 277.322C239.212 277.682 238.22 277.862 237.055 277.862C235.924 277.862 234.941 277.686 234.108 277.336C233.279 276.986 232.631 276.474 232.162 275.802C231.698 275.13 231.447 274.31 231.409 273.344H234.001C234.039 273.851 234.196 274.273 234.47 274.609C234.745 274.945 235.102 275.196 235.543 275.362C235.988 275.527 236.485 275.61 237.034 275.61C237.607 275.61 238.109 275.525 238.54 275.354C238.975 275.179 239.316 274.938 239.562 274.63C239.809 274.317 239.934 273.953 239.939 273.536C239.934 273.157 239.823 272.845 239.605 272.599C239.387 272.348 239.082 272.139 238.689 271.974C238.301 271.803 237.846 271.652 237.325 271.519L235.67 271.093C234.473 270.785 233.526 270.319 232.83 269.694C232.138 269.064 231.793 268.228 231.793 267.187C231.793 266.33 232.025 265.579 232.489 264.935C232.957 264.291 233.594 263.792 234.399 263.437C235.204 263.077 236.116 262.897 237.134 262.897C238.166 262.897 239.07 263.077 239.847 263.437C240.628 263.792 241.241 264.287 241.686 264.921C242.131 265.551 242.361 266.275 242.375 267.094H239.839ZM249.701 277.84C248.678 277.84 247.769 277.665 246.974 277.315C246.183 276.964 245.558 276.477 245.099 275.852C244.64 275.227 244.396 274.505 244.367 273.685H247.038C247.061 274.078 247.192 274.422 247.428 274.715C247.665 275.004 247.98 275.229 248.373 275.39C248.766 275.551 249.206 275.631 249.694 275.631C250.215 275.631 250.676 275.541 251.079 275.362C251.481 275.177 251.796 274.921 252.024 274.594C252.251 274.268 252.362 273.891 252.357 273.465C252.362 273.025 252.248 272.637 252.016 272.3C251.784 271.964 251.448 271.701 251.008 271.512C250.572 271.323 250.047 271.228 249.431 271.228H248.146V269.197H249.431C249.938 269.197 250.381 269.109 250.759 268.934C251.143 268.759 251.443 268.513 251.661 268.195C251.879 267.873 251.986 267.502 251.981 267.08C251.986 266.668 251.893 266.311 251.704 266.008C251.519 265.7 251.256 265.461 250.916 265.291C250.579 265.12 250.184 265.035 249.729 265.035C249.284 265.035 248.872 265.115 248.494 265.276C248.115 265.437 247.809 265.667 247.577 265.965C247.345 266.259 247.222 266.609 247.208 267.016H244.673C244.692 266.202 244.926 265.487 245.376 264.871C245.83 264.251 246.436 263.768 247.194 263.423C247.952 263.072 248.801 262.897 249.744 262.897C250.714 262.897 251.557 263.079 252.272 263.444C252.992 263.804 253.548 264.289 253.941 264.9C254.334 265.511 254.531 266.185 254.531 266.924C254.535 267.743 254.294 268.43 253.806 268.984C253.323 269.538 252.689 269.9 251.903 270.07V270.184C252.925 270.326 253.709 270.705 254.254 271.32C254.803 271.931 255.075 272.691 255.07 273.6C255.07 274.415 254.838 275.144 254.374 275.788C253.915 276.427 253.281 276.929 252.471 277.293C251.666 277.658 250.743 277.84 249.701 277.84ZM259.825 275.653L259.733 276.434C259.667 277.031 259.548 277.637 259.378 278.252C259.212 278.872 259.037 279.443 258.852 279.964C258.668 280.485 258.519 280.894 258.405 281.192H256.672C256.738 280.904 256.828 280.511 256.942 280.014C257.06 279.516 257.174 278.958 257.283 278.337C257.392 277.717 257.465 277.087 257.503 276.448L257.553 275.653H259.825ZM267.258 277.84C266.311 277.84 265.464 277.663 264.715 277.308C263.967 276.948 263.373 276.455 262.933 275.83C262.497 275.205 262.265 274.49 262.237 273.685H264.794C264.841 274.282 265.099 274.77 265.568 275.148C266.036 275.523 266.6 275.71 267.258 275.71C267.774 275.71 268.233 275.591 268.636 275.354C269.038 275.118 269.356 274.789 269.588 274.367C269.82 273.946 269.933 273.465 269.928 272.925C269.933 272.376 269.817 271.889 269.58 271.462C269.344 271.036 269.019 270.702 268.607 270.461C268.196 270.215 267.722 270.092 267.187 270.092C266.751 270.087 266.323 270.167 265.901 270.333C265.48 270.499 265.146 270.717 264.9 270.987L262.521 270.596L263.281 263.096H271.718V265.298H265.461L265.042 269.154H265.127C265.397 268.837 265.778 268.574 266.271 268.366C266.763 268.153 267.303 268.046 267.89 268.046C268.771 268.046 269.557 268.255 270.248 268.671C270.939 269.083 271.484 269.651 271.882 270.376C272.279 271.1 272.478 271.929 272.478 272.862C272.478 273.823 272.256 274.68 271.811 275.433C271.37 276.181 270.757 276.77 269.971 277.201C269.19 277.627 268.285 277.84 267.258 277.84ZM274.557 277.641V275.738L279.607 270.788C280.09 270.3 280.493 269.867 280.815 269.488C281.137 269.109 281.378 268.742 281.539 268.387C281.7 268.032 281.78 267.653 281.78 267.251C281.78 266.791 281.676 266.398 281.468 266.072C281.26 265.74 280.973 265.485 280.609 265.305C280.244 265.125 279.83 265.035 279.366 265.035C278.887 265.035 278.468 265.134 278.109 265.333C277.749 265.527 277.469 265.804 277.271 266.164C277.076 266.524 276.979 266.952 276.979 267.45H274.472C274.472 266.526 274.683 265.724 275.104 265.042C275.526 264.36 276.106 263.832 276.844 263.458C277.588 263.084 278.44 262.897 279.401 262.897C280.377 262.897 281.234 263.079 281.972 263.444C282.711 263.808 283.284 264.308 283.691 264.942C284.103 265.577 284.309 266.301 284.309 267.116C284.309 267.66 284.205 268.195 283.996 268.721C283.788 269.246 283.421 269.829 282.896 270.468C282.375 271.107 281.643 271.881 280.701 272.791L278.194 275.34V275.44H284.529V277.641H274.557ZM292.596 263.096V277.641H289.961V265.66H289.875L286.473 267.833V265.418L290.088 263.096H292.596ZM298.235 275.653L298.142 276.434C298.076 277.031 297.958 277.637 297.787 278.252C297.622 278.872 297.446 279.443 297.262 279.964C297.077 280.485 296.928 280.894 296.814 281.192H295.081C295.148 280.904 295.238 280.511 295.351 280.014C295.47 279.516 295.583 278.958 295.692 278.337C295.801 277.717 295.874 277.087 295.912 276.448L295.962 275.653H298.235ZM305.667 277.84C304.72 277.84 303.873 277.663 303.125 277.308C302.377 276.948 301.782 276.455 301.342 275.83C300.907 275.205 300.675 274.49 300.646 273.685H303.203C303.25 274.282 303.508 274.77 303.977 275.148C304.446 275.523 305.009 275.71 305.667 275.71C306.184 275.71 306.643 275.591 307.045 275.354C307.448 275.118 307.765 274.789 307.997 274.367C308.229 273.946 308.343 273.465 308.338 272.925C308.343 272.376 308.227 271.889 307.99 271.462C307.753 271.036 307.429 270.702 307.017 270.461C306.605 270.215 306.131 270.092 305.596 270.092C305.161 270.087 304.732 270.167 304.311 270.333C303.889 270.499 303.556 270.717 303.309 270.987L300.93 270.596L301.69 263.096H310.128V265.298H303.871L303.451 269.154H303.537C303.807 268.837 304.188 268.574 304.68 268.366C305.173 268.153 305.712 268.046 306.3 268.046C307.18 268.046 307.966 268.255 308.657 268.671C309.349 269.083 309.893 269.651 310.291 270.376C310.689 271.1 310.888 271.929 310.888 272.862C310.888 273.823 310.665 274.68 310.22 275.433C309.78 276.181 309.166 276.77 308.38 277.201C307.599 277.627 306.695 277.84 305.667 277.84ZM318.343 277.918C317.174 277.918 316.17 277.622 315.332 277.031C314.499 276.434 313.857 275.575 313.407 274.452C312.962 273.326 312.74 271.969 312.74 270.383C312.744 268.797 312.969 267.447 313.414 266.335C313.864 265.217 314.506 264.365 315.339 263.778C316.177 263.191 317.178 262.897 318.343 262.897C319.508 262.897 320.509 263.191 321.348 263.778C322.186 264.365 322.827 265.217 323.272 266.335C323.722 267.452 323.947 268.801 323.947 270.383C323.947 271.974 323.722 273.333 323.272 274.46C322.827 275.582 322.186 276.439 321.348 277.031C320.514 277.622 319.513 277.918 318.343 277.918ZM318.343 275.695C319.252 275.695 319.97 275.248 320.495 274.353C321.026 273.453 321.291 272.13 321.291 270.383C321.291 269.228 321.17 268.257 320.928 267.471C320.687 266.685 320.346 266.093 319.906 265.695C319.465 265.293 318.945 265.092 318.343 265.092C317.439 265.092 316.724 265.541 316.198 266.441C315.673 267.336 315.408 268.65 315.403 270.383C315.398 271.543 315.514 272.518 315.751 273.309C315.992 274.1 316.333 274.696 316.774 275.099C317.214 275.496 317.737 275.695 318.343 275.695ZM331.383 277.918C330.214 277.918 329.21 277.622 328.372 277.031C327.538 276.434 326.897 275.575 326.447 274.452C326.002 273.326 325.779 271.969 325.779 270.383C325.784 268.797 326.009 267.447 326.454 266.335C326.904 265.217 327.546 264.365 328.379 263.778C329.217 263.191 330.218 262.897 331.383 262.897C332.548 262.897 333.549 263.191 334.387 263.778C335.225 264.365 335.867 265.217 336.312 266.335C336.762 267.452 336.987 268.801 336.987 270.383C336.987 271.974 336.762 273.333 336.312 274.46C335.867 275.582 335.225 276.439 334.387 277.031C333.554 277.622 332.553 277.918 331.383 277.918ZM331.383 275.695C332.292 275.695 333.01 275.248 333.535 274.353C334.065 273.453 334.331 272.13 334.331 270.383C334.331 269.228 334.21 268.257 333.968 267.471C333.727 266.685 333.386 266.093 332.946 265.695C332.505 265.293 331.984 265.092 331.383 265.092C330.479 265.092 329.764 265.541 329.238 266.441C328.713 267.336 328.447 268.65 328.443 270.383C328.438 271.543 328.554 272.518 328.791 273.309C329.032 274.1 329.373 274.696 329.813 275.099C330.254 275.496 330.777 275.695 331.383 275.695ZM340.092 277.798C339.661 277.798 339.292 277.646 338.984 277.343C338.677 277.04 338.525 276.671 338.53 276.235C338.525 275.809 338.677 275.444 338.984 275.141C339.292 274.838 339.661 274.687 340.092 274.687C340.509 274.687 340.871 274.838 341.179 275.141C341.491 275.444 341.65 275.809 341.655 276.235C341.65 276.524 341.574 276.787 341.428 277.023C341.286 277.26 341.096 277.45 340.859 277.592C340.627 277.729 340.372 277.798 340.092 277.798ZM344.045 277.641L350.231 265.397V265.298H343.05V263.096H352.958V265.347L346.779 277.641H344.045ZM360.014 277.918C358.845 277.918 357.841 277.622 357.003 277.031C356.17 276.434 355.528 275.575 355.078 274.452C354.633 273.326 354.411 271.969 354.411 270.383C354.415 268.797 354.64 267.447 355.085 266.335C355.535 265.217 356.177 264.365 357.01 263.778C357.848 263.191 358.85 262.897 360.014 262.897C361.179 262.897 362.181 263.191 363.019 263.778C363.857 264.365 364.498 265.217 364.943 266.335C365.393 267.452 365.618 268.801 365.618 270.383C365.618 271.974 365.393 273.333 364.943 274.46C364.498 275.582 363.857 276.439 363.019 277.031C362.185 277.622 361.184 277.918 360.014 277.918ZM360.014 275.695C360.923 275.695 361.641 275.248 362.166 274.353C362.697 273.453 362.962 272.13 362.962 270.383C362.962 269.228 362.841 268.257 362.6 267.471C362.358 266.685 362.017 266.093 361.577 265.695C361.137 265.293 360.616 265.092 360.014 265.092C359.11 265.092 358.395 265.541 357.869 266.441C357.344 267.336 357.079 268.65 357.074 270.383C357.069 271.543 357.185 272.518 357.422 273.309C357.663 274.1 358.004 274.696 358.445 275.099C358.885 275.496 359.408 275.695 360.014 275.695Z"
            fill="#083C2F"
            className="graph-rect"
          />
          <path
            d="M59.2912 205V191.909H61.6626V203.012H67.4283V205H59.2912ZM73.3669 205.192C72.4081 205.192 71.5771 204.981 70.874 204.559C70.1709 204.137 69.6254 203.547 69.2376 202.788C68.8541 202.03 68.6624 201.143 68.6624 200.129C68.6624 199.115 68.8541 198.227 69.2376 197.464C69.6254 196.701 70.1709 196.109 70.874 195.687C71.5771 195.265 72.4081 195.054 73.3669 195.054C74.3257 195.054 75.1567 195.265 75.8598 195.687C76.5629 196.109 77.1063 196.701 77.4898 197.464C77.8776 198.227 78.0714 199.115 78.0714 200.129C78.0714 201.143 77.8776 202.03 77.4898 202.788C77.1063 203.547 76.5629 204.137 75.8598 204.559C75.1567 204.981 74.3257 205.192 73.3669 205.192ZM73.3797 203.338C73.8996 203.338 74.3342 203.195 74.6837 202.91C75.0331 202.62 75.293 202.232 75.4635 201.746C75.6382 201.261 75.7256 200.719 75.7256 200.123C75.7256 199.522 75.6382 198.979 75.4635 198.493C75.293 198.003 75.0331 197.613 74.6837 197.323C74.3342 197.033 73.8996 196.888 73.3797 196.888C72.847 196.888 72.4038 197.033 72.0501 197.323C71.7007 197.613 71.4386 198.003 71.2639 198.493C71.0935 198.979 71.0082 199.522 71.0082 200.123C71.0082 200.719 71.0935 201.261 71.2639 201.746C71.4386 202.232 71.7007 202.62 72.0501 202.91C72.4038 203.195 72.847 203.338 73.3797 203.338ZM82.5607 205.198C81.9385 205.198 81.3782 205.087 80.8796 204.866C80.3853 204.64 79.9932 204.308 79.7034 203.869C79.4179 203.43 79.2752 202.888 79.2752 202.245C79.2752 201.691 79.3774 201.233 79.582 200.871C79.7865 200.509 80.0657 200.219 80.4194 200.001C80.773 199.784 81.1715 199.62 81.6147 199.509C82.0621 199.394 82.5245 199.311 83.0017 199.26C83.577 199.2 84.0436 199.147 84.4016 199.1C84.7596 199.049 85.0195 198.972 85.1814 198.87C85.3476 198.763 85.4307 198.599 85.4307 198.378V198.339C85.4307 197.858 85.288 197.485 85.0025 197.221C84.7169 196.957 84.3057 196.825 83.7688 196.825C83.202 196.825 82.7525 196.948 82.4201 197.195C82.0919 197.442 81.8703 197.734 81.7553 198.071L79.5948 197.764C79.7652 197.168 80.0465 196.669 80.4385 196.268C80.8306 195.864 81.31 195.561 81.8767 195.361C82.4435 195.156 83.0699 195.054 83.756 195.054C84.229 195.054 84.6999 195.109 85.1686 195.22C85.6374 195.331 86.0657 195.514 86.4534 195.77C86.8412 196.021 87.1523 196.364 87.3867 196.799C87.6253 197.234 87.7446 197.777 87.7446 198.429V205H85.5202V203.651H85.4435C85.3029 203.924 85.1047 204.18 84.849 204.418C84.5976 204.653 84.2801 204.842 83.8966 204.987C83.5174 205.128 83.0721 205.198 82.5607 205.198ZM83.1615 203.498C83.626 203.498 84.0287 203.406 84.3696 203.223C84.7105 203.036 84.9726 202.788 85.1559 202.482C85.3434 202.175 85.4371 201.84 85.4371 201.478V200.321C85.3647 200.381 85.2411 200.436 85.0664 200.487C84.8959 200.538 84.7042 200.583 84.4911 200.621C84.278 200.66 84.0671 200.694 83.8583 200.724C83.6495 200.754 83.4684 200.779 83.315 200.8C82.9698 200.847 82.6608 200.924 82.3881 201.031C82.1154 201.137 81.9002 201.286 81.7425 201.478C81.5848 201.665 81.506 201.908 81.506 202.207C81.506 202.633 81.6615 202.955 81.9726 203.172C82.2837 203.389 82.68 203.498 83.1615 203.498ZM92.0853 199.247V205H89.7713V195.182H91.983V196.85H92.098C92.3239 196.3 92.684 195.864 93.1783 195.54C93.6769 195.216 94.2926 195.054 95.0256 195.054C95.7032 195.054 96.2934 195.199 96.7962 195.489C97.3033 195.778 97.6953 196.198 97.9723 196.748C98.2536 197.298 98.3921 197.964 98.3878 198.749V205H96.0739V199.107C96.0739 198.45 95.9034 197.937 95.5625 197.566C95.2259 197.195 94.7593 197.01 94.1627 197.01C93.7578 197.01 93.3978 197.099 93.0824 197.278C92.7713 197.453 92.5263 197.707 92.3473 198.039C92.1726 198.371 92.0853 198.774 92.0853 199.247ZM108.2 197.777L106.091 198.007C106.031 197.794 105.927 197.594 105.777 197.406C105.633 197.219 105.437 197.067 105.189 196.952C104.942 196.837 104.64 196.78 104.282 196.78C103.8 196.78 103.395 196.884 103.067 197.093C102.743 197.302 102.584 197.572 102.588 197.905C102.584 198.19 102.688 198.423 102.901 198.602C103.118 198.781 103.476 198.928 103.975 199.043L105.65 199.401C106.579 199.601 107.269 199.918 107.721 200.353C108.177 200.788 108.407 201.357 108.411 202.06C108.407 202.678 108.226 203.223 107.868 203.696C107.514 204.165 107.022 204.531 106.391 204.795C105.76 205.06 105.036 205.192 104.218 205.192C103.016 205.192 102.049 204.94 101.316 204.438C100.583 203.93 100.146 203.225 100.005 202.322L102.262 202.104C102.364 202.548 102.581 202.882 102.914 203.108C103.246 203.334 103.679 203.447 104.211 203.447C104.761 203.447 105.202 203.334 105.535 203.108C105.871 202.882 106.04 202.603 106.04 202.271C106.04 201.989 105.931 201.757 105.714 201.574C105.5 201.391 105.168 201.25 104.716 201.152L103.042 200.8C102.1 200.604 101.403 200.274 100.951 199.81C100.5 199.341 100.276 198.749 100.28 198.033C100.276 197.428 100.44 196.903 100.772 196.46C101.109 196.013 101.576 195.668 102.172 195.425C102.773 195.178 103.466 195.054 104.25 195.054C105.4 195.054 106.306 195.299 106.966 195.789C107.631 196.279 108.042 196.942 108.2 197.777ZM122.954 195.182L119.457 205H116.9L113.404 195.182H115.871L118.128 202.475H118.23L120.493 195.182H122.954ZM126.799 205.198C126.177 205.198 125.616 205.087 125.118 204.866C124.624 204.64 124.232 204.308 123.942 203.869C123.656 203.43 123.513 202.888 123.513 202.245C123.513 201.691 123.616 201.233 123.82 200.871C124.025 200.509 124.304 200.219 124.658 200.001C125.011 199.784 125.41 199.62 125.853 199.509C126.3 199.394 126.763 199.311 127.24 199.26C127.815 199.2 128.282 199.147 128.64 199.1C128.998 199.049 129.258 198.972 129.42 198.87C129.586 198.763 129.669 198.599 129.669 198.378V198.339C129.669 197.858 129.526 197.485 129.241 197.221C128.955 196.957 128.544 196.825 128.007 196.825C127.44 196.825 126.991 196.948 126.658 197.195C126.33 197.442 126.109 197.734 125.994 198.071L123.833 197.764C124.004 197.168 124.285 196.669 124.677 196.268C125.069 195.864 125.548 195.561 126.115 195.361C126.682 195.156 127.308 195.054 127.994 195.054C128.467 195.054 128.938 195.109 129.407 195.22C129.876 195.331 130.304 195.514 130.692 195.77C131.08 196.021 131.391 196.364 131.625 196.799C131.864 197.234 131.983 197.777 131.983 198.429V205H129.758V203.651H129.682C129.541 203.924 129.343 204.18 129.087 204.418C128.836 204.653 128.518 204.842 128.135 204.987C127.756 205.128 127.31 205.198 126.799 205.198ZM127.4 203.498C127.864 203.498 128.267 203.406 128.608 203.223C128.949 203.036 129.211 202.788 129.394 202.482C129.582 202.175 129.675 201.84 129.675 201.478V200.321C129.603 200.381 129.479 200.436 129.305 200.487C129.134 200.538 128.942 200.583 128.729 200.621C128.516 200.66 128.305 200.694 128.097 200.724C127.888 200.754 127.707 200.779 127.553 200.8C127.208 200.847 126.899 200.924 126.626 201.031C126.354 201.137 126.138 201.286 125.981 201.478C125.823 201.665 125.744 201.908 125.744 202.207C125.744 202.633 125.9 202.955 126.211 203.172C126.522 203.389 126.918 203.498 127.4 203.498ZM136.324 191.909V205H134.01V191.909H136.324ZM144.661 200.871V195.182H146.975V205H144.731V203.255H144.629C144.407 203.805 144.043 204.254 143.536 204.604C143.033 204.953 142.413 205.128 141.676 205.128C141.032 205.128 140.463 204.985 139.969 204.7C139.479 204.41 139.095 203.99 138.818 203.44C138.541 202.886 138.403 202.217 138.403 201.433V195.182H140.717V201.075C140.717 201.697 140.887 202.192 141.228 202.558C141.569 202.925 142.017 203.108 142.571 203.108C142.912 203.108 143.242 203.025 143.561 202.859C143.881 202.692 144.143 202.445 144.348 202.117C144.556 201.785 144.661 201.369 144.661 200.871ZM153.401 205.192C152.416 205.192 151.566 204.987 150.85 204.578C150.139 204.165 149.591 203.581 149.208 202.827C148.824 202.068 148.632 201.175 148.632 200.148C148.632 199.138 148.824 198.252 149.208 197.489C149.595 196.722 150.137 196.126 150.831 195.7C151.526 195.269 152.342 195.054 153.279 195.054C153.884 195.054 154.455 195.152 154.992 195.348C155.534 195.54 156.011 195.838 156.424 196.243C156.842 196.648 157.17 197.163 157.409 197.79C157.647 198.412 157.767 199.153 157.767 200.014V200.724H149.719V199.164H155.548C155.544 198.721 155.448 198.327 155.261 197.982C155.073 197.632 154.811 197.357 154.475 197.157C154.142 196.957 153.754 196.857 153.311 196.857C152.838 196.857 152.423 196.972 152.065 197.202C151.707 197.428 151.428 197.726 151.227 198.097C151.031 198.463 150.931 198.866 150.927 199.305V200.666C150.927 201.237 151.031 201.727 151.24 202.136C151.449 202.541 151.741 202.852 152.116 203.07C152.491 203.283 152.93 203.389 153.433 203.389C153.769 203.389 154.074 203.342 154.347 203.249C154.619 203.151 154.856 203.008 155.056 202.82C155.257 202.633 155.408 202.401 155.51 202.124L157.671 202.366C157.534 202.937 157.274 203.436 156.891 203.862C156.512 204.284 156.026 204.612 155.433 204.847C154.841 205.077 154.164 205.192 153.401 205.192Z"
            fill="#083C2F"
            className="graph-rect"
          />
          <circle
            opacity="0.6"
            cx="512.5"
            cy="175.5"
            r="38"
            stroke="url(#paint4_linear_354_1895)"
            className="loans-circle"
          />
        </g>
      </g>
      <defs>
        <linearGradient
          id="paint0_linear_354_1895"
          x1="-56"
          y1="174.497"
          x2="565"
          y2="174.497"
          gradientUnits="userSpaceOnUse"
        >
          <stop stop-color="#083C2F" stop-opacity="0" />
          <stop offset="0.494792" stop-color="#083C2F" />
          <stop offset="1" stop-color="#083C2F" stop-opacity="0" />
        </linearGradient>
        <linearGradient
          id="paint1_linear_354_1895"
          x1="574"
          y1="479.497"
          x2="-47"
          y2="479.497"
          gradientUnits="userSpaceOnUse"
        >
          <stop stop-color="#083C2F" stop-opacity="0" />
          <stop offset="0.494792" stop-color="#083C2F" />
          <stop offset="1" stop-color="#083C2F" stop-opacity="0" />
        </linearGradient>
        <linearGradient
          id="paint2_linear_354_1895"
          x1="28.4972"
          y1="668.5"
          x2="28.4972"
          y2="84.7"
          gradientUnits="userSpaceOnUse"
        >
          <stop offset="0.0364583" stop-color="#083C2F" stop-opacity="0" />
          <stop offset="0.494792" stop-color="#083C2F" />
          <stop offset="1" stop-color="#083C2F" stop-opacity="0" />
        </linearGradient>
        <linearGradient
          id="paint3_linear_354_1895"
          x1="511.497"
          y1="668"
          x2="511.497"
          y2="84.2"
          gradientUnits="userSpaceOnUse"
        >
          <stop offset="0.0364583" stop-color="#083C2F" stop-opacity="0" />
          <stop offset="0.494792" stop-color="#083C2F" />
          <stop offset="1" stop-color="#083C2F" stop-opacity="0" />
        </linearGradient>
        <linearGradient
          id="paint4_linear_354_1895"
          x1="462.716"
          y1="145.629"
          x2="541.707"
          y2="221.966"
          gradientUnits="userSpaceOnUse"
        >
          <stop offset="0.0385834" stop-color="#083C2F" stop-opacity="0" />
          <stop offset="0.545402" stop-color="#083C2F" />
          <stop offset="1" stop-color="#083C2F" stop-opacity="0" />
        </linearGradient>
        <clipPath id="clip0_354_1895">
          <rect
            y="0.212158"
            width="615.555"
            height="480"
            rx="16"
            fill="white"
          />
        </clipPath>
        <clipPath id="clip1_354_1895">
          <rect x="-13" y="104" width="578" height="454" rx="8" fill="white" />
        </clipPath>
      </defs>
    </svg>