<svg width="205" height="50" viewBox="0 0 205 50" fill="none" xmlns="http://www.w3.org/2000/svg">
<path d="M82.8278 32.9688C81.6929 32.9688 80.6447 32.7717 79.6832 32.3777C78.7375 31.9679 77.91 31.4083 77.2007 30.699C76.4914 29.974 75.9397 29.1228 75.5457 28.1456C75.1516 27.1683 74.9546 26.0965 74.9546 24.9301C74.9546 23.7637 75.1516 22.6919 75.5457 21.7146C75.9397 20.7374 76.4914 19.8941 77.2007 19.1848C77.91 18.4598 78.7375 17.9002 79.6832 17.5062C80.6447 17.0964 81.6929 16.8915 82.8278 16.8915C83.9626 16.8915 85.0108 17.0964 85.9723 17.5062C86.9338 17.9002 87.7692 18.4598 88.4785 19.1848C89.1878 19.8941 89.7394 20.7374 90.1335 21.7146C90.5275 22.6919 90.7246 23.7637 90.7246 24.9301C90.7246 26.0965 90.5275 27.1683 90.1335 28.1456C89.7394 29.1228 89.1878 29.974 88.4785 30.699C87.7692 31.4083 86.9338 31.9679 85.9723 32.3777C85.0108 32.7717 83.9626 32.9688 82.8278 32.9688ZM83.3243 31.7866C84.333 31.7866 85.2157 31.5344 85.9723 31.03C86.7446 30.5257 87.3436 29.8164 87.7692 28.9022C88.2105 27.988 88.4312 26.9083 88.4312 25.663C88.4312 24.1341 88.1632 22.8022 87.6273 21.6674C87.0914 20.5167 86.3663 19.6262 85.4521 18.9957C84.5537 18.3652 83.5449 18.05 82.4258 18.05C81.417 18.05 80.5186 18.3022 79.7305 18.8065C78.9582 19.2952 78.3513 19.9966 77.91 20.9108C77.4686 21.825 77.248 22.9047 77.248 24.1499C77.248 25.6788 77.5159 27.0186 78.0518 28.1692C78.6035 29.3199 79.3364 30.2104 80.2506 30.8409C81.1649 31.4714 82.1894 31.7866 83.3243 31.7866Z" fill="#083C2F"/>
<path d="M95.9446 32.7323V32.3541L97.4341 31.5975V17.6953L96.0155 16.4659V16.3004L99.1837 15H99.3255V31.5975L100.815 32.3541V32.7323H95.9446Z" fill="#083C2F"/>
<path d="M108.028 18.9957C107.618 18.9957 107.28 18.8617 107.012 18.5938C106.744 18.31 106.61 17.9712 106.61 17.5771C106.61 17.1673 106.744 16.8284 107.012 16.5604C107.28 16.2925 107.618 16.1585 108.028 16.1585C108.438 16.1585 108.777 16.2925 109.045 16.5604C109.313 16.8284 109.447 17.1673 109.447 17.5771C109.447 17.9712 109.313 18.31 109.045 18.5938C108.777 18.8617 108.438 18.9957 108.028 18.9957ZM105.664 32.7323V32.3541L107.153 31.5975V24.5518L105.735 23.3224V23.1569L108.903 21.8565H109.045V31.5975L110.534 32.3541V32.7323H105.664Z" fill="#083C2F"/>
<path d="M119.699 32.7323L115.372 23.2042L113.788 22.4712V22.0929H119.439V22.4712L117.5 23.1805V23.3224L120.527 29.9188H120.621L123.293 23.4642V23.3224L121.59 22.4712V22.0929H126.224V22.4712L124.475 23.2987L120.195 32.7323H119.699Z" fill="#083C2F"/>
<path d="M134.349 32.9688C132.82 32.9688 131.614 32.5038 130.731 31.5738C129.848 30.6439 129.407 29.4144 129.407 27.8855C129.407 26.7033 129.636 25.663 130.093 24.7646C130.566 23.8504 131.18 23.1411 131.937 22.6367C132.709 22.1166 133.545 21.8565 134.443 21.8565C135.688 21.8565 136.666 22.29 137.375 23.1569C138.1 24.0238 138.462 25.269 138.462 26.8925L138.344 27.0107H131.275C131.291 27.7358 131.433 28.4214 131.701 29.0677C131.968 29.6981 132.394 30.2104 132.977 30.6045C133.576 30.9985 134.372 31.1955 135.365 31.1955C136.232 31.1955 137.249 30.8803 138.415 30.2498H138.486V30.4862C138.124 31.164 137.58 31.7472 136.855 32.2358C136.145 32.7245 135.31 32.9688 134.349 32.9688ZM134.065 22.8968C133.308 22.8968 132.686 23.1648 132.197 23.7007C131.724 24.2208 131.433 24.9616 131.322 25.9231H136.666C136.492 24.8513 136.185 24.079 135.743 23.6061C135.318 23.1332 134.758 22.8968 134.065 22.8968Z" fill="#083C2F"/>
<path d="M147.128 32.9688C146.435 32.9688 145.836 32.7639 145.331 32.3541C144.827 31.9442 144.575 31.3689 144.575 30.6281V23.2042H142.636V23.0623L144.646 22.0929L146.324 19.4922H146.466V22.0929H149.587V23.2042H146.466V30.2262C146.466 30.636 146.647 30.9355 147.01 31.1246C147.372 31.3138 147.798 31.4083 148.287 31.4083C148.586 31.4083 148.862 31.3926 149.114 31.361C149.382 31.3295 149.611 31.2901 149.8 31.2428H149.871V31.4793C149.713 31.8418 149.398 32.1807 148.925 32.4959C148.468 32.8112 147.869 32.9688 147.128 32.9688Z" fill="#083C2F"/>
<path d="M154.562 32.7323V32.3541L156.052 31.5975V24.5518L154.633 23.3224V23.1569L157.565 21.8565H157.707L157.919 23.8662H158.014C158.376 23.283 158.707 22.8495 159.007 22.5658C159.322 22.2663 159.614 22.0772 159.882 21.9984C160.15 21.9038 160.418 21.8565 160.686 21.8565C160.812 21.8565 160.954 21.8802 161.111 21.9274C161.285 21.9747 161.426 22.022 161.537 22.0693C161.71 22.1481 161.868 22.2427 162.01 22.353C162.167 22.4633 162.246 22.5894 162.246 22.7313C162.246 22.8732 162.215 23.015 162.151 23.1569L161.679 24.3154H161.513L160.615 23.9607C160.441 23.8819 160.268 23.8346 160.095 23.8189C159.937 23.8031 159.779 23.7952 159.622 23.7952C158.96 23.7952 158.4 24.1341 157.943 24.8119V31.5975L159.622 32.3541V32.7323H154.562Z" fill="#083C2F"/>
<path d="M171.387 32.9688C169.858 32.9688 168.652 32.5038 167.769 31.5738C166.887 30.6439 166.445 29.4144 166.445 27.8855C166.445 26.7033 166.674 25.663 167.131 24.7646C167.604 23.8504 168.218 23.1411 168.975 22.6367C169.747 22.1166 170.583 21.8565 171.481 21.8565C172.726 21.8565 173.704 22.29 174.413 23.1569C175.138 24.0238 175.5 25.269 175.5 26.8925L175.382 27.0107H168.313C168.329 27.7358 168.471 28.4214 168.739 29.0677C169.007 29.6981 169.432 30.2104 170.015 30.6045C170.614 30.9985 171.41 31.1955 172.403 31.1955C173.27 31.1955 174.287 30.8803 175.453 30.2498H175.524V30.4862C175.162 31.164 174.618 31.7472 173.893 32.2358C173.183 32.7245 172.348 32.9688 171.387 32.9688ZM171.103 22.8968C170.346 22.8968 169.724 23.1648 169.235 23.7007C168.762 24.2208 168.471 24.9616 168.36 25.9231H173.704C173.53 24.8513 173.223 24.079 172.782 23.6061C172.356 23.1332 171.796 22.8968 171.103 22.8968Z" fill="#083C2F"/>
<path d="M185.372 32.9688C183.843 32.9688 182.637 32.5038 181.755 31.5738C180.872 30.6439 180.431 29.4144 180.431 27.8855C180.431 26.7033 180.659 25.663 181.116 24.7646C181.589 23.8504 182.204 23.1411 182.96 22.6367C183.733 22.1166 184.568 21.8565 185.466 21.8565C186.712 21.8565 187.689 22.29 188.398 23.1569C189.123 24.0238 189.486 25.269 189.486 26.8925L189.368 27.0107H182.298C182.314 27.7358 182.456 28.4214 182.724 29.0677C182.992 29.6981 183.417 30.2104 184.001 30.6045C184.6 30.9985 185.396 31.1955 186.389 31.1955C187.255 31.1955 188.272 30.8803 189.439 30.2498H189.509V30.4862C189.147 31.164 188.603 31.7472 187.878 32.2358C187.169 32.7245 186.333 32.9688 185.372 32.9688ZM185.088 22.8968C184.332 22.8968 183.709 23.1648 183.22 23.7007C182.748 24.2208 182.456 24.9616 182.346 25.9231H187.689C187.516 24.8513 187.208 24.079 186.767 23.6061C186.341 23.1332 185.782 22.8968 185.088 22.8968Z" fill="#083C2F"/>
<path d="M14.1543 28.3044C19.192 25.4885 26.3288 24.8576 31.6187 26.4193L32.0773 26.5848C32.0535 26.6711 32.027 26.7472 31.9981 26.8151C31.8835 27.0846 31.7181 27.2606 31.4564 27.457C31.3436 27.5416 31.2133 27.6288 31.0676 27.7262C30.5064 28.1014 29.7166 28.6295 28.8181 29.7576C27.9237 30.8805 28.3382 32.497 29.6022 33.796C29.9137 34.1161 30.2824 34.4258 30.7082 34.7169C30.1796 35.2775 29.6202 36.0653 29.3095 36.975C28.9015 38.1696 28.9231 39.5877 30.0092 40.9189C30.5671 41.6027 30.7424 42.1608 30.7315 42.591C30.7207 43.0164 30.5261 43.3897 30.1942 43.7065C29.8579 44.0274 29.3923 44.2766 28.8925 44.4284C28.4093 44.5751 27.9262 44.621 27.5412 44.5724C22.9868 42.2562 19.3068 38.478 17.1256 33.8585L16.2845 34.2523C20.1199 42.375 28.4123 48 38.0249 48C47.6376 48 55.9299 42.375 59.7654 34.2523L58.9243 33.8585C57.0742 37.7766 54.1459 41.0896 50.5204 43.4185C49.7383 43.4268 49.1421 42.8766 48.6675 42.0061C48.202 41.1521 47.935 40.1237 47.7864 39.4574C47.8054 39.2759 47.8107 39.0937 47.8013 38.9116C47.7249 37.4277 46.6917 36.1366 44.6019 35.2972C45.6362 33.5514 46.1035 32.1659 46.1779 30.9822C46.2643 29.6067 45.8164 28.5649 45.2378 27.622C45.0254 27.2758 44.8413 26.9209 44.6875 26.5607L45.0793 26.4193C50.1348 24.9268 56.8769 25.4369 61.8617 27.9427C61.9141 27.6233 61.9603 27.3018 62 26.9784C59.9401 25.9844 57.6184 25.3106 55.2435 24.9558C56.3906 23.9092 57.5913 23.0218 58.9775 22.2307L58.5154 21.4277C56.8337 22.3874 55.4145 23.4828 54.0508 24.8047C50.8306 24.4695 47.5767 24.7143 44.8015 25.536L44.7884 25.5399L44.3775 25.6882C43.9018 24.0164 44.085 22.2887 45.0991 20.8191C45.109 20.8047 45.119 20.7902 45.129 20.7758C45.1452 20.7523 45.1616 20.7289 45.178 20.7054C50.176 21.9852 56.6083 21.8038 61.4957 18.309C61.4168 17.9859 61.3313 17.6652 61.2395 17.3473C56.7299 20.7462 50.6453 21.0591 45.7702 19.8981C46.455 19.0074 47.2733 18.0814 48.2397 17.1754C52.1556 17.5384 56.4156 17.0897 60.2303 14.5306C60.1061 14.2423 59.9764 13.9569 59.8414 13.6745C56.5069 15.9629 52.7775 16.5279 49.2052 16.3204C51.5631 14.3488 54.6739 12.5614 58.697 11.5606C58.5282 11.2828 58.3538 11.0087 58.1742 10.7385C51.0381 12.6 46.7028 16.8605 44.333 20.2949C42.6605 22.7188 42.9538 25.6749 44.4447 28.1046C44.9692 28.9593 45.3203 29.8098 45.2502 30.9244C45.1862 31.9424 44.7678 33.2289 43.7126 34.9753C39.9756 33.6288 38.7001 32.1392 38.2827 30.7929C38.061 30.0778 38.0635 29.3529 38.1316 28.6142C38.153 28.3817 38.1828 28.1375 38.2129 27.8898L38.2129 27.8896C38.2736 27.3915 38.3359 26.8794 38.3359 26.4201V20.3206C38.6195 13.8196 41.4408 6.39087 44.9146 0.927216C44.6055 0.835275 44.2937 0.74932 43.9796 0.669486C40.9328 5.53594 38.3926 11.8817 37.6226 17.8265C37.4213 16.4037 37.1711 14.9226 36.8642 13.4355C36.8071 13.1592 36.7481 12.8825 36.687 12.6056L36.7293 12.6175C37.3978 10.2613 38.9075 5.02737 40.8947 0.0958247C40.5757 0.057666 40.2549 0.0256832 39.9323 0C38.3285 4.01984 37.0443 8.19536 36.2707 10.8489C35.2971 7.01914 33.9017 3.31313 31.9288 0.681076C31.6046 0.764121 31.2831 0.853684 30.9643 0.949619C33.3705 3.9842 34.9572 8.79321 35.9537 13.6219C36.9928 18.6565 37.3736 23.6256 37.4065 26.4228C37.4063 26.829 37.3558 27.2391 37.2995 27.6955C37.2675 27.9558 37.2335 28.2313 37.206 28.5296C37.1338 29.3137 37.12 30.1801 37.3946 31.0659C37.9554 32.8747 39.6483 34.568 43.8065 35.9895C46.0326 36.7506 46.8179 37.887 46.8731 38.9589C46.8821 39.1346 46.8721 39.3142 46.8438 39.4961L46.8436 39.4962L46.8437 39.4968C46.6903 40.4819 46.002 41.5383 44.9085 42.4379C42.3174 44.5695 37.8877 45.4819 34.7431 42.4624C34.5091 42.2377 34.1955 41.8022 34.0398 41.3333C33.8849 40.8669 33.9127 40.4689 34.1783 40.1733C34.5619 39.7464 35.0945 39.6209 35.7925 39.7491C35.8942 39.7678 36.0075 39.7869 36.1292 39.8075L36.1295 39.8076L36.1297 39.8076C36.86 39.9311 37.8962 40.1062 38.5969 40.5455C37.6945 39.3992 36.8444 39.0012 35.9611 38.8389C35.0635 38.674 34.1554 38.8108 33.4856 39.5562C32.9086 40.1984 32.9484 40.9949 33.1574 41.6239C33.3655 42.2505 33.7676 42.8114 34.098 43.1287C37.7 46.5874 42.686 45.4668 45.5004 43.1514C46.2373 42.5452 46.8551 41.8339 47.2652 41.0724C47.4169 41.5262 47.6088 42.004 47.8507 42.4477C48.2079 43.103 48.7134 43.7481 49.405 44.0913C46.0465 45.9902 42.1628 47.0745 38.0249 47.0745C34.8822 47.0745 31.886 46.449 29.1552 45.3162L29.1636 45.3137C29.7695 45.1297 30.3734 44.8175 30.8374 44.3746C31.3058 43.9276 31.6424 43.3345 31.6607 42.6144C31.6788 41.899 31.3809 41.1323 30.7306 40.3353C29.8834 39.2971 29.8637 38.2266 30.1894 37.273C30.4759 36.4342 31.0298 35.6974 31.5217 35.2112C32.7795 35.8905 34.4088 36.4179 36.4095 36.6592C38.1246 36.866 39.7587 37.4623 41.0072 38.23C42.2784 39.0116 43.0591 39.9124 43.2304 40.6808C43.1553 38.6492 42.5194 38.0676 41.1781 37.2429C39.8142 36.4042 38.3688 35.9631 36.5212 35.7403C33.4244 35.3669 31.3742 34.2869 30.2697 33.1519C29.1394 31.9904 29.0848 30.9121 29.5463 30.3327C30.3459 29.3287 30.9953 28.8929 31.5507 28.52L31.5509 28.5199C31.7134 28.4108 31.8679 28.3071 32.0158 28.1961C32.3543 27.9421 32.6538 27.6468 32.854 27.1759C33.0468 26.7226 33.1306 26.146 33.1306 25.3574C33.1306 23.3101 31.9521 20.4162 29.4479 17.5938C27.0124 14.8489 23.2967 12.1386 18.0867 10.2875C17.9045 10.5487 17.7273 10.8137 17.5553 11.0822C21.5077 12.4564 24.5683 14.3296 26.8451 16.32C23.281 16.5259 19.3753 15.9783 16.0668 13.7704C15.9332 14.053 15.805 14.3385 15.6822 14.6269C19.4674 17.0947 23.9178 17.5307 27.7728 17.1788C28.1209 17.5202 28.4468 17.8634 28.7513 18.2066C29.2499 18.7685 29.6896 19.3288 30.0735 19.8795C25.2409 21.0489 19.1988 20.7708 14.6814 17.4623C14.5915 17.7796 14.5079 18.0996 14.4308 18.4221C19.3049 21.8124 25.6629 21.9717 30.6094 20.6999C31.7085 22.5026 32.2011 24.154 32.2011 25.3574C32.2011 25.4583 32.1996 25.5535 32.1967 25.6435L31.9097 25.5399L31.8966 25.536C28.783 24.6142 25.0671 24.4184 21.472 24.9532C20.0687 23.5889 18.494 22.4026 16.7857 21.4277L16.3236 22.2307C17.7656 23.0537 19.1088 24.0337 20.3281 25.1489C18.0791 25.585 15.909 26.3126 14 27.333C14.0449 27.6589 14.0964 27.9827 14.1543 28.3044Z" fill="#083C2F"/>
<path fill-rule="evenodd" clip-rule="evenodd" d="M19.3273 8.66078C21.4823 9.97831 23.9476 10.8296 26.3779 11.2892L26.3677 11.3087C31.478 14.1793 32.6078 17.4607 34.1142 22.8984C35.0557 18.867 34.6064 15.3632 33.005 11.303C31.6584 7.88884 29.6794 4.69827 27.5596 2.26292C27.2704 2.40045 26.9843 2.54353 26.7016 2.69201C28.0119 4.16874 29.2766 5.9539 30.3685 7.911C28.0307 7.53319 25.0855 6.33963 23.1714 4.95631C23.0772 5.02891 22.9836 5.10218 22.8906 5.17613L22.5426 5.64493C24.7554 7.27358 28.2849 8.65199 30.9055 8.91511C31.2144 9.51836 31.5058 10.135 31.7763 10.7614C28.1231 10.938 23.5674 10.1204 19.9422 7.94988C19.7327 8.18281 19.5277 8.41982 19.3273 8.66078ZM32.15 11.6672C31.038 11.7393 29.8389 11.7219 28.6014 11.6044C31.3334 13.6066 32.934 16.374 33.831 19.1078C33.7335 16.6648 33.1132 14.1161 32.15 11.6672Z" fill="#083C2F"/>
<path fill-rule="evenodd" clip-rule="evenodd" d="M47.8568 2.0154C45.6551 4.48001 43.5859 7.77192 42.1932 11.303C40.5918 15.3632 40.1425 18.867 41.084 22.8984C42.5785 17.5035 43.7024 14.2311 48.7105 11.3766C51.352 10.9328 54.0627 10.0297 56.3957 8.57105L55.9863 7.92189C55.9502 7.88185 55.9139 7.84193 55.8776 7.80213C53.6191 9.20871 50.9746 10.0744 48.4031 10.4892L48.4021 10.4873L48.3965 10.4903C46.6608 10.7697 44.9586 10.8437 43.4312 10.7399C43.719 10.0747 44.0305 9.42051 44.3614 8.78177C45.6005 8.62358 47.0772 8.2618 48.507 7.76438C50.0951 7.21185 51.661 6.47969 52.7954 5.64476L52.2429 4.90048C51.2118 5.65937 49.7415 6.35449 48.2004 6.89064C47.0731 7.28284 45.9269 7.5834 44.9137 7.76145C46.037 5.77287 47.3371 3.96706 48.6786 2.48916L48.7342 2.42788C48.445 2.28475 48.1525 2.14721 47.8568 2.0154ZM43.0589 11.6398L43.0583 11.6414C42.0893 14.0982 41.4651 16.6562 41.3672 19.1078C42.2587 16.3908 43.8452 13.6405 46.5466 11.6413C45.3245 11.7352 44.1459 11.7313 43.0589 11.6398Z" fill="#083C2F"/>
</svg>
