<svg width="739" height="739" viewBox="0 0 739 739" fill="none" xmlns="http://www.w3.org/2000/svg">
<g style="mix-blend-mode:overlay" opacity="0.05">
<path d="M2.37616 435.769C79.9357 392.417 189.811 382.703 271.255 406.748L278.315 409.295C277.949 410.624 277.54 411.795 277.096 412.84C275.332 416.989 272.785 419.7 268.756 422.723C267.019 424.027 265.013 425.368 262.77 426.868C254.13 432.644 241.97 440.775 228.137 458.143C214.367 475.432 220.749 500.319 240.209 520.317C245.005 525.246 250.681 530.014 257.237 534.496C249.098 543.127 240.486 555.255 235.702 569.26C229.42 587.653 229.753 609.486 246.475 629.981C255.065 640.508 257.763 649.101 257.595 655.724C257.429 662.273 254.434 668.02 249.324 672.897C244.146 677.839 236.977 681.676 229.283 684.012C221.844 686.271 214.406 686.978 208.478 686.229C138.359 650.57 81.7031 592.401 48.1209 521.28L35.1713 527.343C94.2211 652.399 221.889 739 369.884 739C517.878 739 645.546 652.399 704.596 527.343L691.646 521.28C663.163 581.603 618.079 632.608 562.262 668.464C550.22 668.592 541.042 660.12 533.735 646.719C526.568 633.571 522.458 617.738 520.169 607.48C520.462 604.685 520.544 601.881 520.399 599.076C519.223 576.23 503.315 556.353 471.142 543.43C487.065 516.551 494.26 495.221 495.405 476.997C496.736 455.821 489.84 439.78 480.933 425.264C477.662 419.933 474.828 414.47 472.46 408.924L478.492 406.748C556.325 383.769 660.125 391.622 736.871 430.202C737.678 425.284 738.389 420.335 739 415.354C707.286 400.051 671.542 389.678 634.978 384.215C652.639 368.103 671.125 354.439 692.467 342.26L685.352 329.897C659.461 344.672 637.611 361.537 616.616 381.889C567.037 376.728 516.942 380.498 474.214 393.148L474.013 393.208L467.687 395.491C460.364 369.752 463.183 343.154 478.796 320.527C478.949 320.305 479.103 320.083 479.257 319.86C479.507 319.5 479.759 319.138 480.012 318.776C556.959 338.481 655.99 335.687 731.236 281.883C730.021 276.907 728.705 271.971 727.291 267.077C657.863 319.405 564.185 324.222 489.129 306.349C499.672 292.634 512.27 278.379 527.149 264.43C587.437 270.018 653.023 263.111 711.754 223.71C709.842 219.271 707.845 214.877 705.766 210.53C654.429 245.762 597.011 254.461 542.013 251.265C578.315 220.912 626.209 193.394 688.148 177.985C685.548 173.708 682.864 169.488 680.099 165.327C570.232 193.987 503.487 259.581 467.002 312.457C441.252 349.775 445.768 395.287 468.722 432.693C476.797 445.853 482.202 458.947 481.123 476.107C480.138 491.78 473.696 511.587 457.45 538.474C399.917 517.743 380.279 494.81 373.852 474.082C370.439 463.073 370.478 451.913 371.526 440.539C371.856 436.959 372.314 433.2 372.778 429.387L372.779 429.383C373.712 421.715 374.672 413.831 374.672 406.76V312.853C379.037 212.764 422.473 98.3927 475.956 14.2753C471.197 12.8598 466.397 11.5364 461.56 10.3073C414.653 85.2304 375.545 182.928 363.69 274.454C360.59 252.548 356.738 229.746 352.013 206.851C351.135 202.597 350.226 198.336 349.285 194.074L349.937 194.257C360.229 157.981 383.471 77.4006 414.066 1.4753C409.156 0.887816 404.216 0.395415 399.249 0C374.558 61.8887 354.787 126.174 342.875 167.028C327.887 108.066 306.404 51.0084 276.029 10.4857C271.038 11.7643 266.088 13.1432 261.18 14.6202C298.225 61.34 322.654 135.379 337.996 209.72C353.993 287.232 359.856 363.736 360.362 406.8C360.359 413.054 359.581 419.369 358.716 426.395C358.222 430.403 357.7 434.644 357.276 439.237C356.164 451.308 355.951 464.648 360.179 478.285C368.813 506.134 394.877 532.203 458.895 554.089C493.169 565.806 505.259 583.302 506.109 599.805C506.248 602.51 506.093 605.274 505.658 608.076L505.654 608.077L505.656 608.087C503.295 623.253 492.697 639.516 475.862 653.366C435.971 686.184 367.771 700.232 319.358 653.745C315.754 650.285 310.927 643.579 308.529 636.36C306.145 629.18 306.572 623.053 310.662 618.502C316.568 611.929 324.767 609.997 335.513 611.97C337.08 612.258 338.823 612.553 340.698 612.87L340.703 612.871L340.706 612.871C351.949 614.772 367.903 617.469 378.69 624.232C364.796 606.584 351.709 600.456 338.109 597.958C324.29 595.419 310.31 597.524 299.998 609C291.113 618.888 291.727 631.15 294.944 640.835C298.148 650.482 304.339 659.118 309.425 664.002C364.881 717.251 441.645 699.999 484.976 664.352C496.32 655.019 505.832 644.068 512.145 632.344C514.481 639.33 517.436 646.687 521.159 653.517C526.659 663.606 534.442 673.539 545.09 678.823C493.382 708.058 433.589 724.751 369.884 724.751C321.499 724.751 275.37 715.121 233.327 697.681L233.457 697.642C242.785 694.809 252.081 690.003 259.226 683.184C266.437 676.301 271.62 667.171 271.9 656.083C272.179 645.07 267.594 633.266 257.581 620.995C244.539 605.011 244.235 588.53 249.25 573.849C253.661 560.935 262.188 549.591 269.761 542.106C289.126 552.564 314.21 560.684 345.012 564.398C371.418 567.582 396.577 576.764 415.799 588.583C435.369 600.616 447.389 614.484 450.026 626.315C448.87 595.036 439.08 586.083 418.43 573.385C397.431 560.473 375.179 553.683 346.733 550.252C299.056 544.503 267.49 527.875 250.485 510.401C233.084 492.519 232.244 475.918 239.349 466.997C251.659 451.541 261.657 444.83 270.208 439.089L270.211 439.088C272.713 437.408 275.092 435.811 277.368 434.103C282.58 430.192 287.19 425.645 290.273 418.396C293.241 411.416 294.531 402.54 294.531 390.399C294.531 358.879 276.387 314.325 237.833 270.871C200.337 228.61 143.13 186.884 62.9183 158.385C60.1125 162.406 57.3844 166.485 54.7364 170.62C115.588 191.777 162.708 220.616 197.761 251.26C142.889 254.429 82.757 245.999 31.8199 212.007C29.7634 216.357 27.7893 220.753 25.8995 225.194C84.1751 263.188 152.693 269.9 212.044 264.481C217.402 269.738 222.421 275.022 227.109 280.306C234.785 288.957 241.554 297.583 247.465 306.062C173.063 324.065 80.0404 319.784 10.4908 268.847C9.10588 273.732 7.81891 278.659 6.63215 283.624C81.6729 335.82 179.56 338.273 255.716 318.692C272.638 346.446 280.221 371.871 280.221 390.399C280.221 391.952 280.198 393.418 280.153 394.802L275.734 393.208L275.533 393.148C227.597 378.956 170.388 375.941 115.038 384.175C93.4331 363.171 69.1885 344.906 42.8882 329.897L35.7731 342.26C57.9753 354.93 78.6539 370.019 97.426 387.189C62.8012 393.902 29.3911 405.105 0 420.814C0.692004 425.832 1.48475 430.817 2.37616 435.769Z" fill="url(#paint0_linear_354_1786)"/>
<path fill-rule="evenodd" clip-rule="evenodd" d="M82.0182 133.34C115.196 153.624 153.151 166.731 190.568 173.807L190.411 174.107C269.088 218.302 286.482 268.822 309.675 352.541C324.17 290.473 317.252 236.529 292.598 174.02C271.865 121.455 241.397 72.3337 208.761 34.8395C204.308 36.9569 199.905 39.1597 195.552 41.4458C215.725 64.1812 235.197 91.6653 252.006 121.796C216.014 115.98 170.671 97.6039 141.201 76.3065C139.751 77.4242 138.31 78.5524 136.878 79.6908L131.52 86.9084C165.588 111.983 219.928 133.205 260.274 137.256C265.03 146.543 269.516 156.037 273.681 165.681C217.437 168.4 147.298 155.812 91.4856 122.395C88.2601 125.981 85.1036 129.63 82.0182 133.34ZM279.435 179.627C262.314 180.736 243.852 180.468 224.801 178.659C266.862 209.485 291.504 252.091 305.315 294.18C303.813 256.569 294.264 217.33 279.435 179.627Z" fill="url(#paint1_linear_354_1786)"/>
<path fill-rule="evenodd" clip-rule="evenodd" d="M521.254 31.0288C487.356 68.9735 455.5 119.655 434.058 174.02C409.403 236.529 402.485 290.473 416.98 352.541C439.99 269.481 457.293 219.1 534.396 175.153C575.065 168.32 616.799 154.416 652.717 131.958L646.415 121.964C645.858 121.348 645.3 120.733 644.74 120.12C609.969 141.776 569.254 155.104 529.665 161.49L529.65 161.461L529.562 161.506C502.84 165.809 476.634 166.948 453.117 165.349C457.549 155.108 462.344 145.037 467.439 135.203C486.517 132.767 509.251 127.197 531.263 119.539C555.715 111.032 579.822 99.7603 597.287 86.9058L588.781 75.447C572.907 87.1307 550.27 97.8327 526.544 106.087C509.188 112.125 491.541 116.753 475.942 119.494C493.237 88.8782 513.253 61.0761 533.906 38.3227L534.762 37.3793C530.31 35.1756 525.806 33.0581 521.254 31.0288ZM447.387 179.204L447.377 179.229C432.458 217.053 422.847 256.437 421.34 294.18C435.066 252.349 459.491 210.007 501.083 179.228C482.266 180.674 464.121 180.613 447.387 179.204Z" fill="url(#paint2_linear_354_1786)"/>
</g>
<defs>
<linearGradient id="paint0_linear_354_1786" x1="369.5" y1="0" x2="369.5" y2="739" gradientUnits="userSpaceOnUse">
<stop stop-color="white" stop-opacity="0"/>
<stop offset="0.498614" stop-color="white"/>
<stop offset="1" stop-color="white" stop-opacity="0"/>
</linearGradient>
<linearGradient id="paint1_linear_354_1786" x1="369.5" y1="0" x2="369.5" y2="739" gradientUnits="userSpaceOnUse">
<stop stop-color="white" stop-opacity="0"/>
<stop offset="0.498614" stop-color="white"/>
<stop offset="1" stop-color="white" stop-opacity="0"/>
</linearGradient>
<linearGradient id="paint2_linear_354_1786" x1="369.5" y1="0" x2="369.5" y2="739" gradientUnits="userSpaceOnUse">
<stop stop-color="white" stop-opacity="0"/>
<stop offset="0.498614" stop-color="white"/>
<stop offset="1" stop-color="white" stop-opacity="0"/>
</linearGradient>
</defs>
</svg>
