<svg width="176" height="48" viewBox="0 0 176 48" fill="none" xmlns="http://www.w3.org/2000/svg">
<g id="Group 1">
<g id="Olivetree">
<path d="M68.8278 32.9688C67.6929 32.9688 66.6447 32.7717 65.6832 32.3777C64.7375 31.9679 63.91 31.4083 63.2007 30.699C62.4914 29.974 61.9397 29.1228 61.5457 28.1456C61.1516 27.1683 60.9546 26.0965 60.9546 24.9301C60.9546 23.7637 61.1516 22.6919 61.5457 21.7146C61.9397 20.7374 62.4914 19.8941 63.2007 19.1848C63.91 18.4598 64.7375 17.9002 65.6832 17.5062C66.6447 17.0964 67.6929 16.8915 68.8278 16.8915C69.9626 16.8915 71.0108 17.0964 71.9723 17.5062C72.9338 17.9002 73.7692 18.4598 74.4785 19.1848C75.1878 19.8941 75.7394 20.7374 76.1335 21.7146C76.5275 22.6919 76.7246 23.7637 76.7246 24.9301C76.7246 26.0965 76.5275 27.1683 76.1335 28.1456C75.7394 29.1228 75.1878 29.974 74.4785 30.699C73.7692 31.4083 72.9338 31.9679 71.9723 32.3777C71.0108 32.7717 69.9626 32.9688 68.8278 32.9688ZM69.3243 31.7866C70.333 31.7866 71.2157 31.5344 71.9723 31.03C72.7446 30.5257 73.3436 29.8164 73.7692 28.9022C74.2105 27.988 74.4312 26.9083 74.4312 25.663C74.4312 24.1341 74.1632 22.8022 73.6273 21.6674C73.0914 20.5167 72.3663 19.6262 71.4521 18.9957C70.5537 18.3652 69.5449 18.05 68.4258 18.05C67.417 18.05 66.5186 18.3022 65.7305 18.8065C64.9582 19.2952 64.3513 19.9966 63.91 20.9108C63.4686 21.825 63.248 22.9047 63.248 24.1499C63.248 25.6788 63.5159 27.0186 64.0518 28.1692C64.6035 29.3199 65.3364 30.2104 66.2506 30.8409C67.1649 31.4714 68.1894 31.7866 69.3243 31.7866Z" fill="white"/>
<path d="M81.9446 32.7323V32.3541L83.4341 31.5975V17.6953L82.0155 16.4659V16.3004L85.1837 15H85.3255V31.5975L86.8151 32.3541V32.7323H81.9446Z" fill="white"/>
<path d="M94.0283 18.9957C93.6185 18.9957 93.2796 18.8617 93.0116 18.5938C92.7437 18.31 92.6097 17.9712 92.6097 17.5771C92.6097 17.1673 92.7437 16.8284 93.0116 16.5604C93.2796 16.2925 93.6185 16.1585 94.0283 16.1585C94.4381 16.1585 94.777 16.2925 95.0449 16.5604C95.3129 16.8284 95.4469 17.1673 95.4469 17.5771C95.4469 17.9712 95.3129 18.31 95.0449 18.5938C94.777 18.8617 94.4381 18.9957 94.0283 18.9957ZM91.664 32.7323V32.3541L93.1535 31.5975V24.5518L91.7349 23.3224V23.1569L94.9031 21.8565H95.0449V31.5975L96.5345 32.3541V32.7323H91.664Z" fill="white"/>
<path d="M105.699 32.7323L101.372 23.2042L99.7882 22.4712V22.0929H105.439V22.4712L103.5 23.1805V23.3224L106.527 29.9188H106.621L109.293 23.4642V23.3224L107.59 22.4712V22.0929H112.224V22.4712L110.475 23.2987L106.195 32.7323H105.699Z" fill="white"/>
<path d="M120.349 32.9688C118.82 32.9688 117.614 32.5038 116.731 31.5738C115.848 30.6439 115.407 29.4144 115.407 27.8855C115.407 26.7033 115.636 25.663 116.093 24.7646C116.566 23.8504 117.18 23.1411 117.937 22.6367C118.709 22.1166 119.545 21.8565 120.443 21.8565C121.688 21.8565 122.666 22.29 123.375 23.1569C124.1 24.0238 124.462 25.269 124.462 26.8925L124.344 27.0107H117.275C117.291 27.7358 117.433 28.4214 117.701 29.0677C117.968 29.6981 118.394 30.2104 118.977 30.6045C119.576 30.9985 120.372 31.1955 121.365 31.1955C122.232 31.1955 123.249 30.8803 124.415 30.2498H124.486V30.4862C124.124 31.164 123.58 31.7472 122.855 32.2358C122.145 32.7245 121.31 32.9688 120.349 32.9688ZM120.065 22.8968C119.308 22.8968 118.686 23.1648 118.197 23.7007C117.724 24.2208 117.433 24.9616 117.322 25.9231H122.666C122.492 24.8513 122.185 24.079 121.743 23.6061C121.318 23.1332 120.758 22.8968 120.065 22.8968Z" fill="white"/>
<path d="M133.128 32.9688C132.435 32.9688 131.836 32.7639 131.331 32.3541C130.827 31.9442 130.575 31.3689 130.575 30.6281V23.2042H128.636V23.0623L130.646 22.0929L132.324 19.4922H132.466V22.0929H135.587V23.2042H132.466V30.2262C132.466 30.636 132.647 30.9355 133.01 31.1246C133.372 31.3138 133.798 31.4083 134.287 31.4083C134.586 31.4083 134.862 31.3926 135.114 31.361C135.382 31.3295 135.611 31.2901 135.8 31.2428H135.871V31.4793C135.713 31.8418 135.398 32.1807 134.925 32.4959C134.468 32.8112 133.869 32.9688 133.128 32.9688Z" fill="white"/>
<path d="M140.562 32.7323V32.3541L142.052 31.5975V24.5518L140.633 23.3224V23.1569L143.565 21.8565H143.707L143.919 23.8662H144.014C144.376 23.283 144.707 22.8495 145.007 22.5658C145.322 22.2663 145.614 22.0772 145.882 21.9984C146.15 21.9038 146.418 21.8565 146.686 21.8565C146.812 21.8565 146.954 21.8802 147.111 21.9274C147.285 21.9747 147.426 22.022 147.537 22.0693C147.71 22.1481 147.868 22.2427 148.01 22.353C148.167 22.4633 148.246 22.5894 148.246 22.7313C148.246 22.8732 148.215 23.015 148.151 23.1569L147.679 24.3154H147.513L146.615 23.9607C146.441 23.8819 146.268 23.8346 146.095 23.8189C145.937 23.8031 145.779 23.7952 145.622 23.7952C144.96 23.7952 144.4 24.1341 143.943 24.8119V31.5975L145.622 32.3541V32.7323H140.562Z" fill="white"/>
<path d="M157.387 32.9688C155.858 32.9688 154.652 32.5038 153.769 31.5738C152.887 30.6439 152.445 29.4144 152.445 27.8855C152.445 26.7033 152.674 25.663 153.131 24.7646C153.604 23.8504 154.218 23.1411 154.975 22.6367C155.747 22.1166 156.583 21.8565 157.481 21.8565C158.726 21.8565 159.704 22.29 160.413 23.1569C161.138 24.0238 161.5 25.269 161.5 26.8925L161.382 27.0107H154.313C154.329 27.7358 154.471 28.4214 154.739 29.0677C155.007 29.6981 155.432 30.2104 156.015 30.6045C156.614 30.9985 157.41 31.1955 158.403 31.1955C159.27 31.1955 160.287 30.8803 161.453 30.2498H161.524V30.4862C161.162 31.164 160.618 31.7472 159.893 32.2358C159.183 32.7245 158.348 32.9688 157.387 32.9688ZM157.103 22.8968C156.346 22.8968 155.724 23.1648 155.235 23.7007C154.762 24.2208 154.471 24.9616 154.36 25.9231H159.704C159.53 24.8513 159.223 24.079 158.782 23.6061C158.356 23.1332 157.796 22.8968 157.103 22.8968Z" fill="white"/>
<path d="M171.372 32.9688C169.843 32.9688 168.637 32.5038 167.755 31.5738C166.872 30.6439 166.431 29.4144 166.431 27.8855C166.431 26.7033 166.659 25.663 167.116 24.7646C167.589 23.8504 168.204 23.1411 168.96 22.6367C169.733 22.1166 170.568 21.8565 171.466 21.8565C172.712 21.8565 173.689 22.29 174.398 23.1569C175.123 24.0238 175.486 25.269 175.486 26.8925L175.368 27.0107H168.298C168.314 27.7358 168.456 28.4214 168.724 29.0677C168.992 29.6981 169.417 30.2104 170.001 30.6045C170.6 30.9985 171.396 31.1955 172.389 31.1955C173.255 31.1955 174.272 30.8803 175.439 30.2498H175.509V30.4862C175.147 31.164 174.603 31.7472 173.878 32.2358C173.169 32.7245 172.333 32.9688 171.372 32.9688ZM171.088 22.8968C170.332 22.8968 169.709 23.1648 169.22 23.7007C168.748 24.2208 168.456 24.9616 168.346 25.9231H173.689C173.516 24.8513 173.208 24.079 172.767 23.6061C172.341 23.1332 171.782 22.8968 171.088 22.8968Z" fill="white"/>
</g>
<g id="Subtract">
<path d="M0.154338 28.3044C5.19203 25.4885 12.3288 24.8576 17.6187 26.4193L18.0773 26.5848C18.0535 26.6711 18.027 26.7472 17.9981 26.8151C17.8835 27.0846 17.7181 27.2606 17.4564 27.457C17.3436 27.5416 17.2133 27.6288 17.0676 27.7262C16.5064 28.1014 15.7166 28.6295 14.8181 29.7576C13.9237 30.8805 14.3382 32.497 15.6022 33.796C15.9137 34.1161 16.2824 34.4258 16.7082 34.7169C16.1796 35.2775 15.6202 36.0653 15.3095 36.975C14.9015 38.1696 14.9231 39.5877 16.0092 40.9189C16.5671 41.6027 16.7424 42.1608 16.7315 42.591C16.7207 43.0164 16.5261 43.3897 16.1942 43.7065C15.8579 44.0274 15.3923 44.2766 14.8925 44.4284C14.4093 44.5751 13.9262 44.621 13.5412 44.5724C8.98679 42.2562 5.30683 38.478 3.12558 33.8585L2.28447 34.2523C6.11991 42.375 14.4123 48 24.0249 48C33.6376 48 41.9299 42.375 45.7654 34.2523L44.9243 33.8585C43.0742 37.7766 40.1459 41.0896 36.5204 43.4185C35.7383 43.4268 35.1421 42.8766 34.6675 42.0061C34.202 41.1521 33.935 40.1237 33.7864 39.4574C33.8054 39.2759 33.8107 39.0937 33.8013 38.9116C33.7249 37.4277 32.6917 36.1366 30.6019 35.2972C31.6362 33.5514 32.1035 32.1659 32.1779 30.9822C32.2643 29.6067 31.8164 28.5649 31.2378 27.622C31.0254 27.2758 30.8413 26.9209 30.6875 26.5607L31.0793 26.4193C36.1348 24.9268 42.8769 25.4369 47.8617 27.9427C47.9141 27.6233 47.9603 27.3018 48 26.9784C45.9401 25.9844 43.6184 25.3106 41.2435 24.9558C42.3906 23.9092 43.5913 23.0218 44.9775 22.2307L44.5154 21.4277C42.8337 22.3874 41.4145 23.4828 40.0508 24.8047C36.8306 24.4695 33.5767 24.7143 30.8015 25.536L30.7884 25.5399L30.3775 25.6882C29.9018 24.0164 30.085 22.2887 31.0991 20.8191C31.109 20.8047 31.119 20.7902 31.129 20.7758C31.1452 20.7523 31.1616 20.7289 31.178 20.7054C36.176 21.9852 42.6083 21.8038 47.4957 18.309C47.4168 17.9859 47.3313 17.6652 47.2395 17.3473C42.7299 20.7462 36.6453 21.0591 31.7702 19.8981C32.455 19.0074 33.2733 18.0814 34.2397 17.1754C38.1556 17.5384 42.4156 17.0897 46.2303 14.5306C46.1061 14.2423 45.9764 13.9569 45.8414 13.6745C42.5069 15.9629 38.7775 16.5279 35.2052 16.3204C37.5631 14.3488 40.6739 12.5614 44.697 11.5606C44.5282 11.2828 44.3538 11.0087 44.1742 10.7385C37.0381 12.6 32.7028 16.8605 30.333 20.2949C28.6605 22.7188 28.9538 25.6749 30.4447 28.1046C30.9692 28.9593 31.3203 29.8098 31.2502 30.9244C31.1862 31.9424 30.7678 33.2289 29.7126 34.9753C25.9756 33.6288 24.7001 32.1392 24.2827 30.7929C24.061 30.0778 24.0635 29.3529 24.1316 28.6142C24.153 28.3817 24.1828 28.1375 24.2129 27.8898L24.2129 27.8896C24.2736 27.3915 24.3359 26.8794 24.3359 26.4201V20.3206C24.6195 13.8196 27.4408 6.39087 30.9146 0.927216C30.6055 0.835275 30.2937 0.74932 29.9796 0.669486C26.9328 5.53594 24.3926 11.8817 23.6226 17.8265C23.4213 16.4037 23.1711 14.9226 22.8642 13.4355C22.8071 13.1592 22.7481 12.8825 22.687 12.6056L22.7293 12.6175C23.3978 10.2613 24.9075 5.02737 26.8947 0.0958247C26.5757 0.057666 26.2549 0.0256832 25.9323 0C24.3285 4.01984 23.0443 8.19536 22.2707 10.8489C21.2971 7.01914 19.9017 3.31313 17.9288 0.681076C17.6046 0.764121 17.2831 0.853684 16.9643 0.949619C19.3705 3.9842 20.9572 8.79321 21.9537 13.6219C22.9928 18.6565 23.3736 23.6256 23.4065 26.4228C23.4063 26.829 23.3558 27.2391 23.2995 27.6955C23.2675 27.9558 23.2335 28.2313 23.206 28.5296C23.1338 29.3137 23.12 30.1801 23.3946 31.0659C23.9554 32.8747 25.6483 34.568 29.8065 35.9895C32.0326 36.7506 32.8179 37.887 32.8731 38.9589C32.8821 39.1346 32.8721 39.3142 32.8438 39.4961L32.8436 39.4962L32.8437 39.4968C32.6903 40.4819 32.002 41.5383 30.9085 42.4379C28.3174 44.5695 23.8877 45.4819 20.7431 42.4624C20.5091 42.2377 20.1955 41.8022 20.0398 41.3333C19.8849 40.8669 19.9127 40.4689 20.1783 40.1733C20.5619 39.7464 21.0945 39.6209 21.7925 39.7491C21.8942 39.7678 22.0075 39.7869 22.1292 39.8075L22.1295 39.8076L22.1297 39.8076C22.86 39.9311 23.8962 40.1062 24.5969 40.5455C23.6945 39.3992 22.8444 39.0012 21.9611 38.8389C21.0635 38.674 20.1554 38.8108 19.4856 39.5562C18.9086 40.1984 18.9484 40.9949 19.1574 41.6239C19.3655 42.2505 19.7676 42.8114 20.098 43.1287C23.7 46.5874 28.686 45.4668 31.5004 43.1514C32.2373 42.5452 32.8551 41.8339 33.2652 41.0724C33.4169 41.5262 33.6088 42.004 33.8507 42.4477C34.2079 43.103 34.7134 43.7481 35.405 44.0913C32.0465 45.9902 28.1628 47.0745 24.0249 47.0745C20.8822 47.0745 17.886 46.449 15.1552 45.3162L15.1636 45.3137C15.7695 45.1297 16.3734 44.8175 16.8374 44.3746C17.3058 43.9276 17.6424 43.3345 17.6607 42.6144C17.6788 41.899 17.3809 41.1323 16.7306 40.3353C15.8834 39.2971 15.8637 38.2266 16.1894 37.273C16.4759 36.4342 17.0298 35.6974 17.5217 35.2112C18.7795 35.8905 20.4088 36.4179 22.4095 36.6592C24.1246 36.866 25.7587 37.4623 27.0072 38.23C28.2784 39.0116 29.0591 39.9124 29.2304 40.6808C29.1553 38.6492 28.5194 38.0676 27.1781 37.2429C25.8142 36.4042 24.3688 35.9631 22.5212 35.7403C19.4244 35.3669 17.3742 34.2869 16.2697 33.1519C15.1394 31.9904 15.0848 30.9121 15.5463 30.3327C16.3459 29.3287 16.9953 28.8929 17.5507 28.52L17.5509 28.5199C17.7134 28.4108 17.8679 28.3071 18.0158 28.1961C18.3543 27.9421 18.6538 27.6468 18.854 27.1759C19.0468 26.7226 19.1306 26.146 19.1306 25.3574C19.1306 23.3101 17.9521 20.4162 15.4479 17.5938C13.0124 14.8489 9.29667 12.1386 4.08671 10.2875C3.90446 10.5487 3.72727 10.8137 3.55528 11.0822C7.50773 12.4564 10.5683 14.3296 12.8451 16.32C9.28102 16.5259 5.37529 15.9783 2.06679 13.7704C1.93321 14.053 1.80499 14.3385 1.68224 14.6269C5.4674 17.0947 9.91779 17.5307 13.7728 17.1788C14.1209 17.5202 14.4468 17.8634 14.7513 18.2066C15.2499 18.7685 15.6896 19.3288 16.0735 19.8795C11.2409 21.0489 5.19884 20.7708 0.681406 17.4623C0.591451 17.7796 0.507859 18.0996 0.430775 18.4221C5.30487 21.8124 11.6629 21.9717 16.6094 20.6999C17.7085 22.5026 18.2011 24.154 18.2011 25.3574C18.2011 25.4583 18.1996 25.5535 18.1967 25.6435L17.9097 25.5399L17.8966 25.536C14.783 24.6142 11.0671 24.4184 7.47203 24.9532C6.06873 23.5889 4.49397 22.4026 2.7857 21.4277L2.32356 22.2307C3.76565 23.0537 5.10878 24.0337 6.32807 25.1489C4.0791 25.585 1.90903 26.3126 0 27.333C0.0449475 27.6589 0.0964387 27.9827 0.154338 28.3044Z" fill="white"/>
<path fill-rule="evenodd" clip-rule="evenodd" d="M5.3273 8.66078C7.48228 9.97831 9.94759 10.8296 12.3779 11.2892L12.3677 11.3087C17.478 14.1793 18.6078 17.4607 20.1142 22.8984C21.0557 18.867 20.6064 15.3632 19.005 11.303C17.6584 7.88884 15.6794 4.69827 13.5596 2.26292C13.2704 2.40045 12.9843 2.54353 12.7016 2.69201C14.0119 4.16874 15.2766 5.9539 16.3685 7.911C14.0307 7.53319 11.0855 6.33963 9.17137 4.95631C9.07722 5.02891 8.98362 5.10218 8.89057 5.17613L8.54259 5.64493C10.7554 7.27358 14.2849 8.65199 16.9055 8.91511C17.2144 9.51836 17.5058 10.135 17.7763 10.7614C14.1231 10.938 9.56736 10.1204 5.94223 7.94988C5.73273 8.18281 5.5277 8.41982 5.3273 8.66078ZM18.15 11.6672C17.038 11.7393 15.8389 11.7219 14.6014 11.6044C17.3334 13.6066 18.934 16.374 19.831 19.1078C19.7335 16.6648 19.1132 14.1161 18.15 11.6672Z" fill="white"/>
<path fill-rule="evenodd" clip-rule="evenodd" d="M33.8568 2.0154C31.6551 4.48001 29.5859 7.77192 28.1932 11.303C26.5918 15.3632 26.1425 18.867 27.084 22.8984C28.5785 17.5035 29.7024 14.2311 34.7105 11.3766C37.352 10.9328 40.0627 10.0297 42.3957 8.57105L41.9863 7.92189C41.9502 7.88185 41.9139 7.84193 41.8776 7.80213C39.6191 9.20871 36.9746 10.0744 34.4031 10.4892L34.4021 10.4873L34.3965 10.4903C32.6608 10.7697 30.9586 10.8437 29.4312 10.7399C29.719 10.0747 30.0305 9.42051 30.3614 8.78177C31.6005 8.62358 33.0772 8.2618 34.507 7.76438C36.0951 7.21185 37.661 6.47969 38.7954 5.64476L38.2429 4.90048C37.2118 5.65937 35.7415 6.35449 34.2004 6.89064C33.0731 7.28284 31.9269 7.5834 30.9137 7.76145C32.037 5.77287 33.3371 3.96706 34.6786 2.48916L34.7342 2.42788C34.445 2.28475 34.1525 2.14721 33.8568 2.0154ZM29.0589 11.6398L29.0583 11.6414C28.0893 14.0982 27.4651 16.6562 27.3672 19.1078C28.2587 16.3908 29.8452 13.6405 32.5466 11.6413C31.3245 11.7352 30.1459 11.7313 29.0589 11.6398Z" fill="white"/>
</g>
</g>
</svg>
